<?xml version="1.0" encoding="UTF-8"?>
<svg width="328px" height="49px" viewBox="0 0 328 49" version="1.1" xmlns="http://www.w3.org/2000/svg" xmlns:xlink="http://www.w3.org/1999/xlink">
    <!-- Generator: sketchtool 64 (101010) - https://sketch.com -->
    <title>D5FBD77E-F742-4E09-A885-7EDFAD99169D</title>
    <desc>Created with sketchtool.</desc>
    <g id="Page-1" stroke="none" stroke-width="1" fill="none" fill-rule="evenodd">
        <g id="HOME" transform="translate(-582.000000, -253.000000)" fill="#FFB900">
            <g id="Hero-Banner" transform="translate(-1.000000, 0.000000)">
                <g id="Group-4" transform="translate(349.000000, 174.000000)">
                    <g id="Group-3" transform="translate(234.000000, 58.000000)">
                        <g id="Group-2">
                            <path d="M260.514886,63.5384475 C260.481886,63.5454475 260.453886,63.5534475 260.422886,63.5604475 C260.568886,63.4284475 260.634886,63.3814475 260.514886,63.5384475 L260.514886,63.5384475 Z M257.3105,63.519 C257.3185,63.506 257.3205,63.496 257.3305,63.481 L257.6895,63.507 C257.5545,63.508 257.4275,63.512 257.3105,63.519 L257.3105,63.519 Z M230.378,64.4780678 C230.465,64.4880678 230.544,64.5050678 230.622,64.5210678 C230.468,64.5260678 230.399,64.5090678 230.378,64.4780678 L230.378,64.4780678 Z M198,67.5795 C198.339982,67.5265 198.67815,67.4735 199,67.4205 C198.700816,67.4845 198.377153,67.5425 198,67.5795 L198,67.5795 Z M190.463254,67.810089 C187.701267,67.0561235 191.123365,67.0368322 189.308059,65.9709918 L187.341105,66.7603246 L188.268829,66.8696416 C187.96888,67.9419124 185.224734,66.7635398 185.472276,68.0721282 C183.4741,67.0657691 182.880892,67.6798732 180.683122,66.7378182 C180.162392,67.1863393 180.969691,67.1992001 181.58966,67.2715422 C180.475722,67.2233141 180.414394,68.4949276 178.955905,67.7264937 C178.215509,67.5544802 178.726204,68.6363966 180.034161,68.6219282 C178.916878,68.5737001 177.847542,68.7875113 176.610948,68.6412194 L177.874303,69.4755651 L176.569691,69.4916411 L177.668018,69.961061 C175.173644,70.094492 172.314648,69.9240861 171,68.8309165 C173.155398,67.9772796 176.749214,68.3180914 177.996959,66.9307305 C177.518601,66.5320451 176.270857,67.9210136 175.641967,66.7378182 L174.9852,67.5126826 C174.224734,67.7634685 172.46964,68.068913 172.316878,67.284403 C173.94151,66.8407047 174.629498,66.3246644 175.356513,65.800586 L175.387734,66.4580954 C175.841561,64.615783 177.825241,66.9982498 177.815205,65.0096456 C177.875418,65.0064304 177.933401,65.0032152 177.992499,65 C178.287988,65.2459632 178.688292,65.2700772 179.098632,65.2395328 C179.070755,65.408331 178.906842,65.5803445 178.86447,65.6687626 C179.582565,65.950093 180.235986,65.9291942 180.867106,65.7909404 C180.887177,65.9886755 180.871566,66.2410691 180.806893,66.5690199 C182.884237,66.7072737 184.333806,65.6237497 186.187025,65.2620392 C186.756817,65.5706989 187.643284,65.7250287 187.191688,65.9758147 C188.111607,66.0819164 188.782869,65.8279152 189.391688,65.5063948 C190.112012,66.7153118 191.498023,67.0641615 193,67.1702632 C192.423517,67.5303662 191.806893,67.8792159 190.463254,67.810089 L190.463254,67.810089 Z M135.78541,68.9848943 L132.788141,68.581571 C133.296894,68.5226586 133.3602,68.3353474 133.603067,68.2009063 C131.536977,68.8006042 130.786508,68.0422961 129.233776,69 C128.248499,68.6132931 130.764639,68.3625378 129.68728,68.223565 C130.278907,68.1223565 130.848664,67.6903323 131.306772,67.2265861 C131.264184,67.3882175 131.222747,67.5377644 131.183612,67.6570997 L131.387344,67.1465257 C131.602585,66.9199396 131.797108,66.6903323 131.936382,66.4864048 C131.771786,66.4622356 131.626757,66.4501511 131.493238,66.4425982 C131.610642,65.918429 131.732651,65.3444109 131.858113,64.8096677 L132.643112,64.570997 C132.414058,64.6193353 132.153926,64.641994 131.897248,64.641994 C131.999689,64.2129909 132.104432,63.826284 132.209175,63.5407855 C133.263514,63.5347432 134.140595,63.6918429 135.265147,63 C135.254787,64.439577 135.822243,64.6601208 135.265147,65.4833837 C135.153497,65.4682779 135.10055,65.4425982 135.069472,65.4093656 C134.446768,66.1888218 133.117334,67.0347432 132.086016,67.223565 C135.726708,67.6963746 134.788622,67.1933535 137.982716,67.5377644 C138.262415,68.3700906 135.04415,68.4259819 135.78541,68.9848943 L135.78541,68.9848943 Z M128,67.7567153 C128.713277,67.2056792 128.397746,67.3944743 129.875408,67 C130.139831,67.3914045 129.956512,67.4742901 129.577653,67.8257866 C129.642093,67.8457406 129.683201,67.8503454 129.739863,67.8649271 C129.545434,67.9217191 129.298787,67.9693016 128.957702,68 L128,67.7567153 Z M127.436,68.5345 C127.458,68.5095 127.478,68.4875 127.499,68.4655 C127.534,68.4865 127.558,68.5085 127.564,68.5295 C127.515,68.5365 127.482,68.5295 127.436,68.5345 L127.436,68.5345 Z M120.140964,64.7532468 C119.198795,65.4823748 120.075904,65.487013 118.079518,66 C117.372289,65.6864564 116.877108,65.2263451 116.771084,64.7866419 C116.056627,65.2337662 114.163855,65.4090909 112.083133,65.3766234 L112.975904,65.135436 C112.6,65.1113173 112.283133,65.1141002 112,65.1298701 C112.022892,65.0760668 112.045783,65.0176252 112.06506,64.9489796 L113.304819,64.6326531 C114.344578,64.6632653 115.391566,64.7059369 116.448193,64.7690167 C116.453012,64.8664193 116.445783,64.9443414 116.553012,64.7884972 C116.539759,64.7820037 116.53012,64.7773655 116.519277,64.7717996 C116.603614,64.7773655 116.686747,64.7801484 116.771084,64.7857143 C116.76506,64.7615955 116.757831,64.7374768 116.754217,64.7142857 C117.8,64.8497217 117.43012,64.4842301 117.644578,64.3265306 C118.437349,64.3988868 119.298795,64.3831169 119.26506,64.7476809 C119.777108,64.4768089 120.812048,64.2393321 121.539759,64 L122,64.471243 L120.140964,64.7532468 Z M110,66.6365 L110.214612,66.0775 C110.447489,66.1005 110.73242,66.3835 111,66.5865 C110.702283,66.6915 110.469406,66.8225 110.231963,66.9225 C110.290411,66.8205 110.193607,66.7585 110,66.6365 L110,66.6365 Z M76,60.7695 L76.0043684,60.7625 C76.0906443,60.7285 76.1638151,60.6835 76.228249,60.6305 C77.0036403,60.4625 77.261376,60.2445 77.0724427,60.0455 L77.4666909,60.0375 L79,60.9625 L77.7560976,60.9495 C77.130324,60.8785 76.522024,60.8075 76,60.7695 L76,60.7695 Z M65.3316819,60.841 C65.3316819,60.841 65.4084716,60.738 65.6215011,60.699 C63.6646024,60.702 63.1790934,60.73 62,60.789 C62.0371563,60.575 62.1176616,60.379 62.2761952,60.205 L63.166708,60.19 L63.4131781,60.338 L63.8293287,60.178 L64.8969532,60.159 C65.0790191,60.365 64.8895219,60.53 64.8895219,60.617 C65.5199405,60.458 66.2407729,60.425 67,60.45 C66.457518,60.569 65.9014119,60.698 65.3316819,60.841 L65.3316819,60.841 Z M29.083727,54.7283624 C29.0813533,54.7113624 29.0813533,54.6983624 29.0781882,54.6823624 L29.0394168,54.7433624 C29.0315042,54.7453624 29.0220091,54.7483624 29.0148879,54.7513624 C28.9840289,54.6403624 29.0038103,54.5573624 29.0497031,54.4903624 C29.0386255,54.3363624 29.0821445,54.2143624 29.338511,54.2573624 L29.288662,54.3333624 C29.3804475,54.3083624 29.4896407,54.2983624 29.6035814,54.2943624 C29.6589692,54.3463624 29.7665799,54.4003624 30,54.4543624 C29.7879437,54.5743624 29.3472148,54.6463624 29.083727,54.7283624 L29.083727,54.7283624 Z M27.4973227,46.7845 C27.3163227,46.5505 26.9633227,46.2365 27.2793227,46.2155 L27.8473227,46.4825 C27.7533227,46.6045 27.6423227,46.7105 27.4973227,46.7845 L27.4973227,46.7845 Z M108,23.3347608 C106.069654,23.5067608 106.574548,24.0427608 104.873494,23.9727608 C104.778614,23.4527608 103.494352,23.9487608 102.434864,23.9817608 L103.182605,23.6197608 L102,23.4287608 C103.246988,22.8307608 107.271461,22.9637608 108,23.3347608 L108,23.3347608 Z M107,26.8555 C106.364871,26.5385 105.152693,26.8555 105,26.1855 C105.593911,26.1605 106.180328,26.1485 106.761124,26.1445 C106.726464,26.1545 106.68993,26.1655 106.665574,26.1705 C106.777049,26.2085 106.946604,26.3565 107,26.8555 L107,26.8555 Z M122,24.1278463 C121.953206,24.3278463 121.745234,24.5118463 121.785789,24.6318463 C120.834315,24.7898463 119.889081,24.9298463 119,24.8878463 C119.927556,24.5918463 120.554593,23.9778463 122,24.1278463 L122,24.1278463 Z M128.925466,24.429 C128.106832,24.51 127.263354,24.59 126.350311,24.666 C126.237267,24.597 126.11677,24.547 126,24.489 C127.059627,24.397 128.209938,24.377 129,24.334 L128.925466,24.429 Z M132,24.348527 C131.038696,24.453527 130.04087,24.554527 129,24.653527 C130.856087,24.369527 131.403913,24.336527 132,24.348527 L132,24.348527 Z M149.973908,24.1788542 C150.581434,24.2838542 150.87476,24.3648542 151,24.4358542 C149.822302,24.7158542 148.599561,24.9518542 147,24.7528542 C147.758034,24.4868542 148.289756,24.1238542 149.973908,24.1788542 L149.973908,24.1788542 Z M155.385819,24 C156.535975,24.3733075 157.189781,24.377176 158,24.4574468 C157.88634,24.5473888 157.82586,24.7088975 157.855057,25 C157.11366,24.3085106 155.104275,25.2717602 155,24.3762089 C155.280501,24.3297872 155.452555,24.229207 155.385819,24 L155.385819,24 Z M164.024694,22.8948646 L162.679568,22.3447311 L164.069809,22.3351912 L162.900392,22.0256748 C165.556215,21.9376958 168.600261,22.0500545 170,22.7708461 C167.705093,23.3336995 163.878666,23.1089821 162.55016,24.0226914 C163.05948,24.2855684 164.387985,23.3707991 165.056393,24.1509499 L165.755669,23.6400359 C166.565357,23.4736179 168.435237,23.2732802 168.597887,23.7905541 C168.04464,23.8838331 167.593494,23.9824119 167.211207,24.0841707 L167.270569,23.8605133 L167.010566,24.14353 C166.065535,24.4148868 165.532471,24.7085034 164.821323,25 C164.742966,24.9597205 164.701413,24.8728015 164.721596,24.6915436 L165.100321,24.4625863 L160.054612,24.1880495 L160,23.4672579 C160.356168,23.3273396 160.758637,23.2478405 161.527959,23.4990576 C162.316277,23.6114162 161.773715,22.8980446 160.381099,22.9086445 C161.570699,22.9393841 162.709248,22.7994657 164.024694,22.8948646 L164.024694,22.8948646 Z M170.736683,26.3314767 C170.754683,26.4624767 170.683683,26.5814767 170.423683,26.6624767 C170.354683,26.6744767 170.303683,26.6674767 170.260683,26.6514767 C170.276683,26.6334767 170.276683,26.6214767 170.296683,26.6024767 C170.192683,26.4504767 170.393683,26.3494767 170.736683,26.3314767 L170.736683,26.3314767 Z M182.42,24.527 C182.495,24.492 182.551,24.445 182.588,24.387 L182.644,24.58 C182.549,24.591 182.457,24.601 182.356,24.613 C182.378,24.585 182.394,24.556 182.42,24.527 L182.42,24.527 Z M205,23.1795 C204.950886,23.3745 204.900162,23.5955 204.848633,23.8205 C204.620777,23.8075 204.352663,23.7865 204.012087,23.7515 C203.907418,23.4575 204.503225,23.3105 205,23.1795 L205,23.1795 Z M205.7235,23.4479672 C205.6165,23.5099672 205.4795,23.5539672 205.2765,23.5519672 C205.4415,23.5169672 205.5965,23.4829672 205.7235,23.4479672 L205.7235,23.4479672 Z M208,23.183 C207.981398,23.201 207.959077,23.22 207.941715,23.236 C207.637889,23.291 207.541161,23.382 207.332824,23.452 C207.486597,23.425 207.619288,23.411 207.76066,23.391 C207.472956,23.618 207.327863,23.592 206.152244,23.956 L206.132402,23.956 C205.881901,23.521 206.010872,23.368 206.318418,23.044 L208,23.183 Z M223.590411,24.2185 C223.735616,24.2805 223.872603,24.3465 224,24.4165 L222.547945,24.7685 C222.353425,24.7555 222.173973,24.7655 222,24.7815 C222.173973,24.6225 222.506849,24.4835 223.590411,24.2185 L223.590411,24.2185 Z M230.5915,24.3935 C230.5405,24.4725 230.5965,24.5285 230.7225,24.6065 C230.5725,24.5815 230.4255,24.5525 230.2775,24.5245 C230.3835,24.4785 230.4875,24.4325 230.5915,24.3935 L230.5915,24.3935 Z M259.977845,26.0589888 C259.764845,26.4812734 259.735845,26.5617978 259.593845,26.6638577 C259.443845,26.6423221 259.274845,26.6273408 259.065845,26.6348315 L259.112845,26.9784644 C259.100845,26.9868914 259.093845,26.9906367 259.080845,27 C258.956845,26.5262172 259.041845,26.4222846 259.218845,26 L259.977845,26.0589888 Z M262,26.1999904 L261.964338,26.7269904 C261.535432,26.9229904 261.283872,26.8939904 261.003396,26.8349904 C260.99183,26.6019904 261.009179,26.3599904 261.065082,26.1209904 L262,26.1999904 Z M270.6135,27.404 L270.5705,27.596 C270.5135,27.587 270.4515,27.53 270.3865,27.453 C270.4635,27.437 270.5395,27.42 270.6135,27.404 L270.6135,27.404 Z M311.906,37.4354716 C311.739,37.6324716 311.447,37.5964716 311.094,37.4304716 C311.385,37.4494716 311.646,37.4504716 311.906,37.4354716 L311.906,37.4354716 Z M91.880963,61.8835 L91.9665626,61.7845 L89,61.8945 L89.6205974,61.1055 L92,61.7045 L92,61.8465 C91.9585377,61.8595 91.9224253,61.8705 91.880963,61.8835 L91.880963,61.8835 Z M32.7015,55.5445 C32.5565,55.5255 32.4235,55.4945 32.2985,55.4555 C32.4265,55.4785 32.5625,55.5105 32.7015,55.5445 L32.7015,55.5445 Z M303.515,34.5415 L303.423,34.4585 C303.476,34.4615 303.528,34.4625 303.577,34.4635 C303.575,34.5045 303.56,34.5355 303.515,34.5415 L303.515,34.5415 Z M310.25,37.391 C310.453,37.422 310.619,37.445 310.75,37.46 C310.694,37.515 310.623,37.563 310.56,37.609 C310.458,37.54 310.354,37.467 310.25,37.391 L310.25,37.391 Z M88.9745,61.542 L88.3565,61.722 C88.3825,61.319 88.1165,61.386 88.0255,61.278 C88.3165,61.331 88.6365,61.424 88.9745,61.542 L88.9745,61.542 Z M313.511233,46.195 C313.598233,46.432 313.815233,46.782 313.638233,46.805 L313.294233,46.496 C313.350233,46.368 313.419233,46.262 313.511233,46.195 L313.511233,46.195 Z M160.2295,24.6 C160.4415,24.558 160.6085,24.479 160.7705,24.4 C160.6285,24.546 160.4395,24.597 160.2295,24.6 L160.2295,24.6 Z M327.451505,54.3162043 C327.451505,54.3162043 325.893779,53.504843 324.147371,52.4971845 C324.077164,52.3859495 324.013538,52.2799491 323.959786,52.1791832 C325.10614,52.5861725 324.262555,51.9959726 324.036575,51.4921434 L323.959786,51.8651079 C323.274167,51.5 323.274167,50.5538432 322.930809,50.2921137 C322.930809,50.3680153 322.940682,50.4596206 322.950555,50.5538432 L322.994435,50.4269044 C323.027344,50.5944113 323.007599,50.7095722 322.971398,50.8051035 C322.980174,51.0066352 322.947264,51.1649815 322.760776,51.1087097 L322.796977,51.0105611 C322.509565,51.1479691 322.014823,50.9987833 321.799813,50.9320423 L321.795425,50.1429279 C321.543117,50.8875483 320.701726,50.3300645 319.834007,49.5736663 C321.904027,49.9531741 320.336428,49.3721347 319.911893,48.8748487 L319.76709,49.2478132 C319.546595,49.1863067 319.374368,49.1038619 319.218595,49.0148739 C318.954221,48.7688482 318.70301,48.5332917 318.475933,48.33176 C318.267505,48.0517095 318.104054,47.7925973 317.808963,47.674819 C317.808963,47.7245476 317.823224,47.7860541 317.834194,47.8449432 C317.780441,47.8200789 317.732174,47.8017578 317.692682,47.7991405 C317.101405,46.9393592 316.386167,47.7415601 315.651184,47.6591153 L315.650087,47.5256332 C315.621565,47.5701273 315.575492,47.5949916 315.538194,47.630325 C315.459211,47.612004 315.37913,47.5923743 315.300147,47.5465716 C314.005699,47.3057805 314.536642,46.4891845 314.015572,45.8243917 C314.159278,45.8688857 314.328214,45.9657256 314.539933,46.1515535 C314.024348,44.654461 315.21897,45.2538214 315.050033,44.49088 C315.119144,44.676708 315.276013,44.9528326 315.402167,45.2093274 C316.215037,45.0352773 317.747532,44.6165102 318.12709,43.8470255 C318.12709,43.8470255 317.226462,42.954528 316.255625,41.8801286 C316.848,41.6982266 317.339452,41.4849171 317.578595,41.2297308 C317.578595,41.2297308 316.02087,40.4183695 314.274462,39.410711 C314.204254,39.299476 314.140629,39.1934756 314.086876,39.0927097 C315.233231,39.499699 314.389645,38.9094991 314.163666,38.4056699 L314.086876,38.7786344 C313.401258,38.4135217 313.401258,37.4673697 313.0579,37.2056402 C313.0579,37.2815418 313.067773,37.3731471 313.077645,37.4673697 L313.121525,37.3404309 C313.154435,37.5079378 313.134689,37.6230987 313.098488,37.71863 C313.107264,37.9201617 313.074355,38.078508 312.887866,38.0222362 L312.924067,37.9240876 C312.636656,38.0614956 312.141913,37.9123098 311.926903,37.8455688 L311.923612,37.2187267 C312.135331,37.199097 312.348147,37.1663808 312.57303,37.1048744 C311.846823,36.9622318 312.780361,36.7070456 311.631813,36.457094 C312.072803,36.2215374 313.238903,36.1299321 313.192829,35.9179312 C312.818756,36.0173884 312.560963,36.2005991 311.907157,35.9297091 C313.142368,35.7033131 314.429137,35.688918 315.695064,36.022623 C315.64899,36.1220802 315.523933,36.2189201 315.37913,36.3105255 C317.024615,35.5711397 319.495037,35.7635109 320.597512,34.9050382 L320.110448,34.7336054 C319.713338,34.9704706 318.90705,34.9966435 318.586729,34.7767908 C319.82194,34.5517034 317.710234,33.9968369 319.015652,33.6395762 C320.813619,33.2600685 322.409739,34.1800476 323.390448,33.2352042 C321.682435,33.1396729 319.376562,32.6332264 318.683264,33.0519935 L319.785739,33.0899443 L317.268147,34.2323935 C317.171612,33.8070831 315.047839,34.5006662 315.089525,33.811009 C315.956147,33.6879962 316.747077,33.695848 317.425017,33.6251811 C317.263759,33.3294268 315.10598,33.4655261 314.194381,33.3765381 L315.34293,33.6264897 C313.291559,34.1892081 310.671946,34.0020715 308.683104,34.4313079 C310.247411,33.8895279 306.695358,33.9588862 307.949217,33.3883159 C308.459318,33.0232033 309.284254,33.5872303 309.047304,33.428884 C309.204174,32.816437 307.831839,33.3058711 307.429244,32.8517705 C307.218622,33.2495993 305.186997,33.4655261 306.38491,33.9287873 C305.982314,33.7612804 305.286823,33.9287873 304.602301,33.9863678 C304.45311,33.7259469 304.448722,33.4079456 304.339023,33.0899443 C306.43208,32.434312 308.519652,31.7603586 309.591411,31.4672216 L309.073632,31.8323342 C310.65988,30.9450713 312.259291,31.8663591 313.890515,31.195023 C313.822502,31.3271963 313.63711,31.3782336 313.940977,31.4057152 C315.956147,31.5352713 316.75695,30.2946736 318.37501,30.8704784 L318.173164,31.2643813 C318.310288,31.21727 319.266863,30.8927254 319.077084,30.4530199 C317.720107,30.5982798 317.463411,30.7801817 316.25014,30.6610948 C316.747077,30.3025255 317.828709,30.0028452 318.624027,30.0002279 L318.711786,29.3066448 C319.734181,28.5738023 320.774127,29.6482018 321.792134,28.9166679 L320.597512,28.4507895 C320.631518,28.4206906 320.72586,28.4036782 320.801552,28.3801225 C320.260736,28.4507895 319.794515,28.5423948 319.667264,28.7072843 C317.868201,29.0841748 316.944535,28.0922201 316.65493,27.717947 C315.812441,27.4941683 316.957699,26.8437705 316.855679,26.4171515 C315.50309,26.5624113 315.580977,27.3332046 314.225097,27.4771558 C313.868575,27.3855505 313.992535,27.2455253 314.152696,27.1696237 L313.246582,27.5216498 C313.19612,27.3070317 310.875987,27.149994 312.249418,26.6592512 C312.454555,26.6801896 312.834114,26.6592512 313.128107,26.6893501 C311.235799,26.1894468 307.964575,25.639815 308.067692,24.8624784 C307.035425,24.689737 307.322836,25.0679361 305.679545,24.8363055 C304.917137,25.3859374 305.73988,25.9525817 303.945204,26.3307808 L305.360321,26.6055967 C305.65212,26.4995963 305.894555,26.3634969 306.212682,26.2758176 L304.738328,26.3412499 C305.669672,26.0847551 305.504027,25.7903094 305.778274,25.2616159 C308.045753,25.2079613 308.668843,26.1685085 309.818488,26.4223861 C309.114221,26.8398446 307.899853,26.719449 308.35291,27.3881678 C307.218622,26.7927333 307.095759,27.9613554 305.778274,27.4130321 L306.031679,27.2324388 C304.963211,27.7506631 304.816214,27.1120432 303.933137,27.580539 C304.000054,27.4483656 303.881579,27.3672295 303.768589,27.2860933 C301.848856,27.5844649 304.349993,27.691774 302.424776,28.3369371 C300.716763,28.2361713 301.869699,27.238982 301.39909,26.9157461 C304.265525,26.0167054 301.34095,25.7981613 304.44214,25.0627015 C304.430074,24.1597348 303.213512,24.0393392 301.55596,24.1545002 C302.636495,24.5379339 300.868147,25.476234 302.304107,26.1030761 C299.826007,26.5545595 300.033338,28.3094556 297.263438,27.4836991 L297.331452,27.350217 L296.192776,28.0032321 L294.62408,27.6394281 C295.596013,26.6919674 296.792829,27.1578459 297.557431,26.608214 C295.648669,25.658136 294.994863,27.5399709 292.793204,27.4614521 C290.961231,26.3792007 295.034355,26.8450792 295.024482,25.9434211 C294.582395,26.1802863 293.381191,25.7144079 293.523799,25.4500611 C295.583946,25.7903094 294.777659,24.8807995 297.074756,25.3807028 C295.954729,25.6882349 297.245886,25.6751484 297.036361,26.0742859 C297.364361,25.7562846 299.514462,25.6188766 301.03489,25.7706797 C301.381538,25.1085041 299.717405,25.2236651 298.757538,24.9226762 C296.939826,25.6463582 295.056294,24.3494887 293.658729,25.1844057 C291.697311,25.2707764 293.511732,24.5470944 293.393258,24.4659583 C291.631492,24.1545002 292.628656,25.0155902 292.068094,25.1687019 C289.407893,25.6699138 289.110609,24.3913654 287.213913,24.3455627 C285.636441,25.2341343 281.794783,24.9266022 279.104963,24.8703303 C279.429672,24.556255 279.073151,24.3128465 278.910796,24.0170922 C277.309191,25.2524553 277.88511,24.7499348 275.883104,25.5272713 L277.576856,25.9695941 C276.218783,26.1148539 275.126181,26.9798698 273.88,26.3006819 C275.042809,27.0989568 273.488375,27.1840188 272.113846,27.2991798 C271.71893,27.101574 271.351438,26.8555483 271.012468,26.5715719 C272.065579,26.24441 273.007893,25.9185568 274.457017,25.8033959 C272.727064,25.320505 271.658595,25.8020872 270.594515,26.1619653 C270.493592,26.0546562 270.37402,25.9709027 270.281873,25.8531245 L270.201793,26.2875954 C269.993365,26.3477932 269.781645,26.3975218 269.563344,26.430238 C269.383438,26.1449528 269.215599,25.9800633 269.108094,26.4511763 C268.715371,26.4616455 268.300709,26.426312 267.821324,26.2640397 L268.769124,27.0884876 L268.320455,27.4261186 C268.162488,27.3934024 268.026462,27.4549088 267.893726,27.5203412 C267.609605,27.5007115 267.357298,27.4274272 267.153258,27.238982 L267.34194,27.1879448 L266.945926,27.1630805 C266.942635,27.0112774 266.949217,26.8725608 266.895465,27.1081173 C266.909726,27.1303643 266.921793,27.1447594 266.93386,27.1630805 L265.326769,27.061006 L265.571398,25.9748287 C264.186997,25.5599875 262.484468,26.3648056 262.961659,26.6893501 C261.508147,26.4092996 262.364896,26.2836695 262.154274,25.7772229 C262.973726,25.4395919 264.737686,24.5039091 265.242301,25.3859374 C265.123826,25.3048012 264.817766,25.2747023 264.747559,25.4068757 C268.531077,25.9015444 265.981672,24.0890678 267.869592,23.8116346 C266.885592,23.7344244 266.151706,23.2096568 265.099692,23.4975592 C264.612629,23.5211149 262.627077,23.9503512 261.625525,24.3377108 C263.001151,23.8469681 263.707612,24.3324763 264.78705,24.7172186 C263.872161,24.6269219 263.72297,25.2367516 262.938622,24.8821081 L263.194221,24.6988975 L262.194863,25.0875658 C262.108201,24.7185272 261.216348,24.685811 260.761097,24.5798106 C260.773164,24.5470944 260.777552,24.5117609 260.790716,24.4790448 C260.774261,24.5169955 260.765485,24.5405512 260.751224,24.5771933 C260.424321,24.4986745 260.335465,24.3822049 260.971719,24.0655122 C259.763933,24.1937596 260.325592,24.5510204 259.600482,24.7865769 C259.011398,24.3468714 259.217632,25.5063329 258.666943,25.4696908 C258.637324,25.6830003 258.606609,25.9211741 258.57699,26.1645825 L257.92099,25.9185568 C258.136,26.4250034 256.799866,26.2247803 256.42689,26.3268548 C255.464829,26.0245573 256.08792,24.8363055 254.454502,25.5089502 L254.57188,25.5900864 C253.637244,25.8465812 253.083264,25.999693 251.744936,25.7981613 C251.817338,25.6672966 252.185926,25.5639134 252.369124,25.5141848 C250.793846,25.183097 248.433124,25.9394952 247.208883,25.5220367 C247.247278,25.3754682 247.319679,25.2328256 247.478742,25.1032695 L247.128803,25.5010983 C246.931344,25.4225795 246.760214,25.3178877 246.639545,25.1582327 C246.79093,24.5510204 247.57089,24.9043551 247.611478,24.2133893 C250.496562,25.120282 249.633231,23.0931872 253.032803,23.6323499 C253.189672,25.1778624 255.899237,22.7333092 256.546462,24.2565747 C255.211425,24.0563517 253.440883,24.9920345 253.676736,25.1556154 C254.905365,25.0692447 256.626542,25.0365285 257.483291,25.1961835 C256.729659,24.6910456 256.970997,23.8404249 257.518395,23.3117313 C255.532843,23.739659 251.923746,22.6940498 249.113258,22.5566418 L249.428094,23.4870901 C247.000455,24.1545002 249.723184,22.6168396 247.828682,22.567111 L246.991679,23.2502249 L246.872107,23.1690888 L245.481124,24.0040058 C246.464027,23.9621291 246.012067,23.2934103 247.092602,23.6768439 C248.053565,23.9791415 247.052013,24.3665011 246.776669,24.8965033 C246.120669,24.6216873 243.781886,24.8114412 245.225525,24.188525 L242.66186,25.116356 C242.679411,24.7708731 243.239973,24.6164527 243.49996,24.4358594 L241.649338,24.5994403 L241.716254,24.4685756 C240.416321,24.8245277 238.668816,24.8742563 237.486261,25.3139618 C237.209819,25.2511467 236.91802,25.183097 236.606475,25.1098128 L237.047465,25.635889 C236.40792,25.8321861 235.771666,26.02194 235.318609,25.9185568 C235.348227,25.4055671 235.745338,24.8048979 236.756763,24.4685756 C237.277833,25.0064296 238.606288,24.303686 239.5859,24.2618093 C238.322167,23.9281042 237.929445,24.374353 236.941057,24.4175383 C237.639839,24.0013885 235.62796,23.873141 235.648803,23.5276581 C235.780441,23.2620027 236.194007,22.4702711 237.463224,22.8026675 C239.357726,22.8484702 237.660682,23.6532883 238.220147,23.5001765 C238.722569,24.3835135 240.862796,23.3444475 242.011344,23.5957078 C242.132013,23.6768439 241.755746,23.7789184 241.569258,23.8299557 C242.557645,23.7867703 244.636441,23.784153 244.788923,23.1730147 L242.317405,23.6258067 C241.77988,23.4347442 243.08091,23.0748662 242.308629,22.7215314 C241.745873,22.8733345 241.072321,22.9466187 240.341726,22.8079021 L240.478849,22.5435553 C238.980361,22.0488866 236.638288,22.2360232 234.912722,22.4833575 C234.607759,23.5525224 233.980281,24.2971428 233.356094,25.2747023 C232.741779,25.20927 232.131853,25.1242079 231.533993,25.0155902 C232.75604,24.8192931 233.371452,24.1152408 232.707773,23.6532883 L232.258007,23.8888448 L231.318983,23.2397557 C231.066676,24.1283273 229.605485,24.032796 228.234247,24.0969197 C227.99291,24.0000798 227.764736,23.8914621 227.54095,23.7815357 C228.263866,23.2842497 228.997753,22.8406183 229.962007,23.3876329 L229.817204,22.7463957 C230.983304,22.6534817 231.927813,23.3012621 232.575037,22.6704941 L231.216963,22.815754 L231.24,22.4702711 C230.27794,22.5121478 229.051505,23.0539278 228.16404,22.6704941 C227.763639,22.8890382 227.374207,23.1717061 226.811452,23.375855 C226.733565,23.3274351 226.646903,23.2855584 226.572308,23.2358298 L226.487839,23.4766209 C226.08305,23.5865473 225.58392,23.6480537 224.959732,23.6323499 C224.830288,23.5551397 224.708522,23.517189 224.598823,23.5485965 L224.631732,23.4870901 C223.216615,24.66749 220.689151,22.7568648 219.619585,23.2750892 C219.00198,24.4646496 221.915585,23.7776098 222.622047,24.2644266 C221.741164,24.7329223 220.798849,24.0851419 221.554676,24.7839596 C221.2179,24.8755649 220.964495,24.9069724 220.758261,24.9030465 C220.650756,24.8559352 220.53996,24.7944288 220.421485,24.7106753 L220.421485,24.7106753 C220.419291,24.7067494 220.416,24.7067494 220.416,24.7067494 C220.354569,24.6622554 220.289846,24.6164527 220.227318,24.5614895 C220.227318,24.5994403 220.232803,24.6321565 220.237191,24.663564 C220.140656,24.6373911 220.059478,24.6203787 219.980495,24.6033663 C219.707344,24.370427 219.50111,24.1531916 218.629003,24.5693414 L219.243318,24.7617126 C219.21699,24.8598611 219.218087,24.9750221 219.181886,25.0692447 C218.989913,25.1359857 218.785873,25.1804797 218.573057,25.20927 C218.41509,25.1817884 218.225311,25.1372944 217.977391,25.0600842 C217.621967,24.6321565 217.42012,24.9933432 217.178783,25.4435179 C217.040562,25.4919378 216.907826,25.5508269 216.790448,25.635889 C216.769605,25.7890008 216.816776,25.8714455 216.893565,25.9277174 C216.689525,26.2208544 216.432829,26.4393985 216.057659,26.3451759 L214.94202,24.5758847 C212.929043,23.561683 212.584589,25.3349001 209.668789,25.3414434 C209.017177,25.0469977 208.532308,24.5601809 208.283291,23.9935366 C208.443452,23.943808 208.602515,23.9006226 208.752803,23.8757583 C208.556441,23.8535113 208.377632,23.8338816 208.208696,23.8155606 C208.106676,23.5158803 208.068281,23.1965704 208.113258,22.8707172 C209.502047,22.6796547 210.21509,23.04215 211.472241,22.3380977 C212.410167,22.6718028 210.012147,22.8903469 211.040027,23.0107424 C210.169017,23.1455331 209.314462,23.9555858 208.896508,24.5156869 C211.146435,24.8035893 210.174502,23.5996337 212.089846,23.3012621 L213.520321,23.9281042 C214.385846,23.8050914 213.238395,23.5512138 213.186836,23.3418302 C214.239946,23.1638542 214.639251,23.6218807 215.435666,23.6310413 C215.202007,23.4674604 214.664482,23.2750892 214.798314,23.0107424 C216.11909,23.557757 217.42012,23.2018049 218.645458,24.2212412 C217.9379,23.7357331 219.452843,22.9819522 220.015599,22.8275318 L217.49691,21.8185647 C214.29699,22.1300228 212.303759,21.6576011 208.849338,22.1509611 L209.053378,21.754441 C203.612308,20.5269298 204.53707,23.6716093 199.882542,23.7017082 C199.755291,22.7176054 197.730247,23.8378076 197.905766,22.8838036 C199.31101,22.949236 199.025793,22.5775802 198.625391,22.1208622 C197.810328,22.4571846 197.279385,23.1690888 195.706301,22.8079021 C196.286609,22.3093075 194.903304,21.8944662 196.444575,21.7007864 C194.314221,21.4914029 193.143732,21.5830082 192.055518,22.4467154 C188.57806,23.2894843 191.014475,21.3762419 187.560054,21.8709106 L188.066863,21.5005634 L185.916763,21.6379714 L186.624321,22.1260968 L184.080401,22.7084449 C182.517191,23.2489162 184.717753,23.3261264 184.514809,23.7239552 L185.041365,23.0107424 C186.069244,23.1808666 187.519465,22.5605677 187.734475,23.0657056 C186.054983,23.1730147 186.456482,23.7344244 185.789512,24.0184009 L187.39002,23.7278812 L187.91109,24.2644266 C189.500629,24.2801304 190.723773,24.4005259 191.671572,23.7985481 C191.014475,23.5276581 190.599813,24.3193898 190.012923,23.9150178 C190.79398,23.019903 192.763077,22.9361495 194.676227,22.6364693 C194.726689,22.8484702 195.334421,22.9099766 195.076629,23.0918786 C195.037137,23.1730147 194.702555,23.1651628 194.516067,23.1298293 C194.66087,23.5276581 193.592401,23.784153 195.392562,24.0249441 C194.837485,24.5667241 193.770114,25.413419 193.510127,25.7785316 C191.58491,24.7800336 189.903224,25.4932465 187.927545,26.0010016 C187.518368,26.0167054 187.210114,25.9565076 187.15307,25.7170252 C186.649552,25.8570504 185.350716,26.0297919 186.26012,26.3281635 C186.061565,26.3517191 185.860816,26.3700402 185.654582,26.3792007 L186.059371,25.4631476 C185.008455,24.5536377 185.770863,26.8738694 184.5181,26.4184601 L184.455572,25.2930234 C184.181324,25.6607533 183.955344,25.8256429 183.758983,25.8583591 C183.361873,25.4068757 182.935144,25.0954177 184.590502,24.4934399 C184.514809,24.5143782 183.79299,24.61907 182.617017,24.7813423 C182.554488,24.7002062 182.489766,24.622996 182.421753,24.5549463 C182.664187,24.5693414 182.818863,24.5536377 182.862742,24.7433915 C183.766662,23.9281042 182.436013,23.7252639 181.025284,23.6585229 L180.690702,24.3023774 C180.504214,24.2461055 180.33089,24.1859078 180.16305,24.1244013 C180.203639,23.6990909 180.358314,23.2711633 180.454849,22.9479274 L179.571773,23.9045486 C179.493886,23.8757583 179.413806,23.8482767 179.334823,23.8221038 L179.171371,22.8079021 C178.599839,23.9124005 178.44297,23.2803238 177.869244,23.1690888 L179.139559,22.3642706 L179.602488,21.7832312 L177.177043,22.4467154 C177.500656,22.1326401 176.331264,22.2268627 176.841365,21.8604414 C176.65707,21.91017 175.790448,22.0358002 176.026301,22.1967638 L176.521043,22.1771341 C175.241953,23.0918786 176.016428,23.4439047 173.895946,24.1414137 C174.784508,24.507835 175.335197,24.3966 175.814582,24.1610435 L175.784963,24.4908226 L173.846582,25.7183338 C173.507612,25.5678394 173.178515,25.4251968 172.766047,25.6411236 L173.467023,25.075788 C172.712294,25.2851715 172.287759,25.2262824 171.955371,25.0679361 C172.080428,24.7146013 172.026676,24.3193898 171.278528,23.9555858 C172.185739,24.0419565 172.304214,24.121784 172.932789,23.8378076 L172.018997,23.7475109 C173.374876,23.6035597 175.448187,22.6953584 175.418569,22.1378746 C175.003906,22.9309149 174.13509,22.1509611 173.404495,22.0096272 C173.96396,21.8552068 175.153097,21.4181186 174.241498,21.3278219 C173.917886,21.6445146 171.440883,22.0946893 173.198261,22.4048387 C172.453405,22.611605 171.45295,22.9989646 170.608268,22.7764946 C171.60214,22.3891349 170.948334,22.1182449 171.225873,21.5882428 C170.342796,22.0554299 170.371318,22.6129136 170.228709,22.878569 C167.702341,22.2137762 166.677753,20.7938938 163.832161,21.3487603 C163.458087,21.4495261 165.557726,21.1014259 165.286769,21.6288108 C163.207973,22.5370121 162.581592,20.6721896 160.780334,21.0516973 L161.286047,21.9337257 C160.726582,22.0855288 159.366314,22.2307886 158.694957,22.3053815 C158.523826,22.0096272 156.600803,21.4050321 158.02689,21.1289075 C154.934475,20.6159178 155.290997,23.0107424 151.747719,22.7333092 C153.386622,22.9636311 153.575304,22.9125939 154.864268,22.9008161 C153.989967,23.2122741 154.141351,23.2881757 154.328936,23.4569912 C153.964736,23.4844728 153.613699,23.5342014 153.276923,23.6087943 C152.386167,23.539436 151.62705,23.5957078 152.827157,23.1167429 C151.72907,23.0787921 149.529605,23.0015819 149.020602,23.3680032 L149.982662,23.6716093 C148.827532,23.6585229 147.69105,23.9424993 146.903411,24.3390195 C146.837592,24.3233157 146.782742,24.3220071 146.715826,24.3023774 C146.238635,23.6362759 145.457579,23.2947189 144.549271,23.1101996 C145.19101,23.1115083 145.940254,23.1586196 146.584187,23.1324466 C145.646261,22.7961243 146.189271,22.5134564 146.872696,22.2085416 C146.995559,22.184986 147.077833,22.1404919 147.135973,22.0894547 C147.214957,22.0528126 147.289552,22.0174791 147.367438,21.980837 L147.190823,21.9821456 C147.20289,21.8944662 147.164495,21.7910831 147.036147,21.6471319 C145.799839,21.8722192 144.855331,21.2257474 144.058916,21.2165869 C144.845458,22.474197 141.348254,21.5071066 140.347799,21.8944662 L139.192669,22.0174791 L138.760455,22.0200964 C138.673793,21.8813798 138.796656,21.709947 139.454849,21.4599953 C138.905258,21.7086383 137.07109,21.6222676 137.240027,22.025331 L133.053913,22.043652 C132.924468,21.9926148 132.793926,21.9284911 132.697391,21.8381944 C132.552589,21.9167132 132.527358,21.9821456 132.547104,22.0449607 L114.308548,22.1260968 C115.20808,22.225554 115.986943,22.5121478 116.9139,22.6521731 C115.521819,23.4870901 118.435425,22.8026675 118.027344,23.5917819 C117.400963,23.8783756 116.484977,23.7893876 115.939773,23.5970164 C115.764254,23.9398821 116.314943,24.2513401 116.413672,24.6347738 L115.802649,25.3754682 C114.128642,24.0419565 111.733913,25.1255165 109.344669,24.7067494 C110.913365,24.66749 112.502903,24.5575636 114.196656,24.1911423 C111.239171,23.4164231 116.135037,23.5459792 115.205886,22.5553332 L113.596602,22.8838036 L113.733726,22.6168396 L111.770114,22.7032103 C112.172709,23.1599282 112.475478,23.1887185 112.387719,23.6663748 C109.76701,23.4805468 111.561686,23.0997305 109.639759,22.496444 L106.709699,22.5828147 L106.946649,22.4388635 C106.699826,22.4506414 106.591224,22.5095305 106.506756,22.5880493 L96.6360401,22.8851123 C94.8391706,23.2659287 97.6288161,23.7462022 96.3036522,24.4489459 C98.1367224,24.4476372 100.750849,24.8402314 101.471572,24.2840563 L101.810542,25.2262824 L100.251719,24.9894172 L100.669672,24.7224532 C93.8990502,27.8200214 90.8395452,23.3928675 84.4813913,26.222163 C85.3249766,24.6988975 83.2286288,27.0217466 83.1452575,25.3571471 C82.9576722,25.1124301 82.7733779,24.9357627 82.5912776,24.8075152 C82.6241873,24.7983547 82.6658729,24.7905028 82.6889097,24.7839596 L82.8381003,23.2672373 C81.5085485,23.5276581 81.4964816,24.214698 82.1316388,24.5915884 C81.893592,24.530082 81.6599331,24.5392425 81.4306622,24.6099095 C81.2101672,24.4214643 81.2419799,24.144031 80.6770301,24.6557122 C80.683612,24.7669472 80.7625953,24.8336882 80.8711973,24.8834168 C80.1735117,25.3309742 79.5109298,26.0912983 78.8604147,26.3674229 C78.8604147,26.448559 78.8439599,26.5440903 78.7693645,26.6736464 L76.4711706,26.4734233 C77.843505,24.3691184 74.8158127,28.2191589 76.0762542,26.4289293 C70.084495,24.8546265 62.2651505,26.4590282 55.327786,25.7327289 L55.6327492,26.2732003 C53.8731773,26.1698171 51.6857793,26.8267581 50.3507425,25.9630509 C49.0146087,25.0993436 47.4305552,27.3358219 46.9127759,27.4221926 C45.4493913,28.3539496 44.1187425,26.5022136 44.7473177,26.5977448 C43.18301,26.8555483 41.7119465,28.7779513 39.5410033,27.9521948 C38.7983411,26.1685085 33.6183545,29.703165 33.5536321,27.6930827 L33.5294983,27.8618982 C30.7497258,26.4472504 28.1268227,28.8551615 25.1320401,27.5739957 C25.1320401,27.5739957 25.1890836,27.4261186 25.2900067,27.2900193 L20.1977793,32.3872007 C19.2598528,32.0639648 18.1979666,31.6399631 16.9814047,31.0759361 L16.9814047,30.9188984 C16.6545017,30.9450713 16.6566957,31.261764 16.0061806,30.8403795 L17.6308227,31.8100872 C16.6566957,32.207916 15.8065284,32.9643142 14.5087893,33.0716233 C14.2334448,32.8962645 14.1391037,32.57172 14.1127759,32.3178424 L10.929311,32.5834978 L9.95408696,31.5601356 C8.98105686,32.115002 9.42533779,34.2729615 6.8221806,33.0703146 C7.80398662,34.5687158 5.53102341,33.9693553 5.85244147,34.7309881 C5.72189967,34.5464688 5.4224214,34.2690356 5.18327759,34.0138494 C3.63542475,34.1865908 0.720722408,34.6066666 0,35.3761512 C0,35.3761512 6.05538462,38.5286827 7.68331773,40.1304671 C5.50469565,39.7234777 7.10959197,40.3136777 7.53851505,40.8175069 L7.68331773,40.4445424 C8.98983278,40.809655 8.98983278,41.7558071 9.64144482,42.0175365 C9.64144482,41.941635 9.621699,41.848721 9.60414716,41.7558071 L9.52077592,41.8814372 C9.45824749,41.715239 9.49554515,41.5987694 9.56465552,41.5045468 C9.54929766,41.3030151 9.60963211,41.1433601 9.96505686,41.199632 L9.89594649,41.2990891 C10.4422475,41.1616812 11.3834649,41.3095583 11.7926421,41.3762993 L11.8014181,42.1667223 C12.7678662,40.6630865 18.3043746,44.4607811 19.6043077,44.5105097 C20.9086288,45.5063904 22.527786,44.264484 24.1568161,44.7630787 C26.6425953,45.0064871 25.5653512,45.8387868 26.6118796,46.5075056 C26.3134983,46.480024 25.9438127,46.3753322 25.47101,46.1567881 C26.4528161,47.6551893 24.1798528,47.0558288 24.5012709,47.8174616 C24.3707291,47.6329423 24.0712508,47.3555091 23.832107,47.1003229 C22.2842542,47.2730643 19.3695518,47.6931401 18.6488294,48.4626247 C18.6488294,48.4626247 24.704214,51.6151562 26.3321472,53.2169406 C24.1535251,52.8099512 25.7584214,53.4001512 26.1873445,53.9039804 L26.3321472,53.5310159 C27.4741137,53.8503259 27.6178194,54.6132673 28.0719732,54.974454 C28.0072508,55.0071701 27.9622742,55.0425036 27.9710502,55.0830717 C28.0357726,55.0660593 28.096107,55.0451209 28.1575385,55.0254912 C28.2003211,55.0529728 28.2409097,55.0843803 28.2902742,55.10401 C28.2902742,55.0712939 28.2804013,55.0294171 28.2749164,54.992775 C28.5239331,54.9181821 28.7883077,54.8763054 29.2556254,55.0699852 C28.0215117,55.2976899 26.7347425,55.3107763 25.4688161,54.9783799 C25.5137926,54.8789227 25.6399465,54.7820828 25.7836522,54.6891688 C24.1392642,55.4285546 21.6677458,55.2374921 20.5652709,56.0959647 L21.0534314,56.2673975 C21.4505418,56.0292237 22.2568294,56.0030508 22.5771505,56.2229035 C21.3419398,56.4492995 23.4536455,57.0028574 22.1482274,57.3614267 C20.3502609,57.7396258 18.7530435,56.8196467 17.7734314,57.7644901 C19.4814448,57.86133 21.7862207,58.3677765 22.4806154,57.9490094 L21.3781405,57.90975 L23.8957324,56.7673008 C23.9911706,57.1939199 26.1160401,56.5003368 26.0743545,57.1886853 C25.2077324,57.3116981 24.4157057,57.3051549 23.7377659,57.3758218 C23.9001204,57.6715761 26.0568027,57.5354768 26.9684013,57.6244648 L25.8209498,57.3745132 C27.8723211,56.8117948 30.4919331,56.9976228 32.4796789,56.5683864 C30.9164682,57.1101664 34.4685217,57.0421168 33.2135652,57.6113784 C32.7034649,57.9777996 31.8796254,57.412464 32.1154783,57.5721189 C31.9597057,58.1832573 33.3320401,57.6938232 33.7346355,58.1492324 C33.8629833,57.905824 34.6736589,57.7304653 35.0082408,57.523699 L35.7190903,58.2578502 C34.0253378,58.7917783 32.4544482,59.2916816 31.5724682,59.5337813 L32.0891505,59.1673601 C30.504,60.054623 28.9034916,59.1333352 27.2733645,59.80598 C27.3402809,59.6738066 27.5267692,59.6227693 27.221806,59.5939791 C25.2077324,59.4657317 24.4058328,60.7050207 22.7877726,60.1305245 L22.9896187,59.735313 C22.852495,59.7824243 21.8970167,60.1082775 22.086796,60.5466744 C23.4437726,60.4027232 23.6993712,60.2208212 24.9126421,60.3385994 C24.4157057,60.6984775 23.3351706,60.9981577 22.5387559,61.000775 L22.4520936,61.6943581 C21.429699,62.4272006 20.3886555,61.3528011 19.3706488,62.0830264 L20.5652709,62.5502135 C20.5323612,62.5803124 20.4380201,62.5973248 20.3623278,62.6195718 C20.9020468,62.5502135 21.3682676,62.4572995 21.4955184,62.2937186 C23.2945819,61.9155195 24.2182475,62.9087828 24.5089498,63.2817473 C25.3503411,63.5068347 24.2061806,64.1559238 24.3071037,64.5838515 C25.6607893,64.4385916 25.581806,63.6677983 26.9376856,63.5238471 C27.2942074,63.6154524 27.1713445,63.7554777 27.0111839,63.8313792 L27.9172977,63.4793531 C27.9677592,63.6926626 30.287893,63.8497003 28.9133645,64.340443 C28.7082274,64.3208133 28.3297659,64.340443 28.0357726,64.3103442 C29.9280803,64.8102474 33.1982074,65.361188 33.0950903,66.1372159 C34.1284548,66.3099573 33.8410435,65.9330669 35.4832375,66.1646975 C36.2467425,65.6137569 35.424,65.0471126 37.2186756,64.6689135 L35.8024615,64.3954062 C35.5106622,64.5014067 35.2693244,64.637506 34.9511973,64.7238767 L36.4244548,64.659753 C35.4931104,64.9162479 35.6598528,65.2093849 35.3856054,65.7393871 C33.1170301,65.7930416 32.4950368,64.8324944 31.3453913,64.5786169 C32.0496589,64.1611584 33.2640268,64.2815539 32.8098729,63.6115265 C33.9441605,64.2082697 34.0681204,63.0396476 35.3856054,63.5879708 L35.1322007,63.7685642 C36.2006689,63.2503398 36.3476656,63.8889597 37.2307425,63.4191553 C37.1638261,63.5513287 37.281204,63.6337735 37.395291,63.713601 C39.3150234,63.4152294 36.8138863,63.3079203 38.7391037,62.6640658 C40.4471171,62.763523 39.2941806,63.7607123 39.7647893,64.0852568 C36.8983545,64.9842975 39.8229298,65.2028416 36.7217391,65.9383015 C36.732709,66.8412681 37.9503679,66.960355 39.6079197,66.8465027 C38.5273846,66.4617604 40.2957324,65.5247689 38.8597726,64.8979268 C41.3378729,64.4464435 41.1294448,62.6915474 43.9004415,63.5173039 L43.8324281,63.6494772 L44.9711037,62.9977709 L46.5397993,63.3602662 C45.5667692,64.3077269 44.3710502,63.8431571 43.6053512,64.3927889 C45.5152107,65.3415583 46.1690167,63.461032 48.3706756,63.5395509 C50.2026488,64.6204936 46.1295251,64.1546151 46.138301,65.0562731 C46.580388,64.8207166 47.781592,65.2865951 47.6400803,65.5509418 C45.5788361,65.2093849 46.3851237,66.1188948 44.0880268,65.6189915 C45.2080535,65.312768 43.9168963,65.3245459 44.1264214,64.9267171 C43.7995184,65.2434097 41.6483211,65.3808177 40.12899,65.2303232 C39.7812441,65.8911902 41.4464749,65.7773378 42.4063411,66.0783267 C44.2240535,65.3546447 46.1075853,66.6502056 47.5040535,65.8152886 C49.4665686,65.7302265 47.6521472,66.4539085 47.7706221,66.5350447 C49.532388,66.8465027 48.5341271,65.9854128 49.095786,65.8309924 C51.7548896,65.3310891 52.0532709,66.6083289 53.9488696,66.6554402 C55.5274381,65.7668687 59.369097,66.0744008 62.0589164,66.1306726 C61.7331104,66.4434393 62.0896321,66.6868477 62.2519866,66.9839107 C63.854689,65.7485476 63.2776722,66.2510682 65.2807759,65.4737316 L63.5870234,65.0314088 C64.945097,64.8848403 66.037699,64.0198244 67.2827826,64.6990124 C65.6296187,63.5644152 69.4723746,63.8719473 70.4739264,63.4845877 C71.8605217,63.8955029 73.252602,63.0618946 74.0106221,63.7607123 L73.8219398,63.8117495 L75.8360134,63.939997 L75.5924816,65.0248656 C76.9768829,65.4410155 78.6783144,64.6348887 78.2011237,64.3103442 C79.6557324,64.5903947 78.7978863,64.7160248 79.0096054,65.22378 C78.1890569,65.5601024 76.425097,66.4957852 75.9215786,65.6150656 C76.0400535,65.6962017 76.3461137,65.7263006 76.4163211,65.5941272 C72.6328027,65.0981499 75.1811104,66.9119351 73.2931906,67.1893683 C74.2771906,67.2665785 75.0121739,67.7913461 76.0630903,67.502135 C76.5512508,67.479888 78.5368027,67.0506517 79.5383545,66.6632921 C78.1627291,67.1527262 77.4551706,66.6685267 76.3757324,66.2837844 C77.2917191,66.374081 77.4409097,65.7629427 78.2252575,66.1175861 L77.9696589,66.3021054 L78.9690167,65.9134372 C79.1182074,66.5533657 81.7092977,66.1817099 80.1921605,66.9354907 C81.5502341,66.7915395 80.6583813,66.35576 81.894689,66.1306726 L79.4549833,65.8911902 L79.4966689,65.2028416 C80.3874247,64.7343459 80.6013378,65.2421011 81.5842408,65.1976071 L81.5008696,64.4268138 L83.2417926,65.0824461 C83.0267826,64.5759996 84.3640134,64.774914 84.73699,64.6728395 C85.6979532,64.9764457 85.0759599,66.1646975 86.7093779,65.4907441 L86.590903,65.4096079 C87.5266355,65.153113 88.0795184,65 89.4178462,65.2028416 C89.3465418,65.3337064 88.9779532,65.4357809 88.7936589,65.4868181 C90.6662207,65.880721 93.6697793,64.7160248 94.5243344,65.8414616 C94.3729498,66.4499826 93.591893,66.0966478 93.5524013,66.7863049 C90.6662207,65.880721 91.5295518,67.9065071 88.1310769,67.3673444 C87.9742074,65.8231405 85.2635452,68.2663851 84.6174181,66.7431196 C85.9513579,66.9446513 87.7229967,66.0076598 87.4860468,65.8440788 C86.2585151,65.9317582 84.5373378,65.9644744 83.6805886,65.8048194 C84.4342207,66.3086487 84.191786,67.1605781 83.644388,67.6892716 C85.6299398,67.2600353 89.2401338,68.3069532 92.0506221,68.4443611 L91.734689,67.5139129 C94.1623278,66.8465027 91.4406957,68.3841634 93.3351973,68.4325833 L94.1722007,67.7494694 L94.2917726,67.8319142 L95.6816589,66.9969972 C94.6998528,67.0375652 95.1518127,67.7075927 94.0712776,67.324159 C93.1103144,67.0218615 94.1118662,66.6331932 94.3861137,66.1044997 C95.0432107,66.3793156 97.3808963,66.1882531 95.9372575,66.8111692 L98.5020201,65.8846469 C98.4833712,66.2288212 97.9239064,66.3832416 97.6628227,66.5651435 L99.5145418,66.4015626 L99.4465284,66.5324274 C100.937338,66.1241294 103.020522,66.1188948 104.159197,65.4645711 C102.535652,65.0405694 103.485645,64.8390377 104.323746,64.615259 C104.838234,64.7003211 105.345043,64.7984696 105.835398,64.9162479 C105.894635,65.4593365 105.530435,66.1568456 104.407117,66.5324274 C103.886047,65.9945733 102.557592,66.6973169 101.57798,66.737885 C102.840615,67.0715901 103.234435,66.62665 104.221726,66.582156 C103.52404,66.9996145 105.53592,67.1265533 105.515077,67.4733448 C105.382341,67.7390002 104.968776,68.5307319 103.700656,68.1983354 C101.806154,68.1512241 103.5021,67.346406 102.942635,67.5008264 C102.440214,66.6174894 100.301084,67.6565554 99.1525351,67.4052951 C99.0318662,67.324159 99.4070368,67.2220845 99.5935251,67.1710473 C98.6062341,67.2142326 96.5263411,67.2168499 96.3749565,67.8266796 L98.8453779,67.3751962 C99.384,67.5662588 98.0829699,67.9261368 98.8552508,68.2794716 C99.4169097,68.1263598 100.090462,68.0530756 100.822154,68.1917922 L100.68503,68.4574476 C102.182421,68.9508077 104.524495,68.7649797 106.25006,68.5163367 C106.572575,67.3922087 107.248321,66.6201067 107.905418,65.5601024 C108.324468,65.7276092 108.712803,65.9160545 109.079197,66.1188948 C108.243291,66.4067972 107.902127,66.9616637 108.45501,67.346406 L108.904776,67.1121581 L109.843799,67.7612472 C110.200321,66.5062544 112.968027,67.2194672 114.486261,66.6632921 C113.443023,67.2168499 112.545686,68.3750028 111.201873,67.6120614 L111.346676,68.2546073 C110.180575,68.3462126 109.236067,67.6997408 108.588843,68.3305088 L109.946916,68.185249 L109.922783,68.5307319 C110.88594,68.4875465 112.111278,67.9457665 112.999839,68.3305088 C113.780896,67.9038898 114.513686,67.2247018 116.601258,67.3791222 L116.532147,67.5139129 C117.946167,66.3322043 120.474729,68.2441381 121.544294,67.7246051 C122.1619,66.5363533 119.248294,67.2233932 118.541833,66.7365763 C119.422716,66.2667719 120.363933,66.915861 119.608107,66.2170433 C121.664963,65.6530163 120.836736,67.2404056 122.534876,66.4316615 L121.572816,66.1306726 C122.335224,65.5810407 123.604441,65.9134372 124.373431,65.3651139 C124.417311,65.0261743 124.197913,64.9738284 123.831518,65.0039273 C124.201204,64.8324944 124.627933,64.6584444 125.153391,64.5288883 C125.647037,64.6047898 126.185659,64.6636789 126.793391,64.6990124 C126.905284,64.7016297 126.986462,64.6728395 127.058863,64.6361973 C127.096161,64.6610616 127.124682,64.6924692 127.158689,64.7199508 L126.793391,64.6990124 C126.934903,64.7199508 127.058863,64.73042 127.176241,64.7343459 C127.961686,65.3467929 128.333565,66.2890189 128.006662,67.231245 L127.642462,67.0715901 C126.927224,67.1749732 127.582127,67.3647271 127.860763,67.5466291 C127.83992,67.5871971 127.820174,67.6277652 127.79604,67.6670246 C126.889926,67.7586299 126.471973,67.3791222 125.728214,67.3699617 C125.961873,67.5335426 126.499398,67.7246051 126.364468,67.9902605 C125.044789,67.4432459 123.743759,67.799198 122.518421,66.7797617 C123.224883,67.2652699 121.711037,68.0190507 121.147184,68.1734711 L123.665873,69.1824382 C126.865793,68.8696715 128.859023,69.3434019 132.314542,68.8500418 L132.109405,69.2452533 C137.550475,70.4740732 136.626809,67.3293936 141.280241,67.2992947 C141.408589,68.2833975 143.432535,67.1631954 143.257017,68.1171993 C141.851773,68.0504583 142.13699,68.4234228 142.537391,68.8801407 C143.353552,68.5425097 143.884495,67.8319142 145.456482,68.1917922 C144.877271,68.6916955 146.260575,69.1065367 144.718207,69.2989079 C146.849659,69.5096001 148.01905,69.4166861 149.108361,68.5542875 C152.585819,67.7115186 150.149405,69.6234524 153.603826,69.1300923 L153.09592,69.4991309 L155.24602,69.3617229 L154.539559,68.8749061 L157.082381,68.292558 C158.645592,67.750778 156.446127,67.6735678 156.647973,67.2770477 L156.122515,67.9902605 C155.094635,67.8201363 153.643318,68.4404352 153.429405,67.9352973 C155.107799,67.8266796 154.706301,67.2665785 155.374368,66.982602 L153.77386,67.2731218 L153.252789,66.7365763 C151.663251,66.7195639 150.440107,66.600477 149.491211,67.2024548 C150.149405,67.4733448 150.56297,66.6816132 151.150957,67.0859852 C150.3699,67.9811 148.4019,68.0648534 146.486555,68.3645336 C146.437191,68.1512241 145.829458,68.0910263 146.087251,67.9091244 C146.125645,67.8266796 146.461324,67.8345315 146.646716,67.8711736 C146.50301,67.4733448 147.571478,67.2168499 145.771318,66.9760588 C146.417445,66.3452908 147.763452,65.2970643 147.716281,65.0824461 C148.765003,64.908396 150.239358,64.8455809 151.080749,65.068051 L151.013833,65.2002244 C151.747719,65.2722 153.131023,64.8756798 153.726689,65.0523472 C153.79909,65.134792 153.87588,65.2120022 153.958154,65.2722 L153.936214,65.1832119 C153.962542,65.2159281 153.999839,65.2394838 154.010809,65.2839778 C154.56808,65.1295574 156.109351,64.9332603 154.539559,64.5720736 L155.624482,64.4163446 C156.406635,65.0340261 155.964548,66.0966478 155.771478,66.7444282 L156.845431,65.5823494 L156.969391,66.351834 C156.852013,66.4015626 156.722569,66.4525999 156.573378,66.5075631 C156.604094,66.4984025 156.747799,66.4761555 156.983652,66.440822 L157.054957,66.8831448 C157.184401,66.6331932 157.291906,66.4800815 157.387344,66.3819329 C157.529953,66.3609946 157.692308,66.3374389 157.868923,66.3138832 C157.9501,66.3544513 158.034569,66.4067972 158.133298,66.4525999 C157.741672,66.9773675 158.455813,67.1959116 159.433231,67.2901342 C159.438716,67.2927515 159.442007,67.2966774 159.447492,67.2992947 L159.455171,67.2927515 C159.675666,67.3136898 159.903839,67.3307022 160.138595,67.3411714 L160.47208,66.6986256 C161.690836,67.0611209 162.419237,67.6369257 164.040589,67.3568752 L167.836174,64.9541987 C168.202569,64.9031614 168.576642,64.8521242 168.950716,64.8037042 C168.995692,64.837729 169.058221,64.859976 169.119652,64.8848403 L169.006662,65.4462501 L169.345632,64.9541987 C170.00602,65.1033844 170.99002,65.0392607 170.459077,65.6438558 C170.628013,65.9409188 170.068548,66.0927218 169.337953,65.9513879 C169.22606,65.8715604 169.407064,65.8218318 169.29188,65.7393871 C169.084548,66.1372159 168.996789,66.6135635 169.885351,67.0454171 C168.977043,66.9577377 168.859666,66.8779103 168.229993,67.1631954 L169.143786,67.2521834 C167.787906,67.3961346 165.715692,68.3056445 165.744214,68.8631283 C166.159973,68.070088 167.028789,68.8500418 167.759385,68.9913757 C167.198823,69.1444875 166.010783,69.5828843 166.921284,69.673181 C167.245993,69.3551797 169.724094,68.9063136 167.965619,68.5961642 C168.710475,68.3893979 169.71093,68.0007297 170.555612,68.2245084 C169.561739,68.611868 170.215545,68.882758 169.938007,69.4127602 C170.821084,68.9455731 170.791465,68.3880893 170.935171,68.1224339 C173.461538,68.7859181 174.486127,70.2058005 177.331719,69.6522426 C177.704696,69.5501681 175.606154,69.899577 175.876013,69.3721921 C177.955906,68.4626822 178.581191,70.3288133 180.383545,69.9479969 L179.876736,69.0672773 C180.436201,68.9141655 181.797565,68.7702143 182.467826,68.6956214 C182.638957,68.9913757 184.56198,69.5959708 183.13699,69.8720954 C186.229405,70.3850852 185.871786,67.9902605 189.416161,68.2663851 C187.776161,68.0373718 187.587478,68.0884091 186.299612,68.1001869 C187.67414,67.6107528 186.510234,67.706284 186.661619,67.0951457 C187.486555,67.66179 190.150047,67.1605781 188.335625,67.8842601 C189.433712,67.9222108 191.634274,67.9981124 192.143278,67.6329998 L191.181217,67.3293936 C192.213485,67.3398628 193.229298,67.1147754 193.997191,66.7836876 C195.002033,66.7980828 196.010167,66.7679839 196.860334,66.8386508 C196.875692,66.8360335 196.887759,66.8334162 196.90202,66.830799 C197.395666,66.9551204 197.745605,67.1762819 198.038502,67.3765049 C198.113097,68.1499155 196.051853,67.8070499 194.578595,67.8685563 C195.516522,68.20357 194.974609,68.4875465 194.291184,68.7911527 C194.168321,68.8147083 194.086047,68.8592023 194.027906,68.9102396 C193.948923,68.9468817 193.873231,68.9822152 193.796441,69.020166 L193.973057,69.0188573 C193.959893,69.105228 193.999385,69.2099198 194.126635,69.353871 C195.362943,69.1287837 196.308548,69.7752555 197.104963,69.784416 C196.318421,68.5268059 199.814528,69.4938963 200.81608,69.1065367 L201.971211,68.9822152 L202.403425,68.9795979 C202.490087,69.1183145 202.367224,69.291056 201.707933,69.539699 C202.257525,69.2923646 204.092789,69.3787353 203.922756,68.975672 L208.10887,68.9573509 C208.239411,69.0083881 208.369953,69.0725119 208.466488,69.1628085 C208.611291,69.082981 208.635425,69.0188573 208.616776,68.9547336 L226.855331,68.8735975 C225.954702,68.7741403 225.176936,68.4875465 224.248883,68.3488299 C225.64206,67.5139129 222.727358,68.1983354 223.136535,67.4092211 C223.761819,67.1213187 224.677806,67.2116153 225.224107,67.4039865 C225.42705,67.004849 224.649284,66.6515143 224.739237,66.1751666 C222.438849,65.6739547 222.086716,67.5819625 219.838983,67.2914428 C219.927839,66.8137865 220.622234,66.396328 219.151171,66.4604518 L219.525244,66.3583773 C217.167813,66.8923054 217.687786,65.2774345 216.204656,66.5873905 L216.24305,65.8977334 C215.174582,66.4172664 213.094689,66.4211923 211.922007,66.5167236 L211.992214,66.3832416 C208.703438,67.1723559 210.14598,66.5507484 206.452415,66.8818362 L208.152749,66.0770181 C206.879144,65.7446217 206.591732,66.6187981 205.676843,66.5298101 C205.731692,66.418575 205.602247,66.0508451 206.055304,65.858474 L201.91307,66.9930712 C200.844602,67.5139129 202.131371,67.5008264 202.297017,67.7939634 C201.901003,68.2415208 199.961525,67.9824086 199.859505,67.5570982 C200.120589,67.372579 201.172602,67.1959116 200.511117,66.9250216 L198.977525,68.0242853 C196.936027,67.3398628 200.528669,66.5795387 201.536803,66.192179 C201.14408,66.1646975 200.813886,66.1751666 200.505632,66.2000309 C203.377552,65.6778806 205.90392,65.1989157 209.325431,64.7722967 C211.595104,66.8164038 214.751144,65.0785201 217.501298,64.9816802 C217.546274,65.0314088 217.619773,65.0837547 217.757993,65.1439525 C217.789806,65.0811374 217.834783,65.0314088 217.875371,64.9777543 C218.46994,64.9921494 219.042569,65.090298 219.5779,65.3428669 L220.421485,64.3195047 L220.428067,64.3195047 C221.857445,65.4527933 223.810087,64.8324944 225.836227,64.886149 C225.838421,64.9136306 225.850488,64.9345689 225.849391,64.9646678 C226.282702,65.023557 226.732468,65.045804 227.184428,65.0523472 C227.624321,65.1544217 228.063117,65.3062248 228.496428,65.5457073 C229.201793,65.0955326 229.572575,64.9541987 229.737124,64.9175565 C229.70202,64.9031614 229.661431,64.8769885 229.620843,64.837729 C230.205538,64.73042 230.759518,64.5877774 231.27291,64.4032581 C231.565806,64.522345 231.755585,64.7435064 231.712803,65.2080762 L231.504375,65.3415583 C231.383706,66.644971 234.001124,64.7330372 234.919304,65.8610913 L234.415786,64.4660732 L235.974609,64.7016297 L235.557753,64.9699024 C235.905498,64.8102474 236.237886,64.6833086 236.56808,64.5616044 C238.022689,64.7657534 239.378569,65.0719769 239.761418,64.6636789 C240.301137,64.3770852 240.962622,64.1153557 241.663599,63.8601695 C244.906301,64.1048865 247.638903,65.2970643 251.744936,63.4701926 C250.902448,64.9921494 252.998796,62.670609 253.08107,64.3338998 C254.394167,66.0482278 255.548201,64.6545184 256.645191,63.7855766 C257.074114,63.7672555 257.511813,63.7567863 257.94293,63.7515517 C258.02301,63.7816506 258.097605,63.8143668 258.159037,63.8549349 C258.143679,63.8182928 258.149164,63.7829593 258.173298,63.7489344 C258.387211,63.7476258 258.597833,63.7489344 258.801873,63.7502431 C258.805164,63.6717242 258.726181,63.6154524 258.617579,63.5683411 L258.591251,63.5212298 C258.591251,63.5212298 258.563826,63.5303903 258.540789,63.5382422 C258.525431,63.5330076 258.508977,63.527773 258.492522,63.5225385 C258.285191,63.3406365 258.078957,63.2555744 257.871625,63.2398706 C257.872722,63.1927593 257.911117,63.1391048 258.02301,63.0684378 L259.694823,63.212389 C259.616936,63.2869819 259.578542,63.372044 259.596094,63.4701926 C259.256027,64.0158985 259.399732,63.9072808 259.664107,63.6272302 C260.030502,63.5631065 260.429806,63.4924396 260.841177,63.4191553 C266.736401,64.7107902 274.223358,63.260809 280.898542,63.9596267 L280.594676,63.4178467 C282.353151,63.5212298 284.541645,62.8642888 285.876682,63.7293047 C287.212816,64.5917033 288.795773,62.355225 289.314649,62.2688543 C290.776936,61.3370974 292.108682,63.190142 291.480107,63.0946108 C292.405967,62.941499 293.30111,62.2151997 294.325699,61.8108277 C294.553873,61.8749514 294.78095,61.9390752 295.009124,62.0241372 C295.554328,62.8328813 299.504589,62.7582884 302.611264,62.4415957 L302.582742,62.6405101 C302.605779,62.5646086 302.613458,62.5044108 302.627719,62.4402871 C303.164147,62.3840153 303.666569,62.3212002 304.130595,62.2544592 C306.396977,62.5161886 308.619478,61.0583555 311.095385,62.1183598 C311.095385,62.1183598 311.037244,62.266237 310.936321,62.4010277 L313.598716,59.7366217 C313.599813,59.7366217 313.60091,59.7366217 313.60091,59.735313 L313.431973,60.0781786 C313.878448,60.4445999 314.130756,56.889005 319.072696,61.2324056 L319.072696,61.3907519 C319.243826,61.3632703 319.242729,61.0478863 319.58499,61.4679621 L318.730435,60.4982544 C319.242729,60.1017343 319.690301,59.3440275 320.371532,59.2367184 C320.517431,59.4133858 320.565699,59.7379303 320.581057,59.9918079 L322.253967,59.7261525 L322.766261,60.7495147 C323.277458,60.1946482 323.044896,58.0353801 324.412843,59.238027 C323.897258,57.7409345 325.09188,58.3402949 324.922943,57.5773535 C324.992054,57.7631815 325.148923,58.0393061 325.275077,58.2958009 C326.087946,58.1217508 327.620441,57.7029837 328,56.933499 C328,56.933499 327.099371,56.0410015 326.128535,54.9666021 C326.72091,54.7847001 327.212361,54.5713906 327.451505,54.3162043 L327.451505,54.3162043 Z" id="Fill-29" transform="translate(164.000000, 45.500000) rotate(-180.000000) translate(-164.000000, -45.500000) "></path>
                        </g>
                    </g>
                </g>
            </g>
        </g>
    </g>
</svg>