<?xml version="1.0" encoding="UTF-8"?>
<svg width="108px" height="5px" viewBox="0 0 108 5" version="1.1" xmlns="http://www.w3.org/2000/svg" xmlns:xlink="http://www.w3.org/1999/xlink">
    <!-- Generator: sketchtool 64 (101010) - https://sketch.com -->
    <title>0821D26F-D182-4E4B-A5D9-95C9FB5D50D5</title>
    <desc>Created with sketchtool.</desc>
    <g id="Page-1" stroke="none" stroke-width="1" fill="none" fill-rule="evenodd">
        <g id="HOME" transform="translate(-145.000000, -2490.000000)" fill="#000000">
            <g id="Group-14" transform="translate(0.000000, 2020.000000)">
                <g id="Group-8" transform="translate(145.000000, 443.000000)">
                    <path d="M70.0056034,27.0124179 C70.418251,26.9214804 70.5617479,27.3671054 71.0382278,27.1502304 C71.1000496,27.0239804 70.6190461,27.1074179 70.7047421,27.0830429 C71.3568863,26.9508554 71.5913566,27.2899179 72.1703702,27.4483554 C72.2030402,27.3852304 72.1960036,27.2517929 72.3985578,27.1402304 C72.3349769,27.2667929 72.4847564,27.3314804 72.2570714,27.4239804 C72.4505786,27.4774179 72.6797714,27.3846054 72.8506608,27.3352304 C72.4475629,27.2614804 73.0152676,27.1539804 73.0894034,27.0780429 C73.2982403,27.0996054 73.0260738,27.2042929 72.8974041,27.2408554 C73.0650265,27.2746054 73.2640624,27.4608554 73.3593082,27.2714804 L73.358,27.273 L73.3474761,27.3136729 C73.2808654,27.4314879 72.9475546,27.5860229 72.6779675,27.6406379 L72.5805048,27.6561679 L72.7898443,27.6777304 C72.6453422,27.7455429 72.6187036,27.7264804 72.4108719,27.7055429 C72.6141801,27.8086679 72.5940754,27.9224179 72.5468295,28.0174179 C72.5199396,27.9977304 72.5614054,27.9858554 72.5360233,27.9667929 C72.3689035,27.9330429 72.2402338,27.9692929 72.2791865,28.0402304 C72.1286531,28.2186679 72.5111438,28.1517929 72.6244837,28.2408554 C72.7101797,28.2292929 72.796127,28.2171054 72.8800639,28.2052304 L72.8800639,28.2052304 L73.7495894,27.6311679 C74.1210226,27.5642929 74.2881424,27.7017929 74.5668429,27.7883554 L74.5668429,27.7883554 L74.6434919,27.6349179 C74.9666739,27.6505429 75.2717618,27.6992929 75.0644327,27.8936679 C75.0531239,27.8424179 75.0104015,27.8546054 74.9400353,27.8471054 C74.9307369,27.8680429 74.9146532,27.8827304 74.8942972,27.8949179 C74.8872606,27.9039804 74.8837423,27.9127304 74.8779622,27.9214804 C75.2242646,27.8721054 75.4406407,27.8399179 75.4604941,27.8339804 C74.8726847,28.0567929 75.4308397,28.1127304 75.3325783,28.3849179 L75.3325783,28.3849179 L75.9261677,28.2961679 C75.566546,28.2099179 75.9196337,28.1630429 76.0475495,28.1261679 C76.0824813,28.2792929 76.5255372,28.1249179 76.7336202,28.1464804 L76.7336202,28.1464804 L76.7182904,28.1777304 C76.9110436,28.2308554 77.2490529,28.2158554 77.4895546,28.1742929 C77.478497,28.1230429 77.7868519,27.8730429 77.9348723,27.7221054 C77.5227272,27.6646054 77.7672499,27.6033554 77.7340772,27.5083554 C77.7767996,27.5171054 77.8536998,27.5189804 77.8624956,27.4992929 C77.9218043,27.4558554 77.7825797,27.4414804 77.7707682,27.3905429 C77.3324871,27.4621054 76.8813893,27.4821054 76.702458,27.6958554 C76.8371591,27.7924179 76.9319022,27.6033554 77.082687,27.6680429 C76.8653056,27.8117929 76.5850972,27.7833554 76.220952,27.7792929 L76.220952,27.7792929 L76.1013294,27.6511679 L75.7349224,27.7205429 C75.8879689,27.6527304 75.7959902,27.5189804 76.1804914,27.4930429 C76.1314863,27.3724179 75.7990059,27.5205429 75.5635303,27.4799179 L75.5635303,27.4799179 L75.4431538,27.6502304 C75.4896458,27.5555429 74.985522,27.5371054 75.3436359,27.4077304 L75.3436359,27.4077304 L75.9261677,27.2686679 L75.7643254,27.1524179 L76.256889,27.1196054 L76.1407847,27.2077304 C76.9319022,27.0899179 76.3737472,27.5464804 77.1703935,27.3455429 C77.4199423,27.1392929 77.6878366,27.1171054 78.1758766,27.1674179 C77.8227889,27.2133554 78.1396883,27.3124179 78.0067464,27.4317929 C78.367122,27.5177304 78.488755,27.3480429 78.6757282,27.2677304 C78.7674556,27.3764804 78.8327957,27.4655429 78.5108702,27.4496054 C78.4704096,27.6777304 78.9343241,27.4102304 78.9637271,27.6449179 C80.0297755,27.6380429 79.8179229,26.8867929 81.0644104,27.1802304 L81.0644104,27.1802304 L81.0176671,27.2746054 C81.8090359,27.1567929 82.2659138,27.2699179 82.9989791,27.1955429 L82.9989791,27.1955429 L83.5759822,27.4361679 C83.4468099,27.4730429 83.0997536,27.6530429 83.2618472,27.7689804 L83.26,27.767 L83.140453,27.6831722 C82.9365492,27.5683854 82.7250256,27.5815141 82.510095,27.5242847 L82.3807615,27.4799179 C82.3501019,27.5433554 82.4729915,27.5889804 82.5267714,27.6280429 C82.3440705,27.6258554 82.2525944,27.5167929 82.0115901,27.5589804 C82.0231503,27.6089804 82.2862697,27.6696054 82.0879877,27.6992929 L82.0879877,27.6992929 L81.7600308,27.5492929 C81.3212471,27.6208554 81.543906,27.9080429 81.0284733,27.8392929 C81.124473,27.7055429 81.3199906,27.5121054 81.5195291,27.4799179 C81.2840535,27.4511679 81.8334128,27.3992929 81.6187958,27.3192929 C81.2792787,27.5174179 81.1156772,27.3605429 80.6645794,27.4846054 C80.7176054,27.4567929 80.7314273,27.4180429 80.8425055,27.4058554 L80.8425055,27.4058554 L80.1878482,27.3224179 C80.3499418,27.4380429 79.6472848,27.4496054 79.7081013,27.6217929 C80.4057322,27.6930429 80.2009162,27.5889804 80.995552,27.6867929 C80.7706314,27.7258554 80.4803707,27.9008554 80.3444131,28.0621054 C80.3376278,28.0552304 80.3260676,28.0499179 80.3016907,28.0467929 C80.180309,28.2171054 80.3039525,28.2630429 80.3016907,28.5605429 C80.6645794,28.3489804 80.9068403,28.5230429 81.3350691,28.4011679 C81.4154876,28.2380429 81.0865255,28.1933554 80.8741703,28.2355429 L80.8741703,28.2355429 L81.2511322,28.1274179 L81.1769964,28.2024179 L82.1337258,28.2571054 C81.9525327,28.2658554 81.8909623,28.3605429 81.7964705,28.4317929 C81.9198627,28.4380429 82.0419984,28.4811679 82.1721759,28.5283554 C82.1447833,28.3727304 82.1621236,28.2630429 82.2822488,28.2658554 C82.8979533,28.3027304 83.2404861,28.4427304 83.4676685,28.6205429 C83.4912914,28.6167929 83.5179301,28.6130429 83.5392912,28.6092929 C83.4360037,28.4499179 83.9765671,28.3227304 84.1673098,28.1596054 C84.1580114,28.3246054 84.4847118,28.2586679 84.6621352,28.3427304 C84.6920409,28.2830429 84.6975696,28.2155429 84.6875173,28.1471054 C85.314782,28.2108554 85.9314918,28.2242929 86.520055,28.2174179 C86.6939601,27.8708554 86.9000327,27.6764804 86.9887444,27.3542929 C87.3838005,27.2949179 87.9205943,27.2505429 88.2636297,27.3683554 L88.2636297,27.3683554 L88.2322162,27.4317929 C88.3998386,27.4649179 88.5541417,27.4474179 88.6828114,27.4108554 C88.8597322,27.4955429 88.5614296,27.5811679 88.6850731,27.6267929 L88.6850731,27.6267929 L89.25127,27.5189804 C89.2163382,27.6646054 88.739607,27.6652304 88.5136811,27.6755429 C88.5564034,27.6633554 88.6426021,27.6392929 88.6147069,27.6196054 C88.3518388,27.5596054 87.8612856,27.8080429 87.7464379,27.5967929 C87.6182708,27.6336679 88.0067929,27.4414804 87.5727841,27.4302304 C87.2822721,27.3508554 87.187529,27.5402304 87.157372,27.6033554 C87.1523458,27.6861679 87.6132447,27.7167929 87.4534128,27.8161679 C87.67959,27.8055429 87.7698095,27.6992929 88.0588137,27.7789804 C87.8348983,27.7889804 87.530313,27.9564804 87.4106904,27.8280429 C86.9676345,27.9821054 87.0312154,28.3696054 87.2403036,28.3911679 C87.1902934,28.2696054 88.0487614,28.2414804 87.467486,28.0830429 C87.728595,27.9267929 88.2055775,27.9255429 88.5473564,27.8280429 L88.5473564,27.8280429 L88.5317753,27.8592929 L88.9559831,27.8205429 C88.8961718,27.8636679 88.7680048,27.9005429 88.7637325,27.9827304 L88.7637325,27.9827304 L89.3510392,27.7614804 C89.0205693,27.9102304 89.5558552,27.8646054 89.70664,27.9302304 C89.769467,27.8039804 89.9989112,27.7111679 89.7787654,27.6392929 C89.531227,27.5474179 89.6347659,27.7074179 89.409594,27.7171054 L89.409594,27.7171054 L89.7282525,27.5177304 L89.7556451,27.5374179 L89.947393,27.3742929 C90.3816532,27.3858554 89.7576555,27.7530429 90.3140514,27.5936679 L90.3140514,27.5936679 L90.2416747,27.3717929 C90.885777,27.4042929 91.7125802,27.6542929 92.1674476,27.5517929 C92.0417936,27.6783554 91.9865059,27.8814804 92.1591544,28.0017929 C91.9631342,27.9636679 91.5685807,27.9714804 91.2873671,27.9924179 C91.2330846,27.9533554 91.638947,27.7299179 91.9445374,27.7777304 C91.796517,27.4139804 91.1757864,27.9974179 91.139598,27.6286679 C90.3610459,27.4999179 90.5588253,27.9839804 89.8976341,27.7674179 C89.888587,27.9321054 89.709907,27.8477304 89.6749752,27.9930429 C89.8704928,28.2617929 90.5588253,27.9839804 90.987808,28.0777304 C90.9458396,28.0899179 90.8611488,28.1146054 90.8445625,28.1455429 C91.1514095,28.1939804 91.2780687,28.1574179 91.4924344,28.0961679 L91.4924344,28.0961679 L91.4652931,28.0767929 C91.8394907,27.9158554 91.6969991,28.1996054 91.9171449,28.2721054 C92.0025896,28.2477304 92.308934,28.2952304 92.2594263,28.1742929 L92.2594263,28.1742929 L92.6585034,28.3308554 L92.639404,28.1471054 C92.8645759,28.1361679 92.9138323,28.2577304 93.1173917,28.1455429 L93.1173917,28.1455429 L93.1269414,27.9811679 L92.5682838,27.9239804 C92.8515079,27.8702304 92.6469432,27.7661679 92.9585651,27.7317929 C92.6107549,27.9117929 93.2043443,27.8230429 93.2385222,27.9758554 L93.2385222,27.9758554 L93.4674637,27.8830429 L93.4091603,27.9271054 C93.5885941,28.0117929 93.622772,27.8658554 93.8323629,27.8874179 C93.5853271,27.7955429 93.4232335,27.6799179 93.1080933,27.7967929 L93.111,27.795 L93.2036016,27.761846 C93.4113283,27.6918521 93.7059741,27.6237698 93.8474026,27.6028189 L93.904237,27.5964804 C94.14499,27.5274179 94.313115,27.6527304 94.5387896,27.6714804 C94.1060372,27.7374179 94.690077,28.1705429 93.8233158,28.0521054 C93.8393995,28.0205429 93.9097657,28.0277304 93.9366557,28.0471054 C93.8213053,27.8367929 93.4172021,28.0602304 93.2294751,28.1405429 C93.2777262,28.2617929 93.0812034,28.2917929 93.4144377,28.3586679 C93.3048675,28.2811679 93.6948974,28.0886679 94.0120481,28.1880429 L94.0120481,28.1880429 L93.9560064,28.4471054 L94.4176591,28.4777304 L94.3744342,28.4899179 C94.548088,28.6567929 94.8667465,28.4577304 95.184651,28.5558554 C95.4140952,28.4633554 96.294427,28.5367929 95.9157059,28.2658554 C96.2009404,28.4280429 96.4512432,28.2214804 96.7623624,28.1864804 L96.7623624,28.1864804 L96.3743429,28.0808554 C96.8332313,27.8952304 96.7010433,28.0152304 97.0682042,27.7202304 C97.1053978,27.7911679 97.1870729,27.8492929 97.1124344,27.9239804 C97.7286416,27.9374179 98.6087221,28.0108554 98.9701029,27.7986679 C99.4046144,27.8099179 99.4727188,28.1149179 100.082141,27.9955429 C100.210559,27.9586679 99.9823714,27.7530429 100.385721,27.8277304 C100.412862,27.8467929 99.9971986,28.0196054 100.446537,27.9992929 C100.766704,27.7999179 101.198451,28.1092929 101.614617,27.9364804 C101.834511,28.0083554 102.215745,27.9811679 102.136332,28.1389804 C101.788019,28.1030429 101.295204,28.1358554 101.220566,28.2114804 C101.268566,28.1164804 100.972776,28.1192929 101.229362,28.0461679 C100.703123,27.9267929 100.887583,28.1439804 100.415375,28.0624179 C100.383208,28.1255429 100.658139,28.2367929 100.759667,28.1805429 C100.761677,28.3958554 99.8283196,28.2846054 100.248255,28.5430429 C100.75263,28.5614804 100.902661,28.1124179 101.339937,28.3389804 C101.164524,28.4702304 100.890347,28.3592929 100.667688,28.5855429 L100.667688,28.5855429 L101.027059,28.6721054 L101.287916,28.5164804 L101.272335,28.5480429 C101.906888,28.7455429 101.859391,28.3261679 102.427095,28.2183554 C102.098384,28.0689804 102.503242,27.8449179 102.255955,27.7530429 C102.63543,27.7258554 102.914381,27.7542929 102.916895,27.9699179 C102.206447,28.1455429 102.876434,28.1980429 102.219766,28.4127304 C102.327577,28.4899179 102.063453,28.7280429 102.45499,28.7517929 C102.896036,28.5980429 102.322802,28.5724179 102.762591,28.5011679 C102.788727,28.5202304 102.815617,28.5399179 102.800288,28.5714804 C103.002339,28.4596054 103.036266,28.6117929 103.28104,28.4880429 L103.28104,28.4880429 L103.222988,28.5311679 C103.524808,28.6621054 103.553206,28.3830429 103.813059,28.5255429 C103.709017,28.3655429 103.987215,28.3942929 104.148555,28.2946054 C103.885184,28.2339804 103.742692,28.0046054 103.222988,28.0174179 C103.160161,28.1439804 103.198359,28.2139804 102.984748,28.2752304 L102.984748,28.2752304 L103.322757,28.2599179 C103.249878,28.2805429 103.194339,28.3130429 103.127239,28.3383554 L103.127239,28.3383554 L102.802801,28.2730429 C103.214192,28.1827304 103.025711,28.0474179 103.20037,27.9158554 C103.576829,27.9711679 103.510987,27.8811679 103.747719,27.9224179 C103.723844,28.1080429 104.473496,28.2392929 104.906751,28.3586679 C104.8394,28.3514804 104.752448,28.3561679 104.705705,28.3514804 C104.390816,28.4686679 104.922332,28.5061679 104.933892,28.5571054 L104.933892,28.5571054 L105.141473,28.4730429 C105.105033,28.4911679 105.076384,28.5246054 105.158059,28.5464804 C105.468927,28.5121054 105.450833,28.3280429 105.760947,28.2933554 C105.784067,28.3955429 105.521953,28.5505429 105.714706,28.6042929 C105.781303,28.6933554 105.992904,28.9305429 106.404798,28.8402304 C106.434201,28.8011679 106.540755,28.7789804 106.66465,28.7624179 C106.64731,28.7677304 106.625697,28.7721054 106.618158,28.7789804 L106.618158,28.7789804 L106.891833,28.8905429 C106.658619,29.0649179 106.420128,28.8083554 106.185909,28.9833554 L106.185909,28.9833554 L106.165804,29.1489804 C105.983857,29.1496054 105.735816,29.2211679 105.621973,29.3071054 C105.900171,29.3352304 105.958726,29.2917929 106.269343,29.2574179 C106.31307,29.3621054 106.094181,29.4399179 106.062516,29.4511679 L106.062516,29.4511679 L106.109008,29.3567929 C105.738329,29.2196054 105.554623,29.5155429 105.093221,29.4849179 C105.023358,29.4780429 105.065829,29.4658554 105.08141,29.4342929 C104.707715,29.5949179 104.341308,29.3749179 103.978168,29.5867929 L103.978168,29.5867929 L104.096534,29.4992929 C103.848996,29.5699179 103.365982,29.7330429 102.882717,29.8905429 L102.882717,29.8905429 L102.878696,29.9552304 C102.932476,29.9939804 102.751031,29.9917929 102.653775,29.9655429 L102.653775,29.9655429 C102.412017,30.0433554 102.179306,30.1158554 101.988814,30.1702304 C102.049631,30.2099179 102.127536,30.2433554 102.217002,30.2527304 C102.292646,30.1767929 102.736707,30.2389804 102.67589,30.0671054 C102.880957,30.1708554 103.211427,30.0221054 103.361961,30.0871054 C103.087533,29.9764804 103.553206,29.9249179 103.601206,29.8299179 C103.693436,29.9386679 104.007822,29.8217929 103.972137,29.9677304 C104.026419,30.0058554 103.837436,29.8708554 103.720577,29.9583554 C103.433081,30.0942929 104.246816,30.0780429 103.888702,30.2074179 C104.344072,30.1049179 104.944447,30.1492929 105.414142,30.0149179 L105.414142,30.0149179 L105.151274,29.9552304 C105.359859,29.9764804 105.854182,29.9439804 105.891124,30.0146054 C105.735816,30.0314804 105.554623,30.0299179 105.356341,30.0592929 C105.34654,30.2236679 105.833072,30.0580429 105.855187,30.1599179 L105.855187,30.1599179 L106.431939,29.8871054 L106.179375,29.8780429 C106.338452,29.7777304 106.866199,29.8986679 107.257737,29.9217929 C107.033068,30.1474179 106.667163,29.9277304 106.255772,30.0180429 C105.956464,30.1036679 106.440232,30.2358554 106.157259,30.2899179 C106.230641,30.3424179 106.415353,30.3361679 106.506577,30.2792929 L106.506577,30.2792929 L106.618158,30.3205429 C106.365594,30.5252304 105.799397,30.4796054 105.422435,30.6561679 C105.455608,30.6339804 105.484508,30.6108554 105.494812,30.5871054 C105.204802,30.5077304 104.910018,30.5108554 104.627297,30.5652304 C104.776825,30.6299179 104.835882,30.5858554 104.921578,30.5621054 C104.932133,30.6127304 104.665244,30.6346054 104.564218,30.6908554 C104.827338,30.7505429 104.613223,30.8117929 104.77984,30.8455429 C104.608197,30.8942929 104.469475,30.8802304 104.260638,30.8586679 C104.152576,30.7811679 104.350355,30.7517929 104.32824,30.6505429 C104.112869,30.7114804 104.014859,30.4686679 103.69997,30.5858554 C104.118649,30.6286679 103.589646,30.8067929 103.445395,30.8749179 L103.445395,30.8749179 L103.51551,30.8821054 C103.382819,31.0011679 103.270234,31.0061679 103.178506,30.8971054 C103.349647,30.8483554 103.51551,30.8821054 103.466756,30.7611679 C103.353668,30.7661679 103.24083,30.7711679 103.112663,30.8080429 L103.112663,30.8080429 L103.22927,30.7205429 L102.66634,30.7458554 C102.577377,30.8527304 102.428603,31.0033554 102.350949,31.1608554 C102.215745,31.0639804 102.027767,31.1446054 101.899851,31.1817929 L101.899851,31.1817929 L101.959411,31.1374179 C101.71137,31.0461679 101.158995,31.1224179 101.112755,31.2167929 C100.935331,31.1327304 102.365776,30.6155429 101.112755,30.7030429 C100.636023,30.7039804 100.81596,31.0046054 100.543793,31.1089804 C100.543793,31.1089804 100.559374,31.0780429 100.532233,31.0583554 C100.323899,31.0364804 100.302789,31.1508554 100.131648,31.1996054 C100.256548,31.2455429 100.43749,31.2474179 100.496045,31.2036679 C100.433218,31.3299179 100.061785,31.1927304 99.9019529,31.2921054 C100.109533,31.0977304 99.4991062,31.2180429 99.6601946,31.1180429 C99.2452851,30.9930429 98.8019779,31.1467929 98.5840939,31.2902304 C98.3028803,31.0461679 98.0907763,31.3227304 97.6341498,31.2096054 C97.7042647,31.2167929 97.8316778,31.1802304 97.9299392,31.2064804 C98.1902943,31.0517929 97.4567264,31.1252304 97.8575626,30.9839804 L97.855,30.984 L97.830488,30.9960385 C97.80069,31.0184784 97.8437201,31.0498012 97.902521,31.0475281 L97.9392376,31.0417929 C98.0927868,31.0242929 98.2375402,30.9564804 98.1990901,30.8858554 L98.1990901,30.8858554 L97.826903,30.7489804 L97.9565779,30.7114804 L97.3918889,30.5221054 C97.3768104,30.5530429 97.4298364,30.5917929 97.4567264,30.6111679 C96.8018178,30.5280429 96.0526687,30.6333554 95.4789327,30.6080429 C95.3711215,31.0449179 94.0663306,30.7952304 93.6024161,31.0633554 C93.7265622,30.9380429 93.7946667,30.7171054 93.7177664,30.6261679 C93.8213053,30.6080429 94.0329066,30.4314804 94.267377,30.4680429 C94.3048218,30.5383554 94.5943286,30.6177304 94.4081094,30.6980429 C95.0562327,30.6480429 94.3204029,30.5064804 94.5116483,30.3439804 C93.7936614,30.3864804 93.372218,30.6421054 92.9191097,30.7449179 L92.9191097,30.7449179 L92.9075496,30.6933554 L92.5652681,30.7908554 C92.8449739,30.8199179 92.8311519,31.0674179 92.4707763,30.9808554 L92.4707763,30.9808554 L92.5145039,30.9686679 C92.308934,30.8646054 91.8809565,30.9867929 91.5600363,30.9708554 L91.5600363,30.9708554 L91.3421522,31.1139804 C91.0204781,31.0977304 91.0066561,30.8311679 90.902112,30.6717929 C90.3977369,30.6530429 90.1067223,30.8714804 89.7486084,31.0011679 C89.5867661,30.8849179 88.8315857,30.8574179 89.2314166,30.7164804 C88.7768005,30.8189804 88.8685279,31.4414804 88.088468,31.0964804 L88.088468,31.0964804 L88.2907709,30.9842929 C87.5451402,31.0077304 86.4816049,31.2308554 86.1380669,31.1127304 C86.4132491,30.7102304 85.2064683,30.7030429 85.074029,30.3080429 C85.1107199,30.3983554 84.8307629,30.4283554 84.7897997,30.4767929 C84.7284805,30.4302304 84.6261982,30.3855429 84.5178844,30.4667929 C84.8086478,30.5461679 84.3133198,30.8767929 84.869213,30.7174179 C84.5879994,30.9880429 84.225362,31.1996054 83.6089035,31.1861679 L83.6089035,31.1861679 L83.6184532,31.0214804 L84.1059907,31.0714804 C84.0567343,30.9499179 84.307791,30.9589804 84.4105759,30.9030429 C83.5036055,30.8102304 84.5294446,30.5174179 83.6018669,30.5389804 C83.5124013,30.6455429 83.5702021,30.6014804 83.3291978,30.6439804 C83.4425377,30.6383554 83.4628936,30.5249179 83.280444,30.5227304 L83.280444,30.5227304 L83.1050311,30.6539804 C82.7810951,30.3796054 83.6408196,30.4755429 83.3646322,30.2824179 C83.7229974,30.1530429 84.3429741,30.0839804 84.2273724,29.8736679 C83.6425788,29.7974179 83.7013849,30.2674179 83.0899526,30.1717929 L83.0899526,30.1717929 L83.0248638,30.0824179 C82.8097442,30.1433554 82.7750637,30.2883554 82.6572003,30.3758554 C82.646394,30.3249179 82.5921115,30.2867929 82.4538921,30.2721054 C82.0905008,30.4839804 81.8494965,30.5252304 81.514503,30.7564804 C82.4061436,30.5830429 82.2769713,30.9174179 83.1972611,30.7630429 C83.0530103,30.8311679 82.4048871,30.8814804 82.3651804,31.1089804 L82.365,31.107 L82.3737249,30.9439804 C82.1245112,31.0153345 81.8752974,31.0860377 81.5815812,31.0763371 L81.3996552,31.0602304 L81.6290994,30.9674179 C81.131007,31.0821054 80.8010396,30.7171054 80.407994,30.9914804 C80.477355,30.9988241 80.540182,31.001246 80.5964121,30.9987069 L80.673,30.991 L80.5843539,31.0100604 C80.4173808,31.0344129 80.2347744,31.0320354 80.0599304,31.0199379 L79.8885404,31.0052304 L79.3117886,31.2774179 C79.3168148,31.1955429 78.951413,31.1905429 79.1275799,31.0602304 C78.7126704,30.9346054 78.5169015,31.1802304 78.2771537,31.2211679 C77.8519407,31.0461679 78.6453199,31.1430429 78.6867857,30.9155429 C78.1012382,30.8389804 77.4805075,30.9080429 77.1500375,31.0564804 C77.2694088,31.0896054 77.3274609,31.1180429 77.3214296,31.1580429 C77.303838,31.1061679 77.0676085,31.1196054 76.9361744,31.1180429 L76.9361744,31.1180429 L76.8457036,31.2252304 C76.626563,31.1527304 76.6574739,31.0896054 76.8439444,31.0089804 C76.6346049,30.9880429 76.3845535,31.1939804 76.1689312,31.0396054 C76.5265425,30.9105429 76.9824151,31.0230429 77.1686343,30.9427304 C76.4212444,31.0483554 76.4164696,30.6167929 75.4690385,30.7524179 C75.4574784,30.7011679 75.6180642,30.6014804 75.4353633,30.6002304 C75.012412,30.6396054 75.3250391,30.8208554 75.1928511,30.9399179 C75.5182949,30.8733554 75.6698336,30.9386679 75.8588172,31.0736679 L75.8588172,31.0736679 L75.7718646,31.1608554 C75.7587966,31.1158554 75.5544832,31.1130429 75.493918,31.0696054 L75.493918,31.0696054 L75.4413947,31.2467929 C75.4657715,31.0505429 75.1385686,30.9011679 74.8814805,30.9746054 C75.141333,31.1167929 75.071218,31.1092929 75.1418356,31.3327304 C74.7804547,31.5442929 74.7339627,31.1249179 74.3288543,31.3489804 C74.3592626,31.2858554 74.7128529,31.2389804 74.4072624,31.1905429 C74.153944,31.1821054 74.1878705,31.3349179 74.0179863,31.3836679 C74.2092317,31.2202304 74.1602267,31.0989804 74.3673044,30.9052304 C74.8168944,30.8846054 74.5487488,30.9074179 74.9882864,30.8361679 L74.9882864,30.8361679 L74.6160993,30.6980429 C74.9970822,30.6714804 74.893292,30.5111679 74.9247055,30.4486679 C74.2740692,30.2824179 74.4344036,30.6967929 74.0159759,30.6536679 C73.8141756,30.7658554 74.407765,30.6774179 74.0921222,30.7946054 C73.701087,30.7708554 74.0029079,30.9011679 73.5638729,30.9721054 L73.5638729,30.9721054 L73.6372548,30.8971054 C73.5030563,30.8002304 73.3701144,30.9196054 73.2148061,30.9361679 C73.0439167,30.9855429 73.4083132,31.5036679 72.7061588,31.5149179 L72.7061588,31.5149179 L72.6119183,31.7036679 C71.808738,31.7711679 71.5184773,31.6917929 70.8163229,31.7030429 C70.7627943,31.6642929 70.8479877,31.6399179 70.8912126,31.6274179 C70.3976438,31.6602304 69.659301,31.6008554 69.2999306,31.7305429 C69.1428631,31.7283554 68.7304668,31.6386679 68.8862777,31.5555429 C68.8101314,31.5805429 68.7226762,31.6049179 68.6347184,31.5958554 C68.6115981,31.4942929 68.8314926,31.5667929 68.8365187,31.4836679 C68.7847493,31.4786679 68.7566028,31.4664804 68.7390112,31.4736679 C68.8174193,31.3752304 68.6309488,31.1452304 69.1488945,31.1514804 C69.3604958,31.3883554 68.7696708,31.1789804 68.8945709,31.4405429 C69.0757639,31.4421054 69.0549053,31.3408554 69.0704864,31.3089804 C69.3014385,31.3149179 69.2954071,31.3805429 69.283093,31.4405429 C69.3715534,31.3589804 69.6623167,31.4721054 69.7847037,31.3489804 C70.2340423,31.3286679 69.7600755,31.5455429 70.0536032,31.5424179 L70.0536032,31.5424179 L70.2229848,31.2774179 L70.7107735,31.3274179 C71.4174515,31.2342929 70.609999,30.8696054 71.4174515,30.7199179 C71.3113996,30.8580429 71.6350842,31.0902304 72.0110409,31.1455429 C71.7861203,31.1552304 71.3704569,31.3280429 71.0801962,31.2492929 C71.4893256,31.4567929 70.5170151,31.2742929 70.729119,31.5117929 C70.9314219,31.3992929 71.2686772,31.3842929 71.5317966,31.4449179 L71.5317966,31.4449179 L71.445598,31.4692929 C71.7250525,31.4974179 71.9369051,31.2202304 72.3229141,31.3261679 C72.5146621,31.3174179 72.4787251,31.3924179 72.4450498,31.4542929 C72.6071434,31.4146054 72.7523994,31.3627304 72.752902,31.4214804 L72.752902,31.4214804 L73.4382189,30.0492929 C72.7265147,30.0527304 71.9059942,30.0146054 71.0817041,29.9227304 C70.887443,29.6542929 71.6702673,29.7014804 71.6195031,29.5805429 L71.6195031,29.5805429 L71.9957111,29.6355429 C71.9746013,29.7492929 71.2078607,29.6705429 71.5473777,29.8717929 C72.2113334,29.7899179 72.5126516,29.9205429 73.1424294,29.6861679 C72.9469118,29.4174179 72.3128618,29.7339804 71.9029785,29.5261679 C72.0753758,29.5436679 72.2203805,29.5142929 72.3616155,29.4755429 C71.9766117,29.4414804 71.5649693,29.4039804 71.1269395,29.3627304 L71.1269395,29.3627304 L71.0289294,29.4277304 C71.323965,29.4577304 71.528027,29.4808554 71.5544144,29.4905429 C71.1631279,29.4671054 70.8334118,29.6158554 70.8072758,29.8124179 L70.8072758,29.8124179 L70.8766368,29.8196054 L70.7354017,29.8808554 C70.6436743,29.8683554 70.5516956,29.8561679 70.4604708,29.8430429 C70.4272981,29.8533554 70.3931203,29.8627304 70.3579371,29.8711679 L70.3579371,29.8711679 L70.4114657,29.8355429 C70.3222514,29.8224179 70.2340423,29.8092929 70.1453306,29.7949179 C70.1134145,29.8033554 70.078734,29.8114804 70.0360116,29.8161679 C70.0531006,29.8114804 70.0666712,29.7974179 70.0747131,29.7827304 C70.046064,29.7777304 70.0176662,29.7724179 69.9895197,29.7671054 C69.7779184,29.9055429 69.2511769,30.0067929 69.0988842,30.0880429 C68.8978379,30.1474179 68.6518074,30.1808554 68.4975043,30.1702304 C68.6404985,30.1730429 68.8304873,30.1452304 68.7734404,30.0686679 C68.4829284,29.9889804 68.3416933,29.7592929 67.8403339,29.9564804 L67.8403339,29.9564804 L68.1343643,29.9536679 L67.473173,30.2505429 C67.2419697,30.1274179 67.8033917,30.1024179 67.8951191,29.9955429 C67.380943,30.1417929 66.9534681,29.7505429 66.7149769,30.0080429 C66.6813016,29.8552304 66.6250086,29.6008554 66.2877533,29.6158554 C66.5307681,29.7899179 66.0854504,29.7277304 66.2849889,29.9139804 C66.168382,30.0011679 65.9087809,29.8589804 65.8894302,29.9730429 L65.89,29.971 L65.9208437,29.9099179 C65.5184745,29.7411679 65.3056192,29.874396 65.1296692,30.0125347 L65.0721767,30.0583554 C65.2508567,30.0764804 65.4237565,30.1217929 65.5004055,30.1767929 C65.1209304,30.2042929 64.9796954,30.4880429 64.5185453,30.4577304 C64.6303773,30.1605429 65.1159043,30.3767929 65.0455381,30.0789804 C65.0005539,30.1146054 64.9560724,30.1480429 64.9095804,30.1714804 C64.7824186,30.1827304 64.6713405,30.1874179 64.5655398,30.1899179 C64.5537284,30.1971054 64.5431734,30.2027304 64.5308593,30.2102304 L64.5308593,30.2102304 L64.5361368,30.1905429 C64.2257715,30.1955429 63.9872802,30.1705429 63.7239095,30.1602304 C63.7736684,30.2127304 63.8329771,30.2617929 63.6862133,30.2899179 C63.7595952,30.3424179 63.9443066,30.3361679 64.0355313,30.2792929 L64.0355313,30.2792929 L64.1471121,30.3205429 C63.8945476,30.5252304 63.3283507,30.4796054 62.9513888,30.6561679 C62.9845614,30.6339804 63.0134619,30.6108554 63.0237655,30.5871054 C62.7337561,30.5077304 62.4389718,30.5108554 62.1562504,30.5652304 C62.2459673,30.6040429 62.3031148,30.6037054 62.3529883,30.5920954 L62.450532,30.5621054 C62.4610869,30.6127304 62.1941979,30.6346054 62.0931721,30.6908554 C62.3562915,30.7505429 62.1421771,30.8117929 62.3087943,30.8455429 C62.137151,30.8942929 61.998429,30.8802304 61.7895921,30.8586679 C61.6815296,30.7811679 61.879309,30.7517929 61.8571939,30.6505429 C61.641823,30.7114804 61.5438129,30.4686679 61.228924,30.5858554 C61.6476031,30.6286679 61.1185998,30.8067929 60.974349,30.8749179 L60.974349,30.8749179 L61.0444639,30.8821054 C60.9117733,31.0011679 60.7991874,31.0061679 60.70746,30.8971054 C60.8786007,30.8483554 61.0444639,30.8821054 60.9957102,30.7611679 C60.8826216,30.7661679 60.7697843,30.7711679 60.6416173,30.8080429 L60.6416173,30.8080429 L60.7582242,30.7205429 L60.1952943,30.7458554 C60.1063313,30.8527304 59.957557,31.0033554 59.8799028,31.1608554 C59.7446991,31.0639804 59.5567208,31.1446054 59.428805,31.1817929 L59.428805,31.1817929 L59.488365,31.1374179 C59.2403241,31.0461679 58.6879492,31.1224179 58.6417085,31.2167929 C58.4642851,31.1327304 59.89473,30.6155429 58.6417085,30.7030429 C58.1649773,30.7039804 58.3449138,31.0046054 58.0727473,31.1089804 C58.0727473,31.1089804 58.0883283,31.0780429 58.0611871,31.0583554 C57.8528528,31.0364804 57.8317429,31.1508554 57.6606022,31.1996054 C57.7855022,31.2455429 57.966444,31.2474179 58.0249987,31.2036679 C57.9621717,31.3299179 57.5907386,31.1927304 57.4309067,31.2921054 C57.6384871,31.0977304 57.02806,31.2180429 57.1891484,31.1180429 C56.774239,30.9930429 56.3309317,31.1467929 56.1130477,31.2902304 C55.8318341,31.0461679 55.6197302,31.3227304 55.1633549,31.2096054 C55.2334699,31.2167929 55.3606317,31.1802304 55.4588931,31.2064804 C55.7192482,31.0517929 54.9856802,31.1252304 55.3862651,30.9839804 L55.384,30.984 L55.3592044,30.9960385 C55.3294505,31.0184784 55.3726161,31.0498012 55.431461,31.0475281 L55.4681915,31.0417929 C55.6217407,31.0242929 55.7664941,30.9564804 55.7280439,30.8858554 L55.7280439,30.8858554 L55.3558568,30.7489804 L55.4857831,30.7114804 L54.9208427,30.5221054 C54.905513,30.5530429 54.9585389,30.5917929 54.9856802,30.6111679 C54.3307716,30.5280429 53.5818739,30.6333554 53.0078865,30.6080429 C52.9000754,31.0449179 51.5950331,30.7952304 51.1313699,31.0633554 C51.2557674,30.9380429 51.3236205,30.7171054 51.2467203,30.6261679 C51.3502592,30.6080429 51.5618605,30.4314804 51.7963308,30.4680429 C51.8337757,30.5383554 52.1232825,30.6177304 51.9370633,30.6980429 C52.5851865,30.6480429 51.8493568,30.5064804 52.0406022,30.3439804 C51.322364,30.3864804 50.9014232,30.6421054 50.4480636,30.7449179 L50.4480636,30.7449179 L50.4365034,30.6933554 L50.094222,30.7908554 C50.3739277,30.8199179 50.3601058,31.0674179 49.9997302,30.9808554 L49.9997302,30.9808554 L50.0434578,30.9686679 C49.8378878,30.8646054 49.4099104,30.9867929 49.0889901,30.9708554 L49.0889901,30.9708554 L48.8711061,31.1139804 C48.5494319,31.0977304 48.53561,30.8311679 48.4310659,30.6717929 C47.9269421,30.6530429 47.6356761,30.8714804 47.2775623,31.0011679 C47.11572,30.8849179 46.3602882,30.8574179 46.7603705,30.7164804 C46.3057544,30.8189804 46.3974818,31.4414804 45.6174219,31.0964804 L45.6174219,31.0964804 L45.8199761,30.9842929 C45.0740941,31.0077304 44.0105587,31.2308554 43.6667694,31.1127304 C43.942203,30.7102304 42.7354221,30.7030429 42.6027315,30.3080429 C42.6399251,30.3983554 42.3594654,30.4283554 42.3187535,30.4767929 C42.2574344,30.4302304 42.155152,30.3855429 42.046587,30.4667929 C42.3373503,30.5461679 41.8422736,30.8767929 42.3981668,30.7174179 C42.1167019,30.9880429 41.7543158,31.1996054 41.1378574,31.1861679 L41.1378574,31.1861679 L41.1474071,31.0214804 L41.6349445,31.0714804 C41.5856882,30.9499179 41.8367448,30.9589804 41.9395298,30.9030429 C41.032308,30.8102304 42.0583985,30.5174179 41.1308208,30.5389804 C41.0413551,30.6455429 41.0994073,30.6014804 40.8581516,30.6439804 C40.9714915,30.6383554 40.9918475,30.5249179 40.8093979,30.5227304 L40.8093979,30.5227304 L40.6339849,30.6539804 C40.310049,30.3796054 41.1700248,30.4755429 40.893586,30.2824179 C41.2519512,30.1530429 41.871928,30.0839804 41.7565776,29.8736679 C41.171784,29.7974179 41.2303387,30.2674179 40.6189064,30.1717929 L40.6189064,30.1717929 L40.5538177,30.0824179 C40.3386981,30.1433554 40.3040176,30.2883554 40.1861541,30.3758554 C40.1755992,30.3249179 40.1210654,30.2867929 39.982846,30.2721054 C39.6194547,30.4839804 39.3784503,30.5252304 39.0434568,30.7564804 C39.9350975,30.5830429 39.8059252,30.9174179 40.7262149,30.7630429 C40.5819642,30.8311679 39.9338409,30.8814804 39.8941343,31.1089804 L39.894,31.107 L39.9026787,30.9439804 C39.6532556,31.0153345 39.4041815,31.0860377 39.1105176,31.0763371 L38.9286091,31.0602304 L39.1580532,30.9674179 C38.6599609,31.0821054 38.3299935,30.7171054 37.9369478,30.9914804 C38.0063088,30.9988241 38.0691987,31.001246 38.1254602,30.9987069 L38.202,30.991 L38.1133057,31.0100604 C37.9463266,31.0344129 37.7636961,31.0320354 37.5887556,31.0199379 L37.417243,31.0052304 L36.8407425,31.2774179 C36.8457686,31.1955429 36.4803669,31.1905429 36.6565338,31.0602304 C36.2416243,30.9346054 36.0458554,31.1802304 35.8061076,31.2211679 C35.3808945,31.0461679 36.1742738,31.1430429 36.2159909,30.9155429 C35.630192,30.8389804 35.0094613,30.9080429 34.6789914,31.0564804 C34.7983627,31.0896054 34.8564148,31.1180429 34.8503834,31.1580429 C34.8327918,31.1061679 34.5968137,31.1196054 34.4651283,31.1180429 L34.4651283,31.1180429 L34.3746574,31.2252304 C34.1555169,31.1527304 34.1864278,31.0896054 34.3728983,31.0089804 C34.1633074,30.9880429 33.9137586,31.1939804 33.6978851,31.0396054 C34.0554963,30.9105429 34.511369,31.0230429 34.6975882,30.9427304 C33.9501983,31.0483554 33.9454234,30.6167929 32.9979924,30.7524179 C32.9864322,30.7011679 33.1467667,30.6014804 32.9643171,30.6002304 C32.5413658,30.6396054 32.8537416,30.8208554 32.7218049,30.9399179 C33.0472488,30.8733554 33.1987875,30.9386679 33.387771,31.0736679 L33.387771,31.0736679 L33.3008185,31.1608554 C33.2877505,31.1158554 33.0831858,31.1130429 33.0228719,31.0696054 L33.0228719,31.0696054 L32.9703485,31.2467929 C32.9947254,31.0505429 32.6675224,30.9011679 32.4104344,30.9746054 C32.6702868,31.1167929 32.6001719,31.1092929 32.6707894,31.3327304 C32.3094086,31.5442929 32.2629166,31.1249179 31.8578082,31.3489804 C31.8879651,31.2858554 32.2418067,31.2389804 31.9362162,31.1905429 C31.6831491,31.1821054 31.7168244,31.3349179 31.5471915,31.3836679 C31.7381856,31.2202304 31.6891805,31.0989804 31.8965096,30.9052304 C32.3458482,30.8846054 32.0777026,30.9074179 32.5169889,30.8361679 L32.5169889,30.8361679 L32.1450532,30.6980429 C32.526036,30.6714804 32.4222458,30.5111679 32.453408,30.4486679 C31.803023,30.2824179 31.9633575,30.6967929 31.5449297,30.6536679 C31.3431294,30.7658554 31.9369702,30.6774179 31.621076,30.7946054 C31.2297895,30.7708554 31.5318617,30.9011679 31.0928267,30.9721054 L31.0928267,30.9721054 L31.1662086,30.8971054 C31.0320102,30.8002304 30.8993196,30.9196054 30.7437599,30.9361679 C30.5728705,30.9855429 30.9372671,31.5036679 30.2351126,31.5149179 L30.2351126,31.5149179 L30.1408721,31.7036679 C29.3376919,31.7711679 29.0474312,31.6917929 28.345528,31.7030429 C28.2917481,31.6642929 28.3769415,31.6399179 28.4201665,31.6274179 C27.9265977,31.6602304 27.1880035,31.6008554 26.8286332,31.7305429 C26.6715657,31.7283554 26.2594206,31.6386679 26.4154829,31.5555429 C26.3390852,31.5805429 26.2516301,31.6049179 26.1636723,31.5958554 C26.1405519,31.4942929 26.3604464,31.5667929 26.3654726,31.4836679 C26.3137031,31.4786679 26.2855566,31.4664804 26.2679651,31.4736679 C26.3466245,31.3752304 26.1599027,31.1452304 26.6778484,31.1514804 C26.8894497,31.3883554 26.2986247,31.1789804 26.4235247,31.4405429 C26.6049691,31.4421054 26.5838592,31.3408554 26.599189,31.3089804 C26.8303923,31.3149179 26.8243609,31.3805429 26.8120468,31.4405429 C26.9007585,31.3589804 27.1912705,31.4721054 27.3136575,31.3489804 C27.7629962,31.3286679 27.2890293,31.5455429 27.582557,31.5424179 L27.582557,31.5424179 L27.7519386,31.2774179 L28.2397274,31.3274179 C28.9464054,31.2342929 28.1387016,30.8696054 28.9464054,30.7199179 C28.8401021,30.8580429 29.1640381,31.0902304 29.5399948,31.1455429 C29.3150742,31.1552304 28.8994108,31.3280429 28.6091501,31.2492929 C29.0182795,31.4567929 28.0457176,31.2742929 28.2580729,31.5117929 C28.4603758,31.3992929 28.7976311,31.3842929 29.0607505,31.4449179 L29.0607505,31.4449179 L28.9745519,31.4692929 C29.2540063,31.4974179 29.4658589,31.2202304 29.851868,31.3261679 C30.043616,31.3174179 30.0076789,31.3924179 29.9740036,31.4542929 C30.1363486,31.4146054 30.2813533,31.3627304 30.2818559,31.4214804 L30.2818559,31.4214804 L30.9671727,30.0492929 C30.2554686,30.0527304 29.4349481,30.0146054 28.6106579,29.9227304 C28.4163969,29.6542929 29.1989699,29.7014804 29.148457,29.5805429 L29.148457,29.5805429 L29.524665,29.6355429 C29.5035551,29.7492929 28.7368145,29.6705429 29.0763316,29.8717929 C29.7402872,29.7899179 30.0416055,29.9205429 30.6713832,29.6861679 C30.4758657,29.4174179 29.8418157,29.7339804 29.4321837,29.5261679 C29.6040783,29.5436679 29.7495856,29.5142929 29.8905694,29.4755429 C29.5055656,29.4414804 29.0939231,29.4039804 28.6561447,29.3627304 L28.6561447,29.3627304 L28.5578833,29.4277304 C28.8529188,29.4577304 29.0569809,29.4808554 29.0833682,29.4905429 C28.6920817,29.4671054 28.3621144,29.6158554 28.3362296,29.8124179 L28.3362296,29.8124179 L28.4055906,29.8196054 L28.2643556,29.8808554 C28.1726281,29.8683554 28.0806494,29.8561679 27.9894246,29.8430429 C27.956252,29.8533554 27.9220741,29.8627304 27.8866397,29.8711679 L27.8866397,29.8711679 L27.9401683,29.8355429 C27.8512053,29.8224179 27.7629962,29.8092929 27.6742845,29.7949179 C27.6423683,29.8033554 27.6076878,29.8114804 27.5649655,29.8161679 C27.5820544,29.8114804 27.5953738,29.7974179 27.6036669,29.7827304 C27.5747665,29.7777304 27.54662,29.7724179 27.5184735,29.7671054 C27.3068722,29.9055429 26.7801307,30.0067929 26.6280894,30.0880429 C26.4267917,30.1474179 26.1807612,30.1808554 26.0264581,30.1702304 C26.1694524,30.1730429 26.3594412,30.1452304 26.3023943,30.0686679 C26.0118823,29.9889804 25.8706472,29.7592929 25.3692878,29.9564804 L25.3692878,29.9564804 L25.6633181,29.9536679 L25.0023782,30.2505429 C24.7706722,30.1274179 25.3323455,30.1024179 25.4240729,29.9955429 C24.9098968,30.1417929 24.482422,29.7505429 24.2439307,30.0080429 C24.2105068,29.8552304 24.1539625,29.6008554 23.8167072,29.6158554 C24.059722,29.7899179 23.6144043,29.7277304 23.8139428,29.9139804 C23.6975872,30.0011679 23.4374835,29.8589804 23.4181328,29.9730429 L23.419,29.971 L23.4497976,29.9099179 C22.9181072,29.6869371 22.7163947,29.9922404 22.4946031,30.1385996 L22.4385343,30.1714804 C21.7489452,30.2336679 21.4320459,30.1349179 20.8696187,30.1605429 C20.8475036,30.0583554 20.6942057,29.7771054 20.4685312,29.7877304 C20.3634844,29.9261679 19.8545858,29.9899179 19.8025651,30.1674179 C20.2059143,30.2414804 20.1325324,30.0189804 20.3742907,29.9774179 C20.575337,30.1630429 20.3923848,30.1611679 20.6670645,30.2721054 C20.4454108,30.1999179 19.6656022,30.3689804 19.4228387,30.1946054 L19.4228387,30.1946054 L19.5085347,30.1702304 C19.1210179,30.0642929 19.046882,29.6261679 18.4015231,29.8914804 L18.4015231,29.8914804 L18.0934196,29.9999179 C18.1082468,29.9821054 18.1100059,29.9614804 18.1177965,29.9455429 C17.6136727,29.9271054 17.7513894,29.7255429 17.1947423,29.8846054 C17.237716,29.8724179 17.210826,29.8527304 17.2543023,29.8408554 C16.9371516,29.7414804 16.6169853,29.9414804 16.3772375,29.9830429 C16.2307249,29.8355429 16.411918,29.8377304 16.5026402,29.7308554 C15.9442339,29.6736679 15.3418487,29.9271054 14.995295,30.1074179 L14.995295,30.1074179 L14.635422,30.0205429 C14.8487824,29.9596054 15.1096401,29.8039804 15.0445513,29.7146054 C14.8465207,29.7439804 14.8849708,29.8139804 14.6050137,29.7855429 C14.6527622,29.6911679 14.7703744,29.6030429 14.9018084,29.4839804 C14.3230462,29.3261679 14.7723848,29.8192929 14.3675277,29.5292929 C14.1855807,29.5274179 14.0797801,29.6655429 14.0599267,29.7796054 L14.0599267,29.7796054 L13.7307133,29.6302304 C13.6940223,29.7755429 13.2874061,29.7839804 13.0207683,29.8058554 C12.9880983,29.8683554 13.2353853,29.9608554 13.3364111,29.9046054 C13.3163065,30.0189804 13.0328311,30.0727304 12.8506328,30.0702304 C12.7837849,29.7655429 11.6566687,30.1142929 11.8720396,29.7552304 C11.0530269,29.8542929 9.90203645,29.8852304 9.36147302,30.0124179 C9.18329567,29.9280429 8.81990435,29.9239804 9.03778836,29.7808554 C8.37835626,29.7796054 8.03808527,30.0924179 7.38367933,30.0089804 C7.32964812,29.9708554 7.67946881,30.0064804 7.65634847,29.9046054 C7.22862232,30.0267929 6.8780477,29.7755429 6.21434337,29.8571054 C6.30506554,29.8527304 6.34251043,29.8108554 6.36236376,29.7780429 C6.30883516,29.8224179 6.07838576,29.8686679 5.93036537,29.9108554 C5.83386311,29.8846054 6.05878374,29.8742929 6.00475252,29.8355429 C4.72257929,29.6874179 3.74549392,30.1017929 2.4703573,30.0880429 C2.83450254,30.0921054 2.97221931,29.8902304 2.97598893,29.8074179 L2.97598893,29.8074179 L2.61913161,29.8039804 C2.48191747,29.9046054 2.21402317,29.9042929 1.98985647,29.9799179 C1.9624639,29.9417929 1.85339624,29.9008554 1.96472567,29.8533554 C1.25980683,29.6489804 0.863745477,30.2221054 -4.97379915e-14,30.1171054 L-4.97379915e-14,30.1171054 L1.04594375,29.7099179 L0.787096548,29.5680429 L1.24699012,29.3830429 C0.972310518,29.2711679 0.733567951,29.5292929 0.700395299,29.3761679 C0.758447439,29.3330429 0.898174668,29.3467929 0.902698212,29.2642929 C0.639076156,29.2042929 0.618217595,29.3183554 0.420186918,29.3480429 C0.94240487,29.0367929 1.96623352,29.0414804 2.51735189,28.9655429 C2.60405314,28.9408554 2.44321604,29.0405429 2.42788625,29.0721054 C2.65255557,29.0617929 2.78750795,29.1589804 3.07073203,29.1049179 C3.2463963,28.9733554 2.93653358,29.0080429 2.79705765,28.9942929 C2.81615706,28.8799179 2.88652329,28.8867929 3.04183161,28.8696054 C3.07550688,29.0221054 3.89477085,28.9236679 4.0950633,29.1099179 C4.92513351,29.0617929 3.96212138,28.7149179 4.77258957,28.7811679 L4.77258957,28.7811679 L5.01459914,28.9555429 C5.48504765,28.8205429 6.09346424,28.7011679 6.62598581,28.7383554 L6.62598581,28.7383554 L6.51390246,28.7439804 C6.43901269,28.8186679 6.5624049,28.8646054 6.61719004,28.9027304 C7.01953409,28.9777304 7.38091494,28.7655429 7.62468367,28.9405429 C8.08357201,28.7549179 8.84855346,28.6174179 9.37328449,28.5214804 C9.51477088,28.7517929 8.68872159,28.7167929 8.47058628,28.8605429 L8.47058628,28.8605429 L8.94807141,28.8599179 C8.65303586,28.8627304 8.53642897,28.9502304 8.35950816,29.0814804 C8.77793592,29.1239804 8.91565269,28.9224179 9.31221666,28.8642929 C9.28155708,28.9267929 9.33433176,28.9655429 9.51753526,28.9671054 L9.51753526,28.9671054 L9.56930471,28.8142929 C9.57282302,28.8267929 9.59292765,28.8383554 9.64947195,28.8480429 L9.64947195,28.8480429 L10.355396,28.7549179 C10.2056165,28.6892929 10.1983285,28.5564804 10.0161303,28.5546054 C10.081219,28.6436679 9.92666463,28.6611679 9.74396374,28.6589804 C9.90379561,28.5592929 9.5660377,28.5749179 9.56980732,28.4924179 C9.93571172,28.4964804 10.3853017,28.4758554 10.6253008,28.4339804 L10.6253008,28.4339804 L10.7032062,28.5749179 C11.0517704,28.6105429 11.4201879,28.5317929 11.6566687,28.5727304 L11.6566687,28.5727304 L11.5820302,28.6477304 C12.000458,28.6905429 12.4123517,28.6002304 12.7837849,28.7374179 C13.1569772,28.5767929 13.6266718,28.4427304 13.9317597,28.2742929 C14.0948585,28.0927304 15.0267085,28.5024179 15.447398,28.2467929 C15.4757958,28.2661679 15.1583939,28.3833554 15.014897,28.4521054 C15.2946028,28.4802304 15.5172616,28.2542929 15.6049681,28.4455429 C14.9769495,28.3814804 15.6386434,28.5980429 15.3556706,28.6524179 C15.6499522,28.6486679 15.959815,28.6142929 16.1040657,28.5461679 C15.6280884,28.5474179 16.273196,28.2817929 15.7914386,28.3652304 C16.1646309,28.2042929 16.6740322,28.1402304 17.1188473,28.2024179 C17.1145751,28.2849179 17.1693602,28.3233554 17.3352235,28.3574179 L17.3352235,28.3574179 L17.4689193,28.2377304 C17.6770023,28.2596054 17.0663239,28.3792929 17.4855056,28.4221054 C17.9167501,28.2174179 18.7837626,28.5380429 18.9724948,28.1596054 C19.3012057,28.3092929 18.3472406,28.3111679 18.8425686,28.4939804 C18.5543184,28.6308554 18.1570005,28.4742929 18.0620061,28.6633554 C18.3444762,28.6092929 18.1650424,28.8230429 18.3472406,28.8249179 L18.3472406,28.8249179 L18.6621295,28.7083554 L18.5925172,28.7011679 C19.1210179,28.5227304 19.958376,28.6083554 20.6333892,28.5780429 C21.2051148,28.3877304 21.5984118,28.1127304 22.2842312,28.1333554 C22.0819283,28.2449179 22.8536951,28.2408554 22.4221993,28.4455429 C22.7396012,28.5439804 23.052731,28.4274179 23.0587624,28.3449179 C22.7798105,28.3164804 22.9607523,28.3183554 22.725528,28.2777304 C22.8843546,28.1777304 23.250259,28.1821054 23.4005412,28.2477304 C23.3309289,28.2402304 23.3573162,28.2596054 23.3419864,28.2908554 C23.6752208,28.3580429 23.5018183,28.1914804 23.7425713,28.1496054 C23.818969,28.2896054 24.274339,28.1871054 24.4944848,28.2596054 L24.4944848,28.2596054 L24.8133946,28.0599179 C24.6382329,28.1911679 25.1189851,28.1080429 25.1692467,28.2286679 C25.3981882,28.1361679 25.5899362,27.9736679 25.938249,28.0089804 C25.7945009,28.0774179 26.2561536,28.1080429 26.262185,28.2408554 C26.8585388,28.3683554 27.2500766,27.8777304 27.8150169,28.0683554 C27.797174,28.0996054 27.6833315,28.1871054 27.8484409,28.2205429 C27.9786184,28.1833554 28.2063034,28.1989804 28.345528,28.1846054 L28.345528,28.1846054 C28.3437689,28.1871054 28.345528,28.1858554 28.3482924,28.1846054 C28.4163969,28.1774179 28.4593705,28.1608554 28.4611297,28.1286679 C28.6991183,27.9983554 28.8220079,27.8649179 29.2906973,27.7542929 C29.2562681,27.6017929 28.860458,27.6611679 28.6893173,27.7102304 L28.6893173,27.7102304 L28.5410456,27.8605429 C28.3995592,27.6305429 28.1183456,27.9005429 28.0105345,27.8230429 C28.2917481,27.5533554 29.1017137,27.6196054 29.587492,27.4536679 C29.2911999,27.2414804 28.6468463,27.2080429 28.0846704,27.2339804 L28.0846704,27.2339804 L28.3322087,27.3255429 L28.0379271,27.3283554 L28.3229103,27.4905429 C28.0442098,27.4621054 27.8032054,27.5036679 27.5513949,27.4942929 C27.8461791,27.4914804 27.9612781,27.7017929 27.7944097,27.6683554 C27.4656988,27.5189804 27.4518769,27.7661679 27.2005689,27.7567929 C27.3405475,27.7708554 27.5224944,27.7733554 27.4051336,27.8605429 C26.9098056,27.6777304 26.7761098,27.7967929 26.3257659,27.6011679 C26.3815563,27.8555429 25.7630874,27.6264804 25.6954855,27.8349179 L25.6954855,27.8349179 L25.9045738,27.8561679 L25.4612665,28.0099179 C25.0521371,27.8024179 25.8234013,27.7986679 25.2009115,27.6521054 C24.6264214,27.6264804 24.6412486,27.8936679 24.1896482,27.9133554 C24.3386738,27.7630429 24.6967877,27.6336679 25.0611842,27.6380429 L25.0611842,27.6380429 L24.8405358,27.5652304 C24.9571427,27.4780429 25.4612665,27.4961679 25.7128258,27.5052304 C25.2971624,27.6783554 25.9070868,27.5583554 26.0963217,27.6936679 C26.1310022,27.5477304 25.8643645,27.5705429 26.1792534,27.4536679 C25.8842178,27.4564804 25.8409928,27.4686679 25.4655387,27.4139804 C26.2772635,27.4799179 26.1953371,26.9080429 26.9037742,27.0305429 C26.5770739,27.0964804 27.0176167,27.2408554 27.0570721,27.3114804 C27.2106213,27.2939804 27.5224944,27.2592929 27.6504102,27.2227304 L27.6504102,27.2227304 L27.5345572,27.0124179 C27.9474562,26.9214804 28.0907018,27.3671054 28.5669303,27.1502304 C28.6290034,27.0239804 28.148,27.1074179 28.233696,27.0830429 C28.8855888,26.9508554 29.1203105,27.2899179 29.6990727,27.4483554 C29.7319941,27.3852304 29.7252088,27.2517929 29.9275117,27.1402304 C29.8639308,27.2667929 30.0137103,27.3314804 29.7860253,27.4239804 C29.9795324,27.4774179 30.2087253,27.3846054 30.3793634,27.3352304 C29.976768,27.2614804 30.5442214,27.1539804 30.6186086,27.0780429 C30.8271942,27.0996054 30.5550277,27.2042929 30.4266093,27.2408554 C30.5939804,27.2746054 30.7930163,27.4608554 30.888262,27.2714804 L30.887,27.273 L30.8764299,27.3136729 C30.8098193,27.4314879 30.4765085,27.5860229 30.2069214,27.6406379 L30.1094586,27.6561679 L30.3187982,27.6777304 C30.1745474,27.7455429 30.1476574,27.7264804 29.9395745,27.7055429 C30.1431339,27.8086679 30.1230293,27.9224179 30.0757834,28.0174179 C30.0488934,27.9977304 30.0903592,27.9858554 30.0649771,27.9667929 C29.897606,27.9330429 29.769439,27.9692929 29.8081404,28.0402304 C29.6576069,28.2186679 30.0403489,28.1517929 30.1536888,28.2408554 C30.2393849,28.2292929 30.3250809,28.2171054 30.4090177,28.2052304 L30.4090177,28.2052304 L31.2785433,27.6311679 C31.6499765,27.5642929 31.816845,27.7017929 32.0957968,27.7883554 L32.0957968,27.7883554 L32.1724457,27.6349179 C32.4956278,27.6505429 32.8007156,27.6992929 32.5933866,27.8936679 C32.5820777,27.8424179 32.5393554,27.8546054 32.4689891,27.8471054 C32.4596907,27.8680429 32.443607,27.8827304 32.4232511,27.8949179 C32.4164658,27.9039804 32.4126961,27.9127304 32.4071674,27.9214804 C32.7532184,27.8721054 32.9693433,27.8399179 32.9891966,27.8339804 C32.4016386,28.0567929 32.9597936,28.1127304 32.8615322,28.3849179 L32.8615322,28.3849179 L33.4551216,28.2961679 C33.0954999,28.2099179 33.4485876,28.1630429 33.576252,28.1261679 C33.6114351,28.2792929 34.0542398,28.1249179 34.2628254,28.1464804 L34.2628254,28.1464804 L34.2472443,28.1777304 C34.4402488,28.2308554 34.7780067,28.2158554 35.0182571,28.1742929 C35.0074509,28.1230429 35.3158058,27.8730429 35.4638261,27.7221054 C35.0514298,27.6646054 35.2962037,27.6033554 35.2630311,27.5083554 C35.3057534,27.5171054 35.3826537,27.5189804 35.3914495,27.4992929 C35.4505068,27.4558554 35.3112822,27.4414804 35.299722,27.3905429 C34.861441,27.4621054 34.4103432,27.4821054 34.2314119,27.6958554 C34.366113,27.7924179 34.4608561,27.6033554 34.6116408,27.6680429 C34.3942594,27.8117929 34.1140511,27.7833554 33.7499058,27.7792929 L33.7499058,27.7792929 L33.6305345,27.6511679 L33.2638762,27.7205429 C33.4169228,27.6527304 33.3249441,27.5189804 33.7094452,27.4930429 C33.6604402,27.3724179 33.3279598,27.5205429 33.0924842,27.4799179 L33.0924842,27.4799179 L32.9721077,27.6502304 C33.0183483,27.5555429 32.5142246,27.5371054 32.8725897,27.4077304 L32.8725897,27.4077304 L33.4551216,27.2686679 L33.2932793,27.1524179 L33.7858429,27.1196054 L33.6697386,27.2077304 C34.4608561,27.0899179 33.9027011,27.5464804 34.6993473,27.3455429 C34.9488961,27.1392929 35.2167904,27.1171054 35.7050818,27.1674179 C35.3517428,27.2133554 35.6686421,27.3124179 35.5357002,27.4317929 C35.8960758,27.5177304 36.0177089,27.3480429 36.204682,27.2677304 C36.2964094,27.3764804 36.3617495,27.4655429 36.039824,27.4496054 C35.9996147,27.6777304 36.4632779,27.4102304 36.492681,27.6449179 C37.5589807,27.6380429 37.3468767,26.8867929 38.5933642,27.1802304 L38.5933642,27.1802304 L38.546621,27.2746054 C39.338241,27.1567929 39.7948676,27.2699179 40.527933,27.1955429 L40.527933,27.1955429 L41.104936,27.4361679 C40.9757638,27.4730429 40.6289588,27.6530429 40.7908011,27.7689804 L40.789,27.767 L40.6694728,27.6831722 C40.4656166,27.5683854 40.2538659,27.5815141 40.0389829,27.5242847 L39.9097154,27.4799179 C39.8788045,27.5433554 40.0019454,27.5889804 40.0557253,27.6280429 C39.8730244,27.6258554 39.7815483,27.5167929 39.540544,27.5589804 C39.5521041,27.6089804 39.8149723,27.6696054 39.6169416,27.6992929 L39.6169416,27.6992929 L39.2889847,27.5492929 C38.850201,27.6208554 39.0728598,27.9080429 38.5574272,27.8392929 C38.6534268,27.7055429 38.8489444,27.5121054 39.048483,27.4799179 C38.8130074,27.4511679 39.3623666,27.3992929 39.1477496,27.3192929 C38.8082326,27.5174179 38.6446311,27.3605429 38.1935333,27.4846054 C38.2465592,27.4567929 38.2603812,27.4180429 38.3714593,27.4058554 L38.3714593,27.4058554 L37.7170534,27.3224179 C37.8788957,27.4380429 37.1762386,27.4496054 37.2370552,27.6217929 C37.9346861,27.6930429 37.7296188,27.5889804 38.5247572,27.6867929 C38.2995852,27.7258554 38.0093245,27.9008554 37.8733669,28.0621054 C37.8665816,28.0552304 37.8550214,28.0499179 37.8306446,28.0467929 C37.7090115,28.2171054 37.8329063,28.2630429 37.8306446,28.5605429 C38.1935333,28.3489804 38.4360455,28.5230429 38.8640229,28.4011679 C38.9444415,28.2380429 38.6157306,28.1933554 38.4031241,28.2355429 L38.4031241,28.2355429 L38.7800861,28.1274179 L38.7056989,28.2024179 L39.6626796,28.2571054 C39.4814866,28.2658554 39.4199161,28.3605429 39.325173,28.4317929 C39.4485652,28.4380429 39.5709522,28.4811679 39.7011298,28.5283554 C39.6737372,28.3727304 39.6910774,28.2630429 39.8114539,28.2658554 C40.4269072,28.3027304 40.7694399,28.4427304 40.9966223,28.6205429 C41.0202453,28.6167929 41.0468839,28.6130429 41.0682451,28.6092929 C40.9649575,28.4499179 41.5055209,28.3227304 41.6962637,28.1596054 C41.6869653,28.3246054 42.0136656,28.2586679 42.1910891,28.3427304 C42.2209947,28.2830429 42.2265235,28.2155429 42.2164712,28.1471054 C42.8437359,28.2108554 43.4604456,28.2242929 44.0490089,28.2174179 C44.222914,27.8708554 44.4289865,27.6764804 44.5176982,27.3542929 C44.9127543,27.2949179 45.4495482,27.2505429 45.7925835,27.3683554 L45.7925835,27.3683554 L45.76117,27.4317929 C45.9285411,27.4649179 46.0830955,27.4474179 46.2117652,27.4108554 C46.388686,27.4955429 46.0906348,27.5811679 46.214027,27.6267929 L46.214027,27.6267929 L46.7799725,27.5189804 C46.7450407,27.6646054 46.2688121,27.6652304 46.0426349,27.6755429 C46.085106,27.6633554 46.1713046,27.6392929 46.1436608,27.6196054 C45.8805413,27.5596054 45.3904908,27.8080429 45.2753917,27.5967929 C45.1472247,27.6336679 45.5357468,27.4414804 45.1017379,27.4302304 C44.8112259,27.3508554 44.7164828,27.5402304 44.6860746,27.6033554 C44.6812997,27.6861679 45.1421985,27.7167929 44.9823666,27.8161679 C45.2085438,27.8055429 45.2987634,27.6992929 45.5880188,27.7789804 C45.3636008,27.7889804 45.0592669,27.9564804 44.9398956,27.8280429 C44.4965883,27.9821054 44.5601693,28.3696054 44.7692575,28.3911679 C44.7192472,28.2696054 45.5777152,28.2414804 44.9964399,28.0830429 C45.2575489,27.9267929 45.7347827,27.9255429 46.0763102,27.8280429 L46.0763102,27.8280429 L46.0607291,27.8592929 L46.1803517,27.8483554 C46.1695455,27.8411679 46.1582366,27.8330429 46.1451686,27.8236679 L46.1451686,27.8236679 L46.1986972,27.8467929 L46.484937,27.8205429 C46.4251257,27.8636679 46.2969586,27.9005429 46.2926864,27.9827304 L46.2926864,27.9827304 L46.8802444,27.7614804 C46.5495231,27.9102304 47.0850604,27.8646054 47.2355939,27.9302304 C47.2984209,27.8039804 47.527865,27.7111679 47.3077192,27.6392929 C47.0601809,27.5474179 47.1637198,27.7074179 46.9385478,27.7171054 L46.9385478,27.7171054 L47.2574577,27.5177304 L47.2845989,27.5374179 L47.4763469,27.3742929 C47.9103557,27.3858554 47.2868607,27.7530429 47.8430052,27.5936679 L47.8430052,27.5936679 L47.7706285,27.3717929 C48.4144795,27.4042929 49.241534,27.6542929 49.6964015,27.5517929 C49.6393545,27.6092929 49.59814,27.6830429 49.585072,27.7571054 L49.585072,27.7571054 L49.9140342,27.7408554 L49.869804,27.7183554 L49.9577617,27.7386679 L50.8657374,27.6930429 C50.5259691,27.7161679 50.2407345,27.7321054 49.9846517,27.7446054 L49.9846517,27.7446054 L50.1329234,27.7789804 L50.0751226,27.8221054 L49.9273535,27.7474179 C49.8074796,27.7530429 49.6931345,27.7583554 49.5838155,27.7630429 C49.5702449,27.8499179 49.5961296,27.9377304 49.6881083,28.0017929 C49.4918368,27.9636679 49.0975346,27.9714804 48.816321,27.9924179 C48.7695777,27.9586679 49.0661211,27.7880429 49.3448216,27.7727304 C49.1983091,27.7786679 49.0555661,27.7846054 48.9100588,27.7911679 L48.9100588,27.7911679 L49.4651981,27.7633554 C49.305115,27.4336679 48.7039863,27.9914804 48.6688032,27.6286679 C47.8899998,27.4999179 48.0877792,27.9839804 47.4265879,27.7674179 C47.4175408,27.9321054 47.2386096,27.8477304 47.2039291,27.9930429 C47.3994467,28.2617929 48.0877792,27.9839804 48.5167619,28.0777304 C48.4747934,28.0899179 48.3901027,28.1146054 48.3735163,28.1455429 C48.6803634,28.1939804 48.8070226,28.1574179 49.0213883,28.0961679 L49.0213883,28.0961679 L48.994247,28.0767929 C49.3684446,27.9158554 49.2259529,28.1996054 49.4460987,28.2721054 C49.5315434,28.2477304 49.8378878,28.2952304 49.7886315,28.1742929 L49.7886315,28.1742929 L50.1874572,28.3308554 L50.1683578,28.1471054 C50.3935298,28.1361679 50.4425348,28.2577304 50.6465969,28.1455429 L50.6465969,28.1455429 L50.6558953,27.9811679 L50.0972377,27.9239804 C50.3804617,27.8702304 50.1761484,27.7661679 50.4872676,27.7317929 C50.1397087,27.9117929 50.7332981,27.8230429 50.767476,27.9758554 L50.767476,27.9758554 L50.9964176,27.8830429 L50.9378628,27.9271054 C51.0929198,28.0002304 51.1401657,27.9017929 51.2846678,27.8874179 L51.2846678,27.8874179 L51.3040185,27.8649179 C51.2426994,27.8405429 51.1856525,27.8164804 51.1293595,27.7958554 C51.0733178,27.8130429 51.0240614,27.8349179 51.001695,27.8508554 L51.001695,27.8508554 L51.0270771,27.7646054 C50.9157477,27.7380429 50.7958738,27.7380429 50.6370472,27.7967929 L50.64,27.795 L50.7325452,27.761846 C50.9402335,27.6918521 51.2347527,27.6237698 51.3762843,27.6028189 L51.4331908,27.5964804 C51.6214205,27.5424179 51.7656712,27.6067929 51.927011,27.6464804 C51.9644558,27.6033554 52.0348221,27.5649179 52.1499211,27.5414804 L52.1499211,27.5414804 L52.138361,27.6639804 C52.1690205,27.6617929 52.2029471,27.6608554 52.2429051,27.6624179 C52.2057115,27.6699179 52.171031,27.6724179 52.137607,27.6730429 L52.137607,27.6730429 L52.1157432,27.9033554 C52.0750314,27.9152304 51.9692307,27.9386679 51.8689588,27.9458554 C51.8473463,28.0399179 51.7636608,28.1083554 51.3522696,28.0521054 C51.3683534,28.0205429 51.4384683,28.0277304 51.4656095,28.0471054 C51.3502592,27.8367929 50.946156,28.0602304 50.7581776,28.1405429 C50.80668,28.2617929 50.6101572,28.2917929 50.9433916,28.3586679 C50.8338213,28.2811679 51.2238513,28.0886679 51.5410019,28.1880429 L51.5410019,28.1880429 L51.4852116,28.4471054 L51.946613,28.4777304 L51.903388,28.4899179 C51.9674715,28.5511679 52.0514084,28.5627304 52.147408,28.5580429 C52.0928742,28.5427304 52.0393456,28.5255429 52.0408535,28.4924179 C52.243659,28.4946054 52.471344,28.4889804 52.6754061,28.4767929 C52.6477622,28.4596054 52.6155948,28.4433554 52.5942336,28.4280429 C52.7234059,28.3908554 52.7759293,28.4252304 52.7759293,28.4702304 C52.9000754,28.4608554 53.0116561,28.4489804 53.0963469,28.4339804 L53.0963469,28.4339804 L53.1307761,28.4961679 C53.4170159,28.4711679 53.6854128,28.4383554 53.4446598,28.2658554 C53.7298943,28.4280429 53.980197,28.2214804 54.2913163,28.1864804 L54.2913163,28.1864804 L53.9032968,28.0808554 C54.3584155,27.8967929 54.2332642,28.0124179 54.5898702,27.7258554 L54.5898702,27.7258554 L54.4652214,27.7149179 L54.5569488,27.6383554 L54.6913986,27.7352304 L54.601179,27.7271054 C54.6396291,27.7949179 54.7135137,27.8517929 54.6413883,27.9239804 C55.2402552,27.9371054 56.0843986,28.0046054 56.4636223,27.8139804 C56.4430151,27.7952304 56.4415072,27.7724179 56.4472873,27.7514804 C56.3412354,27.9311679 55.6850703,27.8230429 55.2349777,27.8236679 C55.5383064,27.6555429 54.8994816,27.5408554 55.3108727,27.4502304 L55.3108727,27.4502304 L57.5721418,27.3789804 C57.5917438,27.3605429 57.6166233,27.3461679 57.6729163,27.3436679 L57.6729163,27.3436679 L57.6188851,27.3780429 L58.289626,27.3571054 C58.7301689,27.5011679 58.3192804,27.5921054 58.9194038,27.6367929 C58.9395084,27.5224179 58.8703987,27.5155429 58.7781687,27.4067929 L58.7781687,27.4067929 L59.2277587,27.3861679 L59.1963452,27.4496054 L59.5652653,27.3711679 C59.7778718,27.6080429 58.6562843,27.5767929 59.3340619,27.7617929 C58.8060639,27.8811679 58.3215421,27.8880429 57.834256,27.8911679 C57.7553453,27.9455429 57.6864869,28.0124179 57.9754911,27.9992929 C58.2956574,27.7999179 58.7274045,28.1092929 59.1435705,27.9364804 C59.363465,28.0083554 59.7446991,27.9811679 59.6652858,28.1389804 C59.316973,28.1030429 58.8241581,28.1358554 58.7495196,28.2114804 C58.7975194,28.1164804 58.5017299,28.1192929 58.7583154,28.0461679 C58.2320765,27.9267929 58.4165365,28.1439804 57.9443289,28.0624179 C57.9121615,28.1255429 58.1870924,28.2367929 58.2886208,28.1805429 C58.2901286,28.3583554 57.6565813,28.3139804 57.6709058,28.4383554 C57.8616486,28.3971054 58.0086637,28.2989804 58.0760143,28.4455429 C57.7000575,28.4071054 57.7862562,28.4692929 57.8553659,28.5371054 C58.0757629,28.5230429 58.2285582,28.4246054 58.3743168,28.3505429 C58.3464216,28.3527304 58.3114898,28.3564804 58.2622335,28.3652304 C58.6356771,28.2042929 59.1450783,28.1402304 59.5898934,28.2024179 C59.5871291,28.2555429 59.6130138,28.2896054 59.6733277,28.3167929 C59.7492227,28.2761679 59.8391909,28.2405429 59.9560491,28.2183554 C59.7595263,28.1289804 59.8248664,28.0133554 59.8565312,27.9149179 C59.8520076,27.9136679 59.8487406,27.9142929 59.8442171,27.9133554 C59.8648244,27.7996054 59.686647,27.7152304 59.7333903,27.6199179 C59.8582903,27.6658554 60.0681325,27.6874179 60.211378,27.6189804 C60.3051159,27.4302304 59.637642,27.5936679 59.9565518,27.3942929 C59.7441965,27.3611679 59.5657679,27.2927304 59.359444,27.2689804 L59.359444,27.2689804 L63.5376903,27.2496054 C63.533418,27.2342929 63.5389468,27.2189804 63.5721195,27.1999179 C63.5942346,27.2217929 63.6241402,27.2367929 63.6540459,27.2489804 L63.6540459,27.2489804 L64.613037,27.2446054 C64.5740843,27.1483554 64.9942712,27.1692929 65.1204278,27.1099179 C64.9693917,27.1692929 64.9412453,27.2105429 64.9610986,27.2436679 L64.9610986,27.2436679 L65.0601139,27.2430429 L65.3249925,27.2133554 C65.5541854,27.1208554 66.3551039,27.3517929 66.1749161,27.0514804 C66.3573656,27.0536679 66.5739931,27.2080429 66.8572172,27.1542929 C66.8861176,27.1886679 66.895416,27.2136679 66.8924003,27.2342929 L66.8924003,27.2342929 L66.9328609,27.2342929 C66.9152693,27.2430429 66.8979291,27.2514804 66.8798349,27.2602304 C66.8662643,27.2724179 66.8476675,27.2830429 66.819521,27.2886679 C66.6632074,27.3611679 66.53881,27.4289804 66.7536783,27.5089804 C66.4159204,27.5236679 65.9437127,27.4417929 65.961053,27.6264804 C66.0399637,27.6830429 66.1344555,27.7483554 66.2839837,27.7717929 C65.7770955,27.7708554 65.6361118,27.9433554 65.1596319,27.9092929 C65.3905839,27.8167929 66.2136175,27.6352304 65.7459334,27.4717929 L65.7459334,27.4717929 L65.3946048,27.7342929 C65.2430661,27.6696054 65.4840705,27.6274179 65.5438818,27.5833554 C65.5205101,27.4817929 65.0761976,27.4199179 64.9854755,27.5267929 C65.023423,27.5967929 65.3182072,27.5936679 65.0734332,27.7180429 L65.0734332,27.7180429 L64.1244944,27.9889804 C64.2282846,27.9430429 64.1986302,27.8552304 64.2111956,27.8286679 C64.0016048,27.8074179 63.9357621,28.0164804 63.6439935,27.9367929 L63.6439935,27.9367929 L64.0332696,27.7446054 C63.187367,27.8236679 63.5178369,27.6752304 62.7644157,27.8636679 L62.7644157,27.8636679 L62.7807507,27.8317929 C62.5118512,27.8546054 62.0353712,27.8555429 61.790346,27.9796054 L61.790346,27.9796054 L61.7993931,27.8149179 C61.4596247,28.1277304 61.5787447,27.7421054 61.0389352,27.8696054 L61.0389352,27.8696054 L61.1246312,27.8452304 C60.7873759,27.8605429 60.9467051,27.7608554 60.9670611,27.6467929 C60.6860988,27.6089804 60.5335548,27.7264804 60.3681942,27.8224179 C60.4156914,27.8571054 60.4450944,27.9039804 60.4458484,27.9699179 C59.7627933,28.1389804 60.3526131,28.1939804 59.815568,28.3889804 C59.8321543,28.4021054 59.8736201,28.4136679 59.9565518,28.4221054 C60.132216,28.3386679 60.3810109,28.3424179 60.6262875,28.3508554 L60.6262875,28.3508554 L60.6561931,28.3383554 L60.3317546,28.2730429 C60.7431457,28.1827304 60.5546647,28.0474179 60.7293238,27.9158554 C61.1057831,27.9711679 61.0399404,27.8811679 61.2766725,27.9224179 C61.2527982,28.1080429 62.0024499,28.2392929 62.4357048,28.3586679 C62.3683543,28.3514804 62.2814017,28.3561679 62.2346585,28.3514804 C61.9197696,28.4686679 62.4512859,28.5061679 62.4628461,28.5571054 L62.4628461,28.5571054 L62.6704265,28.4730429 C62.6339868,28.4911679 62.6053377,28.5246054 62.6870128,28.5464804 C62.9978808,28.5121054 62.9797866,28.3280429 63.2899006,28.2933554 C63.3074922,28.3717929 63.1587179,28.4811679 63.1755555,28.5524179 C63.4112824,28.4689804 63.6206219,28.3749179 63.8357415,28.2958554 C64.2398447,28.0602304 64.6577699,27.9921054 65.2310033,27.9280429 C65.521264,28.0077304 65.0555904,28.0596054 65.260909,28.1633554 C65.1040928,28.1317929 64.9085752,28.1846054 64.94024,28.2655429 C64.9523028,28.2705429 64.963109,28.2752304 64.9734127,28.2802304 C65.0990667,28.2846054 65.1933071,28.2364804 65.2724692,28.2142929 C65.277244,28.2233554 65.2782492,28.2324179 65.2767414,28.2417929 C65.4260183,28.1911679 65.6484259,28.1902304 65.7936819,28.2236679 C65.7363837,28.1783554 65.911294,28.1880429 65.7313575,28.0292929 C65.934163,28.1317929 66.4380355,27.9905429 66.6116893,28.2299179 C66.7408616,28.2296054 66.8735522,28.2292929 66.9655309,28.2596054 L66.9655309,28.2596054 L67.2844407,28.0599179 C67.1090278,28.1911679 67.5900312,28.1080429 67.6402928,28.2286679 C67.8692344,28.1361679 68.0609823,27.9736679 68.4092952,28.0089804 C68.265547,28.0774179 68.7271998,28.1080429 68.7332311,28.2408554 C69.3295849,28.3683554 69.7211228,27.8777304 70.2860631,28.0683554 C70.2682202,28.0996054 70.1543777,28.1871054 70.3197383,28.2205429 C70.4494132,28.1833554 70.6770983,28.1989804 70.8163229,28.1846054 L70.8163229,28.1846054 C70.814815,28.1871054 70.8163229,28.1858554 70.8193386,28.1846054 C70.887443,28.1774179 70.9301654,28.1608554 70.9319245,28.1286679 C71.1701645,27.9983554 71.2930541,27.8649179 71.7617434,27.7542929 C71.7273142,27.6017929 71.3317555,27.6611679 71.1601122,27.7102304 L71.1601122,27.7102304 L71.0120918,27.8605429 C70.8706054,27.6305429 70.5893918,27.9005429 70.4815807,27.8230429 C70.7627943,27.5533554 71.5727598,27.6196054 72.0585381,27.4536679 C71.762246,27.2414804 71.1178924,27.2080429 70.5557165,27.2339804 L70.5557165,27.2339804 L70.8032549,27.3255429 L70.5089732,27.3283554 L70.7937052,27.4905429 C70.5152559,27.4621054 70.2745029,27.5036679 70.022441,27.4942929 C70.3174766,27.4914804 70.4323243,27.7017929 70.2654558,27.6683554 C69.936745,27.5189804 69.9229231,27.7661679 69.6716151,27.7567929 C69.8115936,27.7708554 69.9935406,27.7733554 69.8761798,27.8605429 C69.3808518,27.6777304 69.2471559,27.7967929 68.7968121,27.6011679 C68.8526024,27.8555429 68.2341335,27.6264804 68.1665317,27.8349179 L68.1665317,27.8349179 L68.3753686,27.8561679 L67.9323127,28.0099179 C67.5231833,27.8024179 68.2944474,27.7986679 67.6719576,27.6521054 C67.0974676,27.6264804 67.1125461,27.8936679 66.6609457,27.9133554 C66.80972,27.7630429 67.1678338,27.6336679 67.5322304,27.6380429 L67.5322304,27.6380429 L67.311582,27.5652304 C67.4281889,27.4780429 67.9323127,27.4961679 68.1838719,27.5052304 C67.7682086,27.6783554 68.3783843,27.5583554 68.5673679,27.6936679 C68.6022997,27.5477304 68.3351593,27.5705429 68.6502995,27.4536679 C68.3550127,27.4564804 68.312039,27.4686679 67.9363336,27.4139804 C68.7483096,27.4799179 68.6663832,26.9080429 69.3748204,27.0305429 C69.0483713,27.0964804 69.4886629,27.2408554 69.5281182,27.3114804 C69.6816674,27.2939804 69.9935406,27.2592929 70.1214563,27.2227304 L70.1214563,27.2227304 Z M60.7519415,28.0174179 C60.6891145,28.1439804 60.7273133,28.2139804 60.5137015,28.2752304 L60.5137015,28.2752304 L60.8517107,28.2599179 C60.7788314,28.2805429 60.7232924,28.3130429 60.6561931,28.3383554 L60.6561931,28.3383554 L60.6637324,28.3405429 L60.6277953,28.3508554 C60.9670611,28.3621054 61.2980337,28.3796054 61.4249442,28.1871054 C61.268882,28.1033554 61.0907046,28.0089804 60.7519415,28.0174179 Z" id="Fill-272" transform="translate(53.628868, 29.365590) rotate(-180.000000) translate(-53.628868, -29.365590) "></path>
                </g>
            </g>
        </g>
    </g>
</svg>