<?xml version="1.0" encoding="UTF-8"?>
<svg width="258px" height="27px" viewBox="0 0 258 27" version="1.1" xmlns="http://www.w3.org/2000/svg" xmlns:xlink="http://www.w3.org/1999/xlink">
    <!-- Generator: sketchtool 64 (101010) - https://sketch.com -->
    <title>60B5AC03-92B2-438B-80E8-667B25F1C0FF</title>
    <desc>Created with sketchtool.</desc>
    <g id="Page-1" stroke="none" stroke-width="1" fill="none" fill-rule="evenodd">
        <g id="HOME" transform="translate(-145.000000, -2729.000000)" fill="#FFB900">
            <path d="M349.029771,2753.53845 C348.963771,2753.54545 348.907771,2753.55345 348.845771,2753.56045 C349.137771,2753.42845 349.269771,2753.38145 349.029771,2753.53845 L349.029771,2753.53845 Z M346.621,2753.519 C346.637,2753.506 346.641,2753.496 346.661,2753.481 L347.379,2753.507 C347.109,2753.508 346.855,2753.512 346.621,2753.519 L346.621,2753.519 Z M326.756,2753.47807 C326.93,2753.48807 327.088,2753.50507 327.244,2753.52107 C326.936,2753.52607 326.798,2753.50907 326.756,2753.47807 L326.756,2753.47807 Z M301,2754.5795 C301.679964,2754.5265 302.356301,2754.4735 303,2754.4205 C302.401632,2754.4845 301.754306,2754.5425 301,2754.5795 L301,2754.5795 Z M294.039787,2754.68605 C291.905525,2754.23367 294.549873,2754.2221 293.147136,2753.5826 L291.627217,2754.05619 L292.344095,2754.12178 C292.112316,2754.76515 289.99184,2754.05812 290.183122,2754.84328 C288.639078,2754.23946 288.180689,2754.60792 286.482413,2754.04269 C286.08003,2754.3118 286.703852,2754.31952 287.182919,2754.36293 C286.322149,2754.33399 286.274759,2755.09696 285.147745,2754.6359 C284.575621,2754.53269 284.970248,2755.18184 285.980943,2755.17316 C285.117587,2755.14422 284.291282,2755.27251 283.335732,2755.18473 L284.311961,2755.68534 L283.303852,2755.69498 L284.15256,2755.97664 C282.225089,2756.0567 280.015864,2755.95445 279,2755.29855 C280.665535,2754.78637 283.442575,2754.99085 284.406741,2754.15844 C284.037101,2753.91923 283.072935,2754.75261 282.586974,2754.04269 L282.079473,2754.50761 C281.49184,2754.65808 280.135631,2754.84135 280.017587,2754.37064 C281.272985,2754.10442 281.804612,2753.7948 282.366396,2753.48035 L282.390522,2753.87486 C282.741206,2752.76947 284.27405,2754.19895 284.266295,2753.00579 C284.312823,2753.00386 284.357628,2753.00193 284.403294,2753 C284.631627,2753.14758 284.940953,2753.16205 285.258033,2753.14372 C285.236493,2753.245 285.109833,2753.34821 285.077091,2753.40126 C285.631982,2753.57006 286.136898,2753.55752 286.624582,2753.47456 C286.640091,2753.59321 286.628028,2753.74464 286.578054,2753.94141 C288.183274,2754.02436 289.303396,2753.37425 290.735428,2753.15722 C291.175722,2753.34242 291.86072,2753.43502 291.511759,2753.58549 C292.222605,2753.64915 292.741308,2753.49675 293.211759,2753.30384 C293.768373,2754.02919 294.839382,2754.2385 296,2754.30216 C295.554536,2754.51822 295.078054,2754.72753 294.039787,2754.68605 L294.039787,2754.68605 Z M251.031475,2754.99245 L248.367236,2754.79079 C248.819461,2754.76133 248.875734,2754.66767 249.091615,2754.60045 C247.25509,2754.9003 246.588008,2754.52115 245.207801,2755 C244.331999,2754.80665 246.568568,2754.68127 245.610915,2754.61178 C246.136806,2754.56118 246.643257,2754.34517 247.050464,2754.11329 C247.012608,2754.19411 246.975775,2754.26888 246.940989,2754.32855 L247.122083,2754.07326 C247.313409,2753.95997 247.486319,2753.84517 247.610118,2753.7432 C247.46381,2753.73112 247.334895,2753.72508 247.216211,2753.7213 C247.320571,2753.45921 247.429023,2753.17221 247.540545,2752.90483 L248.238322,2752.7855 C248.034718,2752.80967 247.80349,2752.821 247.575331,2752.821 C247.66639,2752.6065 247.759495,2752.41314 247.8526,2752.27039 C248.78979,2752.26737 249.569418,2752.34592 250.569019,2752 C250.559811,2752.71979 251.064216,2752.83006 250.569019,2753.24169 C250.469775,2753.23414 250.422711,2753.2213 250.395086,2753.20468 C249.841571,2753.59441 248.659852,2754.01737 247.743125,2754.11178 C250.979296,2754.34819 250.145442,2754.09668 252.984637,2754.26888 C253.233258,2754.68505 250.372578,2754.71299 251.031475,2754.99245 L251.031475,2754.99245 Z M245,2754.75672 C246.069916,2754.20568 245.59662,2754.39447 247.813112,2754 C248.209747,2754.3914 247.934769,2754.47429 247.36648,2754.82579 C247.463139,2754.84574 247.524801,2754.85035 247.609794,2754.86493 C247.318151,2754.92172 246.94818,2754.9693 246.436553,2755 L245,2754.75672 Z M243.872,2754.5345 C243.916,2754.5095 243.956,2754.4875 243.998,2754.4655 C244.068,2754.4865 244.116,2754.5085 244.128,2754.5295 C244.03,2754.5365 243.964,2754.5295 243.872,2754.5345 L243.872,2754.5345 Z M238.512771,2752.75325 C237.759036,2753.48237 238.460723,2753.48701 236.863614,2754 C236.297831,2753.68646 235.901687,2753.22635 235.816867,2752.78664 C235.245301,2753.23377 233.731084,2753.40909 232.066506,2753.37662 L232.780723,2753.13544 C232.48,2753.11132 232.226506,2753.1141 232,2753.12987 C232.018313,2753.07607 232.036627,2753.01763 232.052048,2752.94898 L233.043855,2752.63265 C233.875663,2752.66327 234.713253,2752.70594 235.558554,2752.76902 C235.56241,2752.86642 235.556627,2752.94434 235.64241,2752.7885 C235.631807,2752.782 235.624096,2752.77737 235.615422,2752.7718 C235.682892,2752.77737 235.749398,2752.78015 235.816867,2752.78571 C235.812048,2752.7616 235.806265,2752.73748 235.803373,2752.71429 C236.64,2752.84972 236.344096,2752.48423 236.515663,2752.32653 C237.14988,2752.39889 237.839036,2752.38312 237.812048,2752.74768 C238.221687,2752.47681 239.049639,2752.23933 239.631807,2752 L240,2752.47124 L238.512771,2752.75325 Z M231,2753.6365 L231.429224,2753.0775 C231.894977,2753.1005 232.46484,2753.3835 233,2753.5865 C232.404566,2753.6915 231.938813,2753.8225 231.463927,2753.9225 C231.580822,2753.8205 231.387215,2753.7585 231,2753.6365 L231,2753.6365 Z M206,2750.7695 L206.004368,2750.7625 C206.090644,2750.7285 206.163815,2750.6835 206.228249,2750.6305 C207.00364,2750.4625 207.261376,2750.2445 207.072443,2750.0455 L207.466691,2750.0375 L209,2750.9625 L207.756098,2750.9495 C207.130324,2750.8785 206.522024,2750.8075 206,2750.7695 L206,2750.7695 Z M198.331682,2750.841 C198.331682,2750.841 198.408472,2750.738 198.621501,2750.699 C196.664602,2750.702 196.179093,2750.73 195,2750.789 C195.037156,2750.575 195.117662,2750.379 195.276195,2750.205 L196.166708,2750.19 L196.413178,2750.338 L196.829329,2750.178 L197.896953,2750.159 C198.079019,2750.365 197.889522,2750.53 197.889522,2750.617 C198.519941,2750.458 199.240773,2750.425 200,2750.45 C199.457518,2750.569 198.901412,2750.698 198.331682,2750.841 L198.331682,2750.841 Z M167.167454,2747.72836 C167.162707,2747.71136 167.162707,2747.69836 167.156376,2747.68236 L167.078834,2747.74336 C167.063008,2747.74536 167.044018,2747.74836 167.029776,2747.75136 C166.968058,2747.64036 167.007621,2747.55736 167.099406,2747.49036 C167.077251,2747.33636 167.164289,2747.21436 167.677022,2747.25736 L167.577324,2747.33336 C167.760895,2747.30836 167.979281,2747.29836 168.207163,2747.29436 C168.317938,2747.34636 168.53316,2747.40036 169,2747.45436 C168.575887,2747.57436 167.69443,2747.64636 167.167454,2747.72836 L167.167454,2747.72836 Z M165.994645,2742.7845 C165.632645,2742.5505 164.926645,2742.2365 165.558645,2742.2155 L166.694645,2742.4825 C166.506645,2742.6045 166.284645,2742.7105 165.994645,2742.7845 L165.994645,2742.7845 Z M231,2730.33476 C229.069654,2730.50676 229.574548,2731.04276 227.873494,2730.97276 C227.778614,2730.45276 226.494352,2730.94876 225.434864,2730.98176 L226.182605,2730.61976 L225,2730.42876 C226.246988,2729.83076 230.271461,2729.96376 231,2730.33476 L231,2730.33476 Z M229,2731.8555 C228.047307,2731.5385 226.22904,2731.8555 226,2731.1855 C226.890867,2731.1605 227.770492,2731.1485 228.641686,2731.1445 C228.589696,2731.1545 228.534895,2731.1655 228.498361,2731.1705 C228.665574,2731.2085 228.919906,2731.3565 229,2731.8555 L229,2731.8555 Z M242,2731.12785 C241.953206,2731.32785 241.745234,2731.51185 241.785789,2731.63185 C240.834315,2731.78985 239.889081,2731.92985 239,2731.88785 C239.927556,2731.59185 240.554593,2730.97785 242,2731.12785 L242,2731.12785 Z M244.925466,2731.429 C244.106832,2731.51 243.263354,2731.59 242.350311,2731.666 C242.237267,2731.597 242.11677,2731.547 242,2731.489 C243.059627,2731.397 244.209938,2731.377 245,2731.334 L244.925466,2731.429 Z M248,2731.34853 C247.038696,2731.45353 246.04087,2731.55453 245,2731.65353 C246.856087,2731.36953 247.403913,2731.33653 248,2731.34853 L248,2731.34853 Z M263.230431,2731.17885 C263.686075,2731.28385 263.90607,2731.36485 264,2731.43585 C263.116726,2731.71585 262.19967,2731.95185 261,2731.75285 C261.568525,2731.48685 261.967317,2731.12385 263.230431,2731.17885 L263.230431,2731.17885 Z M266.385819,2731 C267.535975,2731.37331 268.189781,2731.37718 269,2731.45745 C268.88634,2731.54739 268.82586,2731.7089 268.855057,2732 C268.11366,2731.30851 266.104275,2732.27176 266,2731.37621 C266.280501,2731.32979 266.452555,2731.22921 266.385819,2731 L266.385819,2731 Z M275.219755,2730.59658 L274.143654,2730.22982 L275.255847,2730.22346 L274.320313,2730.01712 C276.444972,2729.95846 278.880209,2730.03337 280,2730.5139 C278.164075,2730.88913 275.102932,2730.73932 274.040128,2731.34846 C274.447584,2731.52371 275.510388,2730.91387 276.045115,2731.43397 L276.604535,2731.09336 C277.252285,2730.98241 278.748189,2730.84885 278.878309,2731.1937 C278.435712,2731.25589 278.074795,2731.32161 277.768966,2731.38945 L277.816455,2731.24034 L277.608453,2731.42902 C276.852428,2731.60992 276.425976,2731.80567 275.857058,2732 C275.794373,2731.97315 275.76113,2731.9152 275.777277,2731.79436 L276.080256,2731.64172 L272.04369,2731.4587 L272,2730.97817 C272.284934,2730.88489 272.60691,2730.83189 273.222367,2730.99937 C273.853021,2731.07428 273.418972,2730.5987 272.304879,2730.60576 C273.256559,2730.62626 274.167399,2730.53298 275.219755,2730.59658 L275.219755,2730.59658 Z M280.473365,2731.33148 C280.509365,2731.46248 280.367365,2731.58148 279.847365,2731.66248 C279.709365,2731.67448 279.607365,2731.66748 279.521365,2731.65148 C279.553365,2731.63348 279.553365,2731.62148 279.593365,2731.60248 C279.385365,2731.45048 279.787365,2731.34948 280.473365,2731.33148 L280.473365,2731.33148 Z M287.84,2731.527 C287.99,2731.492 288.102,2731.445 288.176,2731.387 L288.288,2731.58 C288.098,2731.591 287.914,2731.601 287.712,2731.613 C287.756,2731.585 287.788,2731.556 287.84,2731.527 L287.84,2731.527 Z M307,2730.1795 C306.901772,2730.3745 306.800324,2730.5955 306.697265,2730.8205 C306.241553,2730.8075 305.705327,2730.7865 305.024174,2730.7515 C304.814836,2730.4575 306.006451,2730.3105 307,2730.1795 L307,2730.1795 Z M306.447,2730.44797 C306.233,2730.50997 305.959,2730.55397 305.553,2730.55197 C305.883,2730.51697 306.193,2730.48297 306.447,2730.44797 L306.447,2730.44797 Z M309,2730.183 C308.972098,2730.201 308.938615,2730.22 308.912573,2730.236 C308.456834,2730.291 308.311742,2730.382 307.999236,2730.452 C308.229895,2730.425 308.428932,2730.411 308.64099,2730.391 C308.209433,2730.618 307.991795,2730.592 306.228366,2730.956 L306.198604,2730.956 C305.822852,2730.521 306.016308,2730.368 306.477627,2730.044 L309,2730.183 Z M322.385616,2731.2185 C322.603425,2731.2805 322.808904,2731.3465 323,2731.4165 L320.821918,2731.7685 C320.530137,2731.7555 320.260959,2731.7655 320,2731.7815 C320.260959,2731.6225 320.760274,2731.4835 322.385616,2731.2185 L322.385616,2731.2185 Z M327.183,2731.3935 C327.081,2731.4725 327.193,2731.5285 327.445,2731.6065 C327.145,2731.5815 326.851,2731.5525 326.555,2731.5245 C326.767,2731.4785 326.975,2731.4325 327.183,2731.3935 L327.183,2731.3935 Z M349.955691,2731.05899 C349.529691,2731.48127 349.471691,2731.5618 349.187691,2731.66386 C348.887691,2731.64232 348.549691,2731.62734 348.131691,2731.63483 L348.225691,2731.97846 C348.201691,2731.98689 348.187691,2731.99064 348.161691,2732 C347.913691,2731.52622 348.083691,2731.42228 348.437691,2731 L349.955691,2731.05899 Z M352,2731.19999 L351.928676,2731.72699 C351.070865,2731.92299 350.567744,2731.89399 350.006793,2731.83499 C349.983661,2731.60199 350.018359,2731.35999 350.130163,2731.12099 L352,2731.19999 Z M357.227,2731.404 L357.141,2731.596 C357.027,2731.587 356.903,2731.53 356.773,2731.453 C356.927,2731.437 357.079,2731.42 357.227,2731.404 L357.227,2731.404 Z M391.812,2737.43547 C391.478,2737.63247 390.894,2737.59647 390.188,2737.43047 C390.77,2737.44947 391.292,2737.45047 391.812,2737.43547 L391.812,2737.43547 Z M217.880963,2751.8835 L217.966563,2751.7845 L215,2751.8945 L215.620597,2751.1055 L218,2751.7045 L218,2751.8465 C217.958538,2751.8595 217.922425,2751.8705 217.880963,2751.8835 L217.880963,2751.8835 Z M171.403,2747.5445 C171.113,2747.5255 170.847,2747.4945 170.597,2747.4555 C170.853,2747.4785 171.125,2747.5105 171.403,2747.5445 L171.403,2747.5445 Z M385.03,2737.5415 L384.846,2737.4585 C384.952,2737.4615 385.056,2737.4625 385.154,2737.4635 C385.15,2737.5045 385.12,2737.5355 385.03,2737.5415 L385.03,2737.5415 Z M389.5,2737.391 C389.906,2737.422 390.238,2737.445 390.5,2737.46 C390.388,2737.515 390.246,2737.563 390.12,2737.609 C389.916,2737.54 389.708,2737.467 389.5,2737.391 L389.5,2737.391 Z M214.949,2751.542 L213.713,2751.722 C213.765,2751.319 213.233,2751.386 213.051,2751.278 C213.633,2751.331 214.273,2751.424 214.949,2751.542 L214.949,2751.542 Z M392.022466,2742.195 C392.196466,2742.432 392.630466,2742.782 392.276466,2742.805 L391.588466,2742.496 C391.700466,2742.368 391.838466,2742.262 392.022466,2742.195 L392.022466,2742.195 Z M270.459,2731.6 C270.883,2731.558 271.217,2731.479 271.541,2731.4 C271.257,2731.546 270.879,2731.597 270.459,2731.6 L270.459,2731.6 Z M402.568562,2747.35791 C402.568562,2747.35791 401.343278,2746.91083 399.969579,2746.35559 C399.914355,2746.2943 399.864308,2746.23589 399.822027,2746.18037 C400.723732,2746.40463 400.060181,2746.07941 399.882428,2745.80179 L399.822027,2746.0073 C399.282729,2745.80612 399.282729,2745.28477 399.012649,2745.14055 C399.012649,2745.18238 399.020415,2745.23285 399.028181,2745.28477 L399.062696,2745.21482 C399.088582,2745.30712 399.07305,2745.37058 399.044575,2745.42322 C399.051478,2745.53427 399.025592,2745.62152 398.878903,2745.59051 L398.907378,2745.53643 C398.681304,2745.61215 398.292147,2745.52994 398.123023,2745.49317 L398.119572,2745.05835 C397.92111,2745.46865 397.259284,2745.16146 396.576749,2744.74467 C398.204997,2744.95379 396.971946,2744.63363 396.638013,2744.35961 L396.524114,2744.56512 C396.350676,2744.53123 396.215204,2744.4858 396.092676,2744.43677 C395.884722,2744.3012 395.687124,2744.17141 395.508508,2744.06036 C395.344562,2743.90604 395.215993,2743.76327 394.98388,2743.69837 C394.98388,2743.72577 394.995097,2743.75966 395.003726,2743.79211 C394.961445,2743.77841 394.923478,2743.76832 394.892415,2743.76687 C394.427324,2743.29312 393.864729,2743.73515 393.286602,2743.68972 L393.285739,2743.61617 C393.263304,2743.64068 393.227064,2743.65438 393.197726,2743.67385 C393.135599,2743.66376 393.072609,2743.65294 393.010482,2743.6277 C391.992288,2743.49502 392.40992,2743.04506 392.000054,2742.67875 C392.11309,2742.70326 392.245973,2742.75662 392.412508,2742.85902 C392.006957,2742.03409 392.946629,2742.36435 392.813746,2741.94395 C392.868107,2742.04635 392.991498,2742.1985 393.090729,2742.33983 C393.73012,2742.24393 394.935559,2742.01318 395.234114,2741.58918 C395.234114,2741.58918 394.525692,2741.09739 393.762047,2740.50538 C394.228,2740.40515 394.614569,2740.28761 394.802676,2740.14699 C394.802676,2740.14699 393.577391,2739.69992 392.203692,2739.14468 C392.148468,2739.08338 392.098421,2739.02498 392.05614,2738.96945 C392.957846,2739.19371 392.294294,2738.8685 392.116542,2738.59088 L392.05614,2738.79639 C391.516843,2738.59521 391.516843,2738.07386 391.246763,2737.92964 C391.246763,2737.97146 391.254528,2738.02194 391.262294,2738.07386 L391.296809,2738.00391 C391.322696,2738.09621 391.307164,2738.15967 391.278689,2738.21231 C391.285592,2738.32335 391.259706,2738.41061 391.113017,2738.3796 L391.141492,2738.32552 C390.915418,2738.40123 390.526261,2738.31903 390.357137,2738.28225 L390.354548,2737.93685 C390.521084,2737.92603 390.688482,2737.90801 390.865371,2737.87411 C390.294147,2737.79552 391.028455,2737.6549 390.125023,2737.51717 C390.4719,2737.38738 391.389137,2737.3369 391.352896,2737.22008 C391.058656,2737.27489 390.85588,2737.37584 390.341605,2737.22657 C391.313204,2737.10183 392.325358,2737.09389 393.321117,2737.27777 C393.284876,2737.33257 393.186508,2737.38594 393.072609,2737.43641 C394.366923,2737.029 396.31012,2737.135 397.177311,2736.66196 L396.794194,2736.5675 C396.481833,2736.69801 395.847619,2736.71244 395.595659,2736.59129 C396.567258,2736.46727 394.906221,2736.16152 395.933043,2735.96466 C397.347298,2735.75555 398.602783,2736.26248 399.374194,2735.74185 C398.030696,2735.68921 396.21693,2735.41015 395.671592,2735.64089 L396.538783,2735.66181 L394.558482,2736.29132 C394.482548,2736.05696 392.81202,2736.43914 392.844809,2736.05913 C393.526482,2735.99134 394.148615,2735.99567 394.681873,2735.95673 C394.55503,2735.79377 392.857753,2735.86876 392.140702,2735.81973 L393.044134,2735.95745 C391.430555,2736.26752 389.370007,2736.16441 387.805612,2736.40092 C389.036074,2736.10239 386.24208,2736.14061 387.228348,2735.82621 C387.629585,2735.62503 388.278468,2735.93582 388.092087,2735.84857 C388.215478,2735.5111 387.13602,2735.78079 386.819344,2735.53057 C386.653672,2735.74978 385.055625,2735.86876 385.997886,2736.12403 C385.681211,2736.03173 385.134147,2736.12403 384.595712,2736.15575 C384.478361,2736.01226 384.47491,2735.83703 384.388622,2735.66181 C386.03499,2735.30054 387.677043,2734.92918 388.520074,2734.76765 L388.112796,2734.96884 C389.360515,2734.47994 390.618589,2734.98759 391.901686,2734.61767 C391.848187,2734.6905 391.702361,2734.71862 391.941378,2734.73376 C393.526482,2734.80515 394.156381,2734.12155 395.429124,2734.43884 L395.270355,2734.65588 C395.378214,2734.62992 396.130642,2734.45109 395.981365,2734.20881 C394.913987,2734.28885 394.712074,2734.38908 393.757732,2734.32346 C394.148615,2734.12588 394.999411,2733.96075 395.624997,2733.95931 L395.694027,2733.57713 C396.498227,2733.17332 397.316234,2733.76534 398.116983,2733.36225 L397.177311,2733.10554 C397.20406,2733.08895 397.278268,2733.07958 397.337806,2733.0666 C396.912408,2733.10554 396.545686,2733.15601 396.445592,2733.24687 C395.030475,2733.45455 394.303933,2732.90796 394.076134,2732.70173 C393.413445,2732.57842 394.314288,2732.22004 394.23404,2731.98496 C393.170114,2732.065 393.231378,2732.48972 392.164863,2732.56905 C391.884428,2732.51857 391.981933,2732.44141 392.107913,2732.39959 L391.395177,2732.59356 C391.355485,2732.4753 389.530502,2732.38877 390.610823,2732.11836 C390.772181,2732.1299 391.070736,2732.11836 391.301987,2732.13495 C389.813525,2731.85949 387.240428,2731.55663 387.321538,2731.1283 C386.509572,2731.03312 386.735645,2731.24152 385.443057,2731.11388 C384.843358,2731.41674 385.490515,2731.72897 384.078849,2731.93737 L385.19196,2732.0888 C385.421485,2732.03039 385.612181,2731.9554 385.862415,2731.90708 L384.702709,2731.94314 C385.435291,2731.8018 385.304997,2731.63956 385.520716,2731.34824 C387.304281,2731.31867 387.794395,2731.84795 388.698689,2731.98785 C388.144722,2732.21787 387.189518,2732.15153 387.545886,2732.52001 C386.653672,2732.19191 386.55703,2732.83585 385.520716,2732.53371 L385.72004,2732.4342 C384.879599,2732.71975 384.763973,2732.36786 384.069358,2732.62601 C384.121993,2732.55318 384.028803,2732.50847 383.939926,2732.46377 C382.429893,2732.62817 384.397251,2732.6873 382.882903,2733.0428 C381.539405,2732.98728 382.446288,2732.43781 382.076114,2732.2597 C384.330809,2731.76431 382.030381,2731.64388 384.469732,2731.23863 C384.460241,2730.74108 383.503311,2730.67474 382.199505,2730.73819 C383.049438,2730.94947 381.658482,2731.4665 382.787987,2731.8119 C380.838749,2732.06068 381.001833,2733.02766 378.82307,2732.57265 L378.876569,2732.4991 L377.980903,2732.85892 L376.74699,2732.65846 C377.511498,2732.13639 378.452896,2732.3931 379.054321,2732.09024 C377.552916,2731.56673 377.038642,2732.60366 375.306849,2732.56039 C373.865846,2731.96405 377.069706,2732.22076 377.06194,2731.72393 C376.714201,2731.85444 375.769351,2731.59773 375.881525,2731.45207 C377.502007,2731.63956 376.867793,2731.1384 378.674656,2731.41386 C377.793659,2731.58331 378.809264,2731.5761 378.644455,2731.79604 C378.902455,2731.62081 380.593692,2731.5451 381.789639,2731.62874 C382.062308,2731.26387 380.753324,2731.32733 379.998308,2731.16147 C378.568522,2731.56024 377.086963,2730.84564 375.987659,2731.30569 C374.444836,2731.35328 375.872033,2730.95452 375.778843,2730.90981 C374.393064,2730.73819 375.177418,2731.21267 374.736488,2731.29704 C372.644013,2731.57322 372.410174,2730.86871 370.918261,2730.84347 C369.677445,2731.33309 366.655652,2731.16364 364.53988,2731.13263 C364.795291,2730.95957 364.514856,2730.82545 364.387151,2730.66248 C363.127351,2731.34319 363.580361,2731.06629 362.005612,2731.49462 L363.337893,2731.73835 C362.269652,2731.81839 361.410227,2732.29503 360.43,2731.92078 C361.344649,2732.36065 360.121953,2732.40752 359.040769,2732.47098 C358.730134,2732.36209 358.44107,2732.22653 358.174441,2732.07005 C359.002803,2731.88978 359.744013,2731.71023 360.883873,2731.64677 C359.523117,2731.38069 358.682676,2731.64605 357.845686,2731.84435 C357.766301,2731.78522 357.672247,2731.73907 357.599766,2731.67417 L357.536776,2731.91357 C357.372829,2731.94674 357.206294,2731.97414 357.034582,2731.99217 C356.89307,2731.83497 356.76105,2731.74412 356.676488,2732.00371 C356.367579,2732.00948 356.041411,2731.99001 355.664334,2731.90059 L356.40986,2732.35488 L356.056943,2732.54092 C355.932689,2732.5229 355.825692,2732.55679 355.721284,2732.59284 C355.497799,2732.58202 355.299338,2732.54164 355.138843,2732.43781 L355.287258,2732.40968 L354.975759,2732.39598 C354.973171,2732.31234 354.978348,2732.2359 354.936067,2732.3657 C354.947284,2732.37796 354.956776,2732.38589 354.966268,2732.39598 L353.702154,2732.33974 L353.894575,2731.74123 C352.805625,2731.51265 351.466441,2731.95612 351.841793,2732.13495 C350.698482,2731.98063 351.372388,2731.91141 351.206716,2731.63235 C351.851284,2731.44631 353.238789,2730.93073 353.635712,2731.41674 C353.542522,2731.37203 353.301779,2731.35545 353.246555,2731.42828 C356.222615,2731.70085 354.217291,2730.70214 355.702301,2730.54927 C354.928301,2730.50672 354.351037,2730.21757 353.523538,2730.37621 C353.140421,2730.38919 351.578615,2730.6257 350.790809,2730.83915 C351.872856,2730.56874 352.428548,2730.83626 353.277619,2731.04826 C352.55798,2730.99851 352.440629,2731.33454 351.823672,2731.13912 L352.024722,2731.03817 L351.238642,2731.25233 C351.170475,2731.04898 350.468957,2731.03096 350.110863,2730.97255 C350.120355,2730.95452 350.123806,2730.93505 350.134161,2730.91702 C350.121217,2730.93794 350.114314,2730.95092 350.103097,2730.97111 C349.84596,2730.92784 349.776067,2730.86366 350.276535,2730.68916 C349.326508,2730.75983 349.768301,2730.95668 349.19794,2731.08648 C348.734575,2730.84419 348.896796,2731.48308 348.463632,2731.46289 C348.440334,2731.58043 348.416174,2731.71167 348.392876,2731.84579 L347.876876,2731.71023 C348.046,2731.98929 346.995017,2731.87896 346.701639,2731.93521 C345.944896,2731.76863 346.43501,2731.11388 345.150187,2731.48452 L345.242515,2731.52923 C344.507344,2731.67057 344.071592,2731.75493 343.018883,2731.64388 C343.075833,2731.57178 343.365759,2731.51481 343.50986,2731.48741 C342.270769,2731.30497 340.41386,2731.72176 339.45089,2731.49173 C339.48109,2731.41097 339.53804,2731.33237 339.663157,2731.26099 L339.3879,2731.4802 C339.232582,2731.43693 339.097973,2731.37924 339.003057,2731.29127 C339.122134,2730.95668 339.735639,2731.15138 339.767565,2730.77064 C342.03693,2731.27036 341.357846,2730.15339 344.0319,2730.45048 C344.155291,2731.30209 346.286595,2729.95509 346.795692,2730.79444 C345.745572,2730.68411 344.35289,2731.19969 344.538408,2731.28983 C345.504829,2731.24224 346.858682,2731.22421 347.532589,2731.31218 C346.939793,2731.03384 347.129625,2730.56513 347.560201,2730.27381 C345.998395,2730.50961 343.159532,2729.93346 340.948843,2729.85774 L341.196488,2730.37044 C339.286943,2730.73819 341.428602,2729.89091 339.938415,2729.86351 L339.28004,2730.23992 L339.185987,2730.19521 L338.09186,2730.65527 C338.864997,2730.63219 338.509492,2730.26372 339.359425,2730.475 C340.115304,2730.64157 339.327498,2730.85501 339.110916,2731.14705 C338.594916,2730.99562 336.755264,2731.10018 337.890809,2730.75694 L335.874268,2731.2682 C335.888074,2731.07783 336.329003,2730.99274 336.533505,2730.89323 L335.077833,2730.98337 L335.130468,2730.91126 C334.10796,2731.10739 332.733398,2731.13479 331.803217,2731.37708 C331.585773,2731.34247 331.356247,2731.30497 331.111191,2731.26459 L331.458067,2731.55447 C330.95501,2731.66263 330.454542,2731.76719 330.098174,2731.71023 C330.121472,2731.42756 330.433833,2731.09658 331.229405,2730.91126 C331.639271,2731.20762 332.684214,2730.8204 333.454763,2730.79732 C332.460729,2730.61345 332.151819,2730.85934 331.374368,2730.88313 C331.92402,2730.65383 330.341505,2730.58316 330.3579,2730.39279 C330.461445,2730.24641 330.786749,2729.81015 331.785097,2729.99331 C333.275284,2730.01854 331.940415,2730.46202 332.380482,2730.37765 C332.775679,2730.86438 334.459151,2730.29184 335.362582,2730.43029 C335.457498,2730.475 335.161532,2730.53124 335.014843,2730.55936 C335.792294,2730.53557 337.427445,2730.53413 337.547385,2730.19738 L335.603324,2730.44687 C335.180515,2730.34159 336.203886,2730.14329 335.596421,2729.9486 C335.153766,2730.03225 334.62396,2730.07263 334.049284,2729.99619 L334.157144,2729.85053 C332.978455,2729.57796 331.136214,2729.68107 329.77891,2729.81736 C329.53903,2730.40649 329.045465,2730.81679 328.554488,2731.35545 C328.071278,2731.31939 327.591518,2731.27252 327.121251,2731.21267 C328.082495,2731.10451 328.566569,2730.71656 328.044528,2730.46202 L327.690749,2730.59181 L326.952127,2730.23415 C326.753666,2730.72377 325.604314,2730.67113 324.525719,2730.70647 C324.335886,2730.65311 324.156408,2730.59325 323.980381,2730.53268 C324.549017,2730.25867 325.126281,2730.01422 325.884749,2730.31563 L325.770849,2729.9623 C326.688087,2729.9111 327.431023,2730.26804 327.94012,2729.92048 L326.87188,2730.00052 L326.89,2729.81015 C326.133258,2729.83322 325.168562,2730.13176 324.470495,2729.92048 C324.155545,2730.0409 323.849224,2730.19665 323.406569,2730.30914 C323.345304,2730.28246 323.277137,2730.25939 323.218462,2730.23199 L323.15202,2730.36467 C322.833619,2730.42524 322.44101,2730.45913 321.950033,2730.45048 C321.848214,2730.40793 321.752435,2730.38702 321.666147,2730.40433 L321.692033,2730.37044 C320.578923,2731.02086 318.590856,2729.96807 317.749552,2730.25362 C317.263753,2730.90909 319.555552,2730.53052 320.111244,2730.79877 C319.418355,2731.05692 318.677144,2730.69998 319.271666,2731.08504 C319.006763,2731.13552 318.807438,2731.15282 318.645217,2731.15066 C318.560656,2731.1247 318.473505,2731.09081 318.380314,2731.04466 L318.380314,2731.04466 C318.378589,2731.04249 318.376,2731.04249 318.376,2731.04249 C318.327679,2731.01798 318.276769,2730.99274 318.227585,2730.96245 C318.227585,2730.98337 318.2319,2731.00139 318.235351,2731.0187 C318.159418,2731.00428 318.095565,2730.9949 318.033438,2730.98553 C317.818582,2730.85717 317.656361,2730.73747 316.970375,2730.96678 L317.453585,2731.07278 C317.432876,2731.12686 317.433739,2731.19032 317.405264,2731.24224 C317.254261,2731.27901 317.093766,2731.30353 316.926368,2731.31939 C316.802114,2731.30425 316.652836,2731.27973 316.457826,2731.23719 C316.178254,2731.00139 316.019485,2731.20041 315.829652,2731.44847 C315.72093,2731.47515 315.616522,2731.5076 315.524194,2731.55447 C315.507799,2731.63884 315.544903,2731.68427 315.605304,2731.71527 C315.444809,2731.8768 315.242896,2731.99722 314.947793,2731.9453 L314.070247,2730.97039 C312.48687,2730.41154 312.215926,2731.38862 309.922401,2731.39222 C309.409853,2731.22998 309.028462,2730.96173 308.832589,2730.6495 C308.958569,2730.6221 309.083686,2730.5983 309.2019,2730.5846 C309.047445,2730.57234 308.906796,2730.56153 308.773913,2730.55143 C308.693666,2730.3863 308.663465,2730.21036 308.698843,2730.0308 C309.791244,2729.92552 310.352114,2730.12527 311.34097,2729.73732 C312.078729,2729.9212 310.192482,2730.04162 311.000997,2730.10796 C310.315873,2730.18223 309.643692,2730.62859 309.314936,2730.93722 C311.084696,2731.09586 310.320187,2730.43245 311.826769,2730.26804 L312.95196,2730.61345 C313.632769,2730.54566 312.730201,2730.40577 312.689645,2730.2904 C313.518007,2730.19233 313.832094,2730.44471 314.458542,2730.44976 C314.274749,2730.35962 313.85194,2730.25362 313.957211,2730.10796 C314.996114,2730.40938 316.019485,2730.21324 316.983318,2730.77497 C316.426763,2730.50744 317.618395,2730.0921 318.06105,2730.00701 L316.079886,2729.45105 C313.562876,2729.62267 311.99503,2729.36235 309.277833,2729.6342 L309.438328,2729.41571 C305.158462,2728.73933 305.885866,2730.47211 302.224682,2730.4887 C302.124589,2729.94644 300.531719,2730.56369 300.669779,2730.03801 C301.775124,2730.07407 301.550776,2729.86928 301.235826,2729.61762 C300.594709,2729.80294 300.177077,2730.19521 298.939712,2729.99619 C299.396174,2729.72146 298.308087,2729.49287 299.520428,2729.38615 C297.844722,2729.27077 296.924033,2729.32125 296.06806,2729.79717 C293.332742,2730.26155 295.249191,2729.20732 292.531993,2729.47989 L292.930642,2729.27582 L291.239405,2729.35154 L291.79596,2729.6205 L289.79495,2729.94139 C288.565351,2730.2392 290.296281,2730.28174 290.136649,2730.50095 L290.550829,2730.10796 C291.359344,2730.2017 292.500067,2729.8599 292.669191,2730.13825 C291.348127,2730.19738 291.66394,2730.50672 291.139311,2730.6632 L292.398247,2730.50312 L292.808114,2730.79877 C294.058421,2730.80742 295.020528,2730.87376 295.766054,2730.54206 C295.249191,2730.39279 294.923023,2730.82905 294.461385,2730.60623 C295.075753,2730.11301 296.624615,2730.06686 298.129472,2729.90173 C298.169164,2730.01854 298.647197,2730.05244 298.444421,2730.15267 C298.413358,2730.19738 298.150181,2730.19305 298.003492,2730.17358 C298.117391,2730.39279 297.27695,2730.53413 298.69293,2730.66681 C298.256314,2730.96534 297.416736,2731.43188 297.212234,2731.63307 C295.697886,2731.08288 294.375097,2731.47587 292.821057,2731.75565 C292.499204,2731.76431 292.256736,2731.73114 292.211866,2731.59918 C291.815806,2731.67633 290.794161,2731.77152 291.509485,2731.93593 C291.353304,2731.94891 291.195398,2731.959 291.033177,2731.96405 L291.351579,2731.45929 C290.524943,2730.95813 291.124642,2732.23662 290.139237,2731.98568 L290.090054,2731.36554 C289.874334,2731.56817 289.696582,2731.65903 289.542127,2731.67705 C289.229766,2731.42828 288.894107,2731.25666 290.196187,2730.92496 C290.136649,2730.93649 289.568876,2730.99418 288.643873,2731.0836 C288.594689,2731.03889 288.543779,2730.99634 288.490281,2730.95885 C288.680977,2730.96678 288.802642,2730.95813 288.837157,2731.06269 C289.548167,2730.61345 288.501498,2730.50168 287.391839,2730.4649 L287.128662,2730.81968 C286.981973,2730.78867 286.845639,2730.7555 286.713619,2730.72161 C286.745545,2730.48725 286.867211,2730.25146 286.943144,2730.07335 L286.248528,2730.60047 C286.187264,2730.5846 286.124274,2730.56946 286.062147,2730.55504 L285.933579,2729.99619 C285.48402,2730.60479 285.360629,2730.2565 284.909344,2730.19521 L285.908555,2729.75174 L286.272689,2729.43158 L284.36487,2729.79717 C284.619418,2729.62411 283.699592,2729.67603 284.100829,2729.47412 C283.955866,2729.50152 283.274194,2729.57075 283.459712,2729.65944 L283.84887,2729.64862 C282.842756,2730.15267 283.451946,2730.34664 281.784007,2730.73098 C282.482936,2730.93289 282.9161,2730.8716 283.293177,2730.7418 L283.26988,2730.92351 L281.745177,2731.5999 C281.478548,2731.51697 281.219686,2731.43837 280.895244,2731.55735 L281.446622,2731.24584 C280.852963,2731.36122 280.51903,2731.32877 280.257579,2731.24152 C280.355946,2731.04682 280.313666,2730.82905 279.725184,2730.62859 C280.438783,2730.67618 280.531973,2730.72017 281.026401,2730.56369 L280.307625,2730.51393 C281.37414,2730.43461 283.004977,2729.93418 282.981679,2729.62699 C282.655512,2730.06397 281.972114,2729.6342 281.397438,2729.55633 C281.837505,2729.47124 282.772863,2729.23039 282.055813,2729.18064 C281.801264,2729.35514 279.85289,2729.6032 281.235217,2729.77409 C280.649324,2729.88803 279.862381,2730.10147 279.197967,2729.97888 C279.979732,2729.76544 279.465458,2729.61618 279.683766,2729.32413 C278.989151,2729.58156 279.011585,2729.88875 278.899411,2730.03513 C276.912207,2729.66882 276.106281,2728.88643 273.86798,2729.19217 C273.573739,2729.2477 275.225284,2729.05589 275.012154,2729.34649 C273.377003,2729.84693 272.884301,2728.81937 271.467458,2729.02849 L271.865244,2729.5145 C271.425177,2729.59815 270.355211,2729.67819 269.82713,2729.71929 C269.692522,2729.55633 268.1799,2729.22318 269.301639,2729.07103 C266.869191,2728.78836 267.149625,2730.10796 264.362535,2729.95509 C265.651672,2730.082 265.800087,2730.05388 266.813967,2730.04739 C266.126254,2730.21901 266.245331,2730.26083 266.392883,2730.35385 C266.106408,2730.369 265.830288,2730.3964 265.565385,2730.4375 C264.864729,2730.39928 264.267619,2730.43029 265.211605,2730.16637 C264.347866,2730.14546 262.617799,2730.10291 262.217425,2730.30482 L262.974167,2730.47211 C262.065559,2730.4649 261.171619,2730.62138 260.552074,2730.83987 C260.500301,2730.83121 260.457157,2730.83049 260.404522,2730.81968 C260.029171,2730.45264 259.414803,2730.26444 258.700341,2730.16276 C259.205124,2730.16348 259.794468,2730.18944 260.300977,2730.17502 C259.563217,2729.9897 259.990341,2729.83395 260.527913,2729.66593 C260.624555,2729.65295 260.689271,2729.62843 260.735003,2729.60031 C260.79713,2729.58012 260.855806,2729.56065 260.91707,2729.54046 L260.778147,2729.54118 C260.787639,2729.49287 260.757438,2729.4359 260.656482,2729.35658 C259.68402,2729.48061 258.941084,2729.12439 258.314635,2729.11934 C258.933318,2729.81231 256.182468,2729.27943 255.395525,2729.49287 L254.486916,2729.56065 L254.146943,2729.56209 C254.078776,2729.48566 254.175418,2729.3912 254.693144,2729.25347 C254.260843,2729.39047 252.818114,2729.34288 252.950997,2729.56498 L249.658261,2729.57507 C249.556441,2729.54695 249.453759,2729.51162 249.377826,2729.46186 C249.263926,2729.50513 249.24408,2729.54118 249.259612,2729.57579 L234.913431,2729.6205 C235.62099,2729.67531 236.233632,2729.83322 236.962763,2729.91038 C235.867773,2730.37044 238.159572,2729.99331 237.838582,2730.42812 C237.34588,2730.58604 236.625378,2730.53701 236.196528,2730.43101 C236.058468,2730.61994 236.491632,2730.79155 236.569291,2731.00283 L236.088669,2731.41097 C234.77192,2730.67618 232.888261,2731.27324 231.008916,2731.04249 C232.242829,2731.02086 233.493137,2730.96029 234.825418,2730.75838 C232.499104,2730.3315 236.35012,2730.40289 235.619264,2729.85702 L234.353425,2730.03801 L234.461284,2729.89091 L232.916736,2729.9385 C233.233411,2730.19016 233.471565,2730.20603 233.402535,2730.46923 C231.341124,2730.36683 232.752789,2730.15699 231.24103,2729.82457 L228.936288,2729.87216 L229.122669,2729.79284 C228.928522,2729.79933 228.843097,2729.83178 228.776656,2729.87505 L221.012495,2730.03874 C219.599104,2730.24857 221.793398,2730.51321 220.751043,2730.90044 C222.19291,2730.89972 224.249144,2731.11605 224.816054,2730.80958 L225.082682,2731.32877 L223.856535,2731.19825 L224.185291,2731.05115 C218.859619,2732.75797 216.453057,2730.31852 211.451826,2731.87752 C212.115378,2731.03817 210.466421,2732.31811 210.400843,2731.40088 C210.253291,2731.26603 210.108328,2731.16869 209.96509,2731.09802 C209.990977,2731.09297 210.023766,2731.08864 210.041886,2731.08504 L210.159237,2730.24929 C209.113431,2730.39279 209.10394,2730.77136 209.603545,2730.97904 C209.416301,2730.94515 209.232508,2730.95019 209.052167,2730.98913 C208.878729,2730.8853 208.903753,2730.73243 208.459371,2731.01437 C208.464548,2731.07566 208.526676,2731.11244 208.6121,2731.13984 C208.063311,2731.38646 207.542134,2731.80541 207.030448,2731.95756 C207.030448,2732.00227 207.017505,2732.05491 206.958829,2732.12629 L205.151104,2732.01597 C206.230562,2730.85645 203.849023,2732.9779 204.840468,2731.99145 C200.127438,2731.12398 193.976856,2732.00804 188.520027,2731.60783 L188.759906,2731.90564 C187.375853,2731.84867 185.655278,2732.21066 184.605157,2731.73474 C183.554174,2731.25882 182.308181,2732.49117 181.900903,2732.53876 C180.749826,2733.05218 179.703157,2732.03183 180.197585,2732.08447 C178.967124,2732.22653 177.810007,2733.28581 176.102375,2732.8308 C175.518207,2731.84795 171.443706,2733.79562 171.392796,2732.68803 L171.373813,2732.78105 C169.187284,2732.00155 167.124147,2733.32835 164.768495,2732.62241 C164.768495,2732.62241 164.813365,2732.54092 164.892749,2732.46593 L160.887278,2735.27458 C160.149518,2735.09647 159.314254,2734.86284 158.357324,2734.55205 L158.357324,2734.46552 C158.100187,2734.47994 158.101913,2734.65444 157.590227,2734.42225 L158.868147,2734.95658 C158.101913,2735.17579 157.433184,2735.59258 156.412401,2735.65171 C156.195819,2735.55508 156.121612,2735.37625 156.100903,2735.23636 L153.596836,2735.38274 L152.829739,2734.81885 C152.064368,2735.12459 152.413833,2736.31367 150.366227,2735.65099 C151.138502,2736.47664 149.350622,2736.14638 149.603445,2736.56605 C149.500763,2736.46438 149.265197,2736.31151 149.07709,2736.1709 C147.859572,2736.26608 145.56691,2736.49755 145,2736.92155 C145,2736.92155 149.763077,2738.65866 151.043585,2739.54128 C149.329913,2739.31702 150.592301,2739.64223 150.929686,2739.91985 L151.043585,2739.71434 C152.071271,2739.91552 152.071271,2740.43687 152.583819,2740.58109 C152.583819,2740.53927 152.568288,2740.48807 152.554482,2740.43687 L152.488903,2740.5061 C152.439719,2740.41452 152.469057,2740.35034 152.523418,2740.29842 C152.511338,2740.18738 152.558796,2740.0994 152.838368,2740.13041 L152.784007,2740.18521 C153.213719,2740.1095 153.954067,2740.19098 154.27592,2740.22776 L154.282823,2740.6633 C155.043017,2739.83476 159.397953,2741.92737 160.420462,2741.95477 C161.446421,2742.50352 162.720027,2741.81921 164.001398,2742.09394 C165.956676,2742.22806 165.109331,2742.68668 165.932515,2743.05516 C165.697813,2743.04001 165.407023,2742.98233 165.035124,2742.8619 C165.807398,2743.68755 164.019518,2743.35729 164.272341,2743.77697 C164.169659,2743.67529 163.934094,2743.52242 163.745987,2743.38181 C162.528468,2743.47699 160.235806,2743.70846 159.668896,2744.13247 C159.668896,2744.13247 164.431973,2745.86958 165.712482,2746.75219 C163.998809,2746.52793 165.261197,2746.85314 165.598582,2747.13076 L165.712482,2746.92525 C166.610736,2747.1012 166.723773,2747.5216 167.081003,2747.72062 C167.030094,2747.73864 166.994716,2747.75811 167.001619,2747.78047 C167.052528,2747.77109 167.099987,2747.75956 167.148308,2747.74874 C167.18196,2747.76388 167.213886,2747.78119 167.252716,2747.79201 C167.252716,2747.77398 167.24495,2747.7509 167.240635,2747.73071 C167.436508,2747.68961 167.644462,2747.66654 168.012047,2747.77326 C167.041311,2747.89873 166.029157,2747.90594 165.033398,2747.72278 C165.068776,2747.66798 165.168007,2747.61462 165.281043,2747.56342 C163.987592,2747.97084 162.043532,2747.86556 161.176341,2748.33859 L161.560321,2748.43306 C161.872682,2748.30182 162.506896,2748.2874 162.758856,2748.40854 C161.787258,2748.53329 163.448294,2748.83831 162.421472,2749.03589 C161.007217,2749.24428 159.75087,2748.73736 158.980321,2749.25798 C160.323819,2749.31135 162.136722,2749.59041 162.682923,2749.35966 L161.815732,2749.33803 L163.796033,2748.70851 C163.871104,2748.94359 165.542495,2748.56141 165.509706,2748.9407 C164.828033,2749.00849 164.205037,2749.00488 163.671779,2749.04382 C163.799485,2749.20679 165.4959,2749.13179 166.21295,2749.18083 L165.310381,2749.0431 C166.92396,2748.73303 168.984508,2748.83542 170.54804,2748.59891 C169.318441,2748.89744 172.112435,2748.85994 171.125304,2749.17362 C170.724067,2749.37552 170.076047,2749.06401 170.261565,2749.15198 C170.139037,2749.48873 171.218495,2749.21905 171.535171,2749.46999 C171.636127,2749.33586 172.273793,2749.23924 172.53697,2749.1253 L173.096114,2749.52984 C171.763833,2749.82404 170.528194,2750.0995 169.834441,2750.2329 L170.240856,2750.03099 C168.994,2750.51989 167.735064,2750.01225 166.452829,2750.38289 C166.505465,2750.31006 166.652154,2750.28193 166.412274,2750.26607 C164.828033,2750.1954 164.197271,2750.87828 162.924528,2750.56172 L163.083298,2750.34395 C162.975438,2750.36991 162.223873,2750.54946 162.373151,2750.79102 C163.440528,2750.7117 163.641579,2750.61147 164.59592,2750.67637 C164.205037,2750.87467 163.355104,2751.0398 162.728656,2751.04124 L162.660488,2751.42342 C161.856288,2751.82723 161.037418,2751.23522 160.236669,2751.63759 L161.176341,2751.89502 C161.150455,2751.9116 161.076247,2751.92097 161.016709,2751.93323 C161.441244,2751.89502 161.807967,2751.84382 161.90806,2751.75368 C163.323177,2751.54529 164.049719,2752.09259 164.278381,2752.29811 C164.940207,2752.42213 164.040227,2752.77979 164.119612,2753.01559 C165.184401,2752.93555 165.122274,2752.51083 166.188789,2752.43151 C166.469224,2752.48198 166.372582,2752.55914 166.246602,2752.60096 L166.959338,2752.40699 C166.99903,2752.52453 168.824013,2752.61106 167.742829,2752.88147 C167.581472,2752.87065 167.283779,2752.88147 167.052528,2752.86488 C168.54099,2753.14034 171.113224,2753.44392 171.032114,2753.87153 C171.844943,2753.96671 171.61887,2753.75904 172.910595,2753.88667 C173.511157,2753.58309 172.864,2753.27086 174.275666,2753.06246 L173.161692,2752.91175 C172.932167,2752.97016 172.742334,2753.04516 172.4921,2753.09275 L173.650943,2753.05741 C172.918361,2753.19875 173.049518,2753.36027 172.833799,2753.65232 C171.049371,2753.68188 170.56012,2753.1526 169.655826,2753.01271 C170.209793,2752.78268 171.164997,2752.84902 170.807766,2752.47982 C171.69998,2752.80864 171.797485,2752.1647 172.833799,2752.46684 L172.634475,2752.56635 C173.474916,2752.2808 173.590542,2752.63269 174.285157,2752.37382 C174.232522,2752.44665 174.324849,2752.49208 174.414589,2752.53607 C175.924622,2752.37166 173.957264,2752.31253 175.471612,2751.95775 C176.81511,2752.01255 175.908227,2752.56203 176.278401,2752.74086 C174.023706,2753.23625 176.324134,2753.35667 173.884783,2753.76192 C173.893411,2754.25947 174.851204,2754.32509 176.15501,2754.26236 C175.305077,2754.05036 176.696033,2753.53406 175.566528,2753.18865 C177.515766,2752.93988 177.351819,2751.97289 179.531445,2752.4279 L179.477946,2752.50073 L180.373612,2752.14163 L181.607525,2752.34137 C180.842154,2752.86344 179.901619,2752.60745 179.299331,2752.91031 C180.801599,2753.4331 181.315873,2752.3969 183.047666,2752.44016 C184.488669,2753.03578 181.284809,2752.77907 181.291712,2753.27591 C181.639452,2753.14611 182.584301,2753.40282 182.47299,2753.54848 C180.851645,2753.36027 181.48586,2753.86143 179.678997,2753.58597 C180.559993,2753.41724 179.544388,2753.42373 179.709197,2753.20452 C179.45206,2753.37902 177.75996,2753.45474 176.564876,2753.37181 C176.291344,2753.73596 177.601191,2753.67323 178.356207,2753.83908 C179.785993,2753.44031 181.267552,2754.15419 182.365993,2753.69414 C183.909679,2753.64727 182.482482,2754.04603 182.575672,2754.09074 C183.961452,2754.26236 183.176234,2753.78788 183.618027,2753.70279 C185.709639,2753.42733 185.944341,2754.13112 187.435391,2754.15708 C188.67707,2753.66746 191.698863,2753.83691 193.814635,2753.86792 C193.558361,2754.04026 193.838796,2754.17439 193.966502,2754.33807 C195.227164,2753.65736 194.773291,2753.93426 196.348903,2753.50593 L195.016622,2753.2622 C196.084863,2753.18144 196.944288,2752.7048 197.923652,2753.07905 C196.623298,2752.45386 199.645953,2752.62332 200.433759,2752.40987 C201.524435,2752.6363 202.619425,2752.17696 203.215672,2752.56203 L203.067258,2752.59015 L204.651498,2752.66081 L204.45994,2753.2586 C205.54889,2753.48791 206.887211,2753.04371 206.51186,2752.86488 C207.656033,2753.0192 206.981264,2753.08842 207.147799,2753.36821 C206.502368,2753.55353 205.114863,2754.06911 204.718803,2753.58381 C204.811993,2753.62852 205.052736,2753.6451 205.10796,2753.57227 C202.1319,2753.29898 204.136361,2754.29841 202.651351,2754.45128 C203.425351,2754.49383 204.003478,2754.78299 204.830114,2754.62363 C205.214094,2754.61137 206.7759,2754.37485 207.563706,2754.16141 C206.481659,2754.43109 205.925104,2754.16429 205.076033,2753.95229 C205.796535,2754.00204 205.913886,2753.66529 206.530843,2753.86071 L206.329793,2753.96238 L207.115873,2753.74822 C207.233224,2754.10083 209.271338,2753.89604 208.07798,2754.31139 C209.146221,2754.23207 208.444702,2753.99195 209.417164,2753.86792 L207.498127,2753.73596 L207.530916,2753.35667 C208.231572,2753.09852 208.399833,2753.3783 209.17297,2753.35378 L209.107391,2752.92906 L210.476776,2753.29033 C210.307652,2753.01127 211.359498,2753.12087 211.652876,2753.06463 C212.408756,2753.23192 211.919505,2753.88667 213.204328,2753.51531 L213.111137,2753.4706 C213.847171,2753.32927 214.28206,2753.2449 215.334769,2753.35667 C215.278682,2753.42878 214.988756,2753.48502 214.843793,2753.51314 C216.316722,2753.73019 218.679278,2753.08842 219.351458,2753.70856 C219.232381,2754.04387 218.618013,2753.84917 218.58695,2754.22919 C216.316722,2753.73019 216.995806,2754.84644 214.322615,2754.54935 C214.199224,2753.69847 212.067057,2755.04474 211.558823,2754.20539 C212.60808,2754.31644 214.001625,2753.80014 213.815244,2753.71 C212.849686,2753.75832 211.495833,2753.77634 210.821926,2753.68837 C211.414722,2753.96599 211.224027,2754.43542 210.793452,2754.72674 C212.355258,2754.49022 215.194983,2755.0671 217.405672,2755.14281 L217.157164,2754.63012 C219.066709,2754.26236 216.925913,2755.10964 218.4161,2755.13632 L219.074475,2754.75991 L219.168528,2754.80534 L220.261793,2754.34528 C219.489518,2754.36764 219.845023,2754.73684 218.99509,2754.52556 C218.239211,2754.35898 219.027017,2754.14482 219.242736,2753.8535 C219.759599,2754.00493 221.598388,2753.89965 220.462843,2754.24289 L222.480247,2753.73236 C222.465579,2753.922 222.025512,2754.00709 221.820147,2754.10732 L223.276682,2754.01719 L223.223184,2754.0893 C224.395833,2753.86432 226.034435,2753.86143 226.9301,2753.50089 C225.653043,2753.26725 226.400294,2753.1562 227.059532,2753.0329 C227.464221,2753.07977 227.86287,2753.13385 228.248575,2753.19875 C228.295171,2753.498 228.008696,2753.88234 227.12511,2754.0893 C226.715244,2753.79293 225.670301,2754.18015 224.899753,2754.20251 C225.892923,2754.38639 226.202696,2754.14122 226.979284,2754.1167 C226.430495,2754.34673 228.01301,2754.41667 227.996615,2754.60776 C227.892207,2754.75414 227.566903,2755.1904 226.569418,2755.00725 C225.079231,2754.98129 226.413237,2754.53782 225.973171,2754.6229 C225.577973,2754.13617 223.895365,2754.70871 222.991933,2754.57026 C222.897017,2754.52556 223.19212,2754.46931 223.338809,2754.44119 C222.562221,2754.46499 220.926207,2754.46643 220.80713,2754.80246 L222.750328,2754.55368 C223.174,2754.65896 222.150629,2754.85726 222.758094,2755.05195 C223.199886,2754.96759 223.729692,2754.9272 224.305231,2755.00364 L224.197371,2755.15002 C225.375197,2755.42187 227.217438,2755.31948 228.574742,2755.18247 C228.828428,2754.56305 229.35996,2754.13761 229.876823,2753.55353 C230.206441,2753.64583 230.5119,2753.74966 230.8001,2753.86143 C230.142589,2754.02007 229.874234,2754.32581 230.309124,2754.53782 L230.662903,2754.40874 L231.401525,2754.7664 C231.68196,2754.07487 233.858997,2754.46787 235.053217,2754.16141 C234.232622,2754.46643 233.526789,2755.10459 232.469766,2754.6842 L232.583666,2755.03825 C231.666428,2755.08873 230.923492,2754.73251 230.414395,2755.08008 L231.482635,2755.00004 L231.463652,2755.1904 C232.221258,2755.16661 233.18509,2754.86808 233.88402,2755.08008 C234.498388,2754.845 235.074789,2754.47075 236.716843,2754.55584 L236.662482,2754.63012 C237.774729,2753.97897 239.763659,2755.03248 240.604963,2754.74621 C241.090763,2754.09146 238.798963,2754.47003 238.243271,2754.20179 C238.936161,2753.94292 239.676508,2754.30058 239.081987,2753.91551 C240.69988,2753.60472 240.048408,2754.47941 241.38414,2754.03377 L240.627398,2753.86792 C241.227097,2753.56506 242.225445,2753.74822 242.830321,2753.44608 C242.864836,2753.25932 242.692261,2753.23048 242.40406,2753.24706 C242.694849,2753.1526 243.030508,2753.05669 243.443826,2752.98531 C243.83212,2753.02713 244.255793,2753.05958 244.733826,2753.07905 C244.821839,2753.08049 244.885692,2753.06463 244.942642,2753.04444 C244.97198,2753.05814 244.994415,2753.07544 245.021164,2753.09059 L244.733826,2753.07905 C244.845137,2753.09059 244.942642,2753.09635 245.03497,2753.09852 C245.652789,2753.43599 245.945304,2753.95517 245.688167,2754.47436 L245.401692,2754.38639 C244.839097,2754.44335 245.354234,2754.54791 245.573405,2754.64814 C245.55701,2754.6705 245.541478,2754.69285 245.522495,2754.71448 C244.809759,2754.76496 244.481003,2754.55584 243.895973,2754.5508 C244.079766,2754.64093 244.502575,2754.74621 244.396441,2754.89259 C243.358401,2754.59118 242.33503,2754.78731 241.371197,2754.22558 C241.92689,2754.49311 240.73612,2754.90846 240.292602,2754.99355 L242.273766,2755.54951 C244.790776,2755.37717 246.358622,2755.6382 249.076682,2755.36635 L248.915324,2755.58412 C253.195191,2756.26122 252.468649,2754.52844 256.12897,2754.51186 C256.229926,2755.05412 257.821933,2754.43686 257.683873,2754.96254 C256.578528,2754.92576 256.802876,2755.13127 257.117826,2755.38293 C257.759806,2755.19689 258.177438,2754.80534 259.41394,2755.00364 C258.958341,2755.2791 260.046428,2755.50768 258.833224,2755.61368 C260.509793,2755.72978 261.429619,2755.67858 262.286455,2755.20338 C265.021773,2754.739 263.105324,2755.79251 265.822522,2755.52066 L265.42301,2755.72401 L267.114247,2755.6483 L266.558555,2755.38005 L268.558702,2755.05916 C269.788301,2754.76063 268.058234,2754.71809 268.217003,2754.4996 L267.803686,2754.89259 C266.995171,2754.79885 265.853585,2755.14065 265.685324,2754.86231 C267.005525,2754.80246 266.689712,2754.49383 267.215204,2754.33735 L265.956268,2754.49743 L265.546401,2754.20179 C264.296094,2754.19241 263.333987,2754.12679 262.587599,2754.4585 C263.105324,2754.60776 263.430629,2754.1715 263.89313,2754.39432 C263.278763,2754.88754 261.730763,2754.93369 260.224181,2755.09882 C260.185351,2754.98129 259.707318,2754.94812 259.910094,2754.84788 C259.940294,2754.80246 260.204334,2754.80678 260.350161,2754.82697 C260.237124,2754.60776 261.077565,2754.46643 259.661585,2754.33375 C260.169819,2753.98618 261.228569,2753.40859 261.191465,2753.29033 C262.016375,2753.19442 263.17608,2753.15981 263.837906,2753.2824 L263.785271,2753.35523 C264.362535,2753.39489 265.450622,2753.17639 265.919164,2753.27374 C265.976114,2753.31917 266.036515,2753.36172 266.101231,2753.39489 L266.083973,2753.34585 C266.104682,2753.36388 266.13402,2753.37686 266.142649,2753.40138 C266.58099,2753.31629 267.793331,2753.20812 266.558555,2753.0091 L267.41194,2752.92329 C268.027171,2753.26365 267.679431,2753.84917 267.527565,2754.20611 L268.372321,2753.56578 L268.469826,2753.98979 C268.377498,2754.01719 268.275679,2754.04531 268.158328,2754.0756 C268.182488,2754.07055 268.295525,2754.05829 268.481043,2754.03882 L268.53713,2754.28255 C268.63895,2754.14482 268.723512,2754.06045 268.798582,2754.00637 C268.910756,2753.99483 269.038462,2753.98185 269.177385,2753.96887 C269.241237,2753.99123 269.307679,2754.02007 269.385338,2754.04531 C269.077291,2754.33447 269.639023,2754.45489 270.407846,2754.50681 C270.412161,2754.50825 270.414749,2754.51041 270.419064,2754.51186 L270.425104,2754.50825 C270.598542,2754.51979 270.77802,2754.52916 270.962676,2754.53493 L271.22499,2754.18088 C272.183645,2754.38062 272.756595,2754.6979 274.031926,2754.54358 L277.017478,2753.21966 C277.305679,2753.19154 277.59992,2753.16342 277.894161,2753.13673 C277.929538,2753.15548 277.978722,2753.16774 278.027043,2753.18144 L277.938167,2753.49079 L278.204796,2753.21966 C278.724247,2753.30186 279.498247,2753.26653 279.080615,2753.59968 C279.213498,2753.76336 278.773431,2753.84701 278.198756,2753.76913 C278.110742,2753.72515 278.253117,2753.69774 278.162515,2753.65232 C277.999431,2753.87153 277.930401,2754.134 278.629331,2754.37196 C277.91487,2754.32365 277.822542,2754.27966 277.327251,2754.43686 L278.046027,2754.4859 C276.979512,2754.56522 275.349538,2755.06638 275.371973,2755.37356 C275.699003,2754.93658 276.382401,2755.36635 276.957077,2755.44423 C276.516147,2755.5286 275.581652,2755.77016 276.297839,2755.81992 C276.553251,2755.64469 278.502488,2755.39736 277.119298,2755.22646 C277.705191,2755.11253 278.492134,2754.89836 279.156548,2755.02167 C278.374783,2755.23511 278.889057,2755.38438 278.670749,2755.67642 C279.365365,2755.41899 279.342067,2755.1118 279.455104,2754.96542 C281.442308,2755.33102 282.248234,2756.1134 284.486535,2755.80838 C284.779913,2755.75213 283.129231,2755.94466 283.341498,2755.65407 C284.977512,2755.15291 285.469351,2756.18118 286.887057,2755.97135 L286.488408,2755.48605 C286.928475,2755.40168 287.999304,2755.32236 288.526522,2755.28126 C288.66113,2755.44423 290.173753,2755.77737 289.052876,2755.92952 C291.485324,2756.21219 291.204027,2754.89259 293.99198,2755.04474 C292.70198,2754.91855 292.553565,2754.94667 291.540548,2754.95316 C292.621732,2754.68348 291.706221,2754.73612 291.825298,2754.39937 C292.474181,2754.7116 294.569244,2754.43542 293.142047,2754.83418 C294.005786,2754.8551 295.736716,2754.89692 296.13709,2754.69573 L295.380348,2754.52844 C296.192314,2754.53421 296.991338,2754.41018 297.595351,2754.22775 C298.385746,2754.23568 299.178729,2754.21909 299.847458,2754.25803 C299.859538,2754.25659 299.86903,2754.25515 299.880247,2754.25371 C300.268542,2754.32221 300.543799,2754.44407 300.774187,2754.5544 C300.832863,2754.98057 299.211518,2754.79164 298.052676,2754.82553 C298.790435,2755.01013 298.364174,2755.16661 297.826602,2755.3339 C297.72996,2755.34688 297.665244,2755.3714 297.619512,2755.39952 C297.557385,2755.41971 297.497846,2755.43918 297.437445,2755.46009 L297.576368,2755.45937 C297.566013,2755.50696 297.597077,2755.56465 297.697171,2755.64397 C298.669632,2755.51994 299.413431,2755.87616 300.03988,2755.88121 C299.421197,2755.18824 302.171184,2755.72113 302.95899,2755.50768 L303.867599,2755.43918 L304.207572,2755.43774 C304.275739,2755.51417 304.179097,2755.60936 303.660508,2755.74636 C304.092809,2755.61008 305.536401,2755.65767 305.402656,2755.43557 L308.695391,2755.42548 C308.798074,2755.4536 308.900756,2755.48894 308.976689,2755.53869 C309.090589,2755.4947 309.109572,2755.45937 309.094903,2755.42404 L323.441084,2755.37933 C322.732662,2755.32453 322.120883,2755.16661 321.39089,2755.09017 C322.486742,2754.63012 320.19408,2755.00725 320.515933,2754.57243 C321.007773,2754.41379 321.728274,2754.46354 322.157987,2754.56954 C322.317619,2754.34961 321.705839,2754.15492 321.776595,2753.89244 C319.967144,2753.61626 319.690161,2754.66761 317.922127,2754.50753 C317.99202,2754.24433 318.538221,2754.0143 317.381104,2754.04964 L317.675344,2753.99339 C315.821023,2754.2876 316.230027,2753.39777 315.063418,2754.11958 L315.093619,2753.73957 C314.253177,2754.02584 312.617164,2754.028 311.694749,2754.08064 L311.749973,2754.00709 C309.16307,2754.44191 310.297753,2754.09939 307.392448,2754.28183 L308.729906,2753.83836 C307.728107,2753.6552 307.502033,2754.13689 306.782395,2754.08785 C306.825538,2754.02656 306.723719,2753.82394 307.080087,2753.71793 L303.821866,2754.34312 C302.981425,2754.63012 303.993579,2754.6229 304.123873,2754.78443 C303.812375,2755.03104 302.286809,2754.88827 302.206562,2754.65391 C302.411926,2754.55224 303.239425,2754.45489 302.71911,2754.30562 L301.512809,2754.91134 C299.906997,2754.53421 302.732916,2754.11526 303.5259,2753.90181 C303.21699,2753.88667 302.957264,2753.89244 302.714796,2753.90614 C304.973806,2753.61842 306.96101,2753.3545 309.652321,2753.11943 C311.437612,2754.24577 313.920107,2753.28816 316.083338,2753.2348 C316.118716,2753.2622 316.176528,2753.29105 316.285251,2753.32422 C316.310274,2753.28961 316.345652,2753.2622 316.377579,2753.23264 C316.845258,2753.24057 317.295679,2753.29465 317.716763,2753.43382 L318.380314,2752.86993 L318.385492,2752.86993 C319.509819,2753.4944 321.045739,2753.1526 322.639472,2753.18216 C322.641197,2753.19731 322.650689,2753.20884 322.649826,2753.22543 C322.990662,2753.25788 323.344441,2753.27014 323.699946,2753.27374 C324.04596,2753.32999 324.39111,2753.41363 324.731946,2753.54559 C325.286776,2753.29754 325.578428,2753.21966 325.70786,2753.19947 C325.680247,2753.19154 325.648321,2753.17712 325.616395,2753.15548 C326.076308,2753.09635 326.51206,2753.01775 326.915886,2752.91608 C327.146274,2752.9817 327.295552,2753.10356 327.2619,2753.35955 L327.097953,2753.4331 C327.003037,2754.15131 329.06186,2753.0978 329.784087,2753.71938 L329.388027,2752.95069 L330.614174,2753.08049 L330.286281,2753.22831 C330.559813,2753.14034 330.821264,2753.07039 331.08099,2753.00333 C332.225164,2753.11582 333.291679,2753.28456 333.592823,2753.05958 C334.017358,2752.90166 334.537672,2752.75744 335.08905,2752.61683 C337.639712,2752.75167 339.789137,2753.40859 343.018883,2752.40194 C342.356194,2753.24057 344.005151,2751.96136 344.069866,2752.87786 C345.102729,2753.82249 346.010475,2753.05453 346.873351,2752.57573 C347.210736,2752.56563 347.555023,2752.55986 347.894134,2752.55698 C347.957124,2752.57356 348.015799,2752.59159 348.06412,2752.61394 C348.05204,2752.59375 348.056355,2752.57428 348.075338,2752.55554 C348.243599,2752.55481 348.409271,2752.55554 348.569766,2752.55626 C348.572355,2752.51299 348.510227,2752.48198 348.424803,2752.45602 L348.404094,2752.43007 C348.404094,2752.43007 348.382522,2752.43511 348.364401,2752.43944 C348.352321,2752.43656 348.339378,2752.43367 348.326435,2752.43079 C348.163351,2752.33055 348.00113,2752.28368 347.838047,2752.27503 C347.83891,2752.24907 347.86911,2752.21951 347.957124,2752.18057 L349.272147,2752.25989 C349.210883,2752.30099 349.180682,2752.34786 349.194488,2752.40194 C348.926997,2752.70264 349.040033,2752.64279 349.247987,2752.48847 C349.536187,2752.45314 349.850274,2752.4142 350.173853,2752.37382 C354.81095,2753.08554 360.70008,2752.28657 365.950682,2752.67163 L365.711666,2752.3731 C367.094856,2752.43007 368.816294,2752.06808 369.866415,2752.54472 C370.917398,2753.01992 372.162528,2751.78757 372.570669,2751.73998 C373.720883,2751.22656 374.768415,2752.24763 374.273987,2752.19499 C375.002254,2752.11062 375.706361,2751.71042 376.512288,2751.4876 C376.691766,2751.52293 376.870381,2751.55827 377.04986,2751.60514 C377.478709,2752.05077 380.585926,2752.00967 383.029592,2751.83516 L383.007157,2751.94477 C383.025278,2751.90295 383.031318,2751.86978 383.042535,2751.83444 C383.464482,2751.80344 383.859679,2751.76882 384.224676,2751.73205 C386.007378,2751.87627 387.755565,2751.07297 389.703077,2751.65706 C389.703077,2751.65706 389.657344,2751.73854 389.57796,2751.81281 L391.672161,2750.34467 C391.673023,2750.34467 391.673886,2750.34467 391.673886,2750.34395 L391.541003,2750.53287 C391.892194,2750.73478 392.090656,2748.77557 395.977913,2751.16888 L395.977913,2751.25613 C396.112522,2751.24099 396.111659,2751.0672 396.380876,2751.29867 L395.708696,2750.76434 C396.111659,2750.54585 396.463712,2750.12834 396.999559,2750.06921 C397.114321,2750.16656 397.152288,2750.34539 397.164368,2750.48528 L398.480254,2750.3389 L398.883217,2750.90279 C399.285318,2750.59705 399.102388,2749.40725 400.178395,2750.06993 C399.772843,2749.245 400.712515,2749.57526 400.579632,2749.15487 C400.633993,2749.25726 400.757385,2749.40941 400.856615,2749.55075 C401.496007,2749.45484 402.701445,2749.22409 403,2748.80009 C403,2748.80009 402.291579,2748.30831 401.527933,2747.71629 C401.993886,2747.61606 402.380455,2747.49852 402.568562,2747.35791 L402.568562,2747.35791 Z" id="Fill-29-Copy-4" transform="translate(274.000000, 2742.500000) rotate(-180.000000) translate(-274.000000, -2742.500000) "></path>
        </g>
    </g>
</svg>