<svg id="Layer_1" data-name="Layer 1" xmlns="http://www.w3.org/2000/svg" xmlns:xlink="http://www.w3.org/1999/xlink" viewBox="0 0 128 5.5"><defs><style>.cls-1{fill:#fff;}.cls-1,.cls-2{fill-rule:evenodd;}.cls-2{fill:#dfa826;}.cls-3{mask:url(#mask);}.cls-4{mask:url(#mask-2-2);}.cls-5{mask:url(#mask-3);}</style><mask id="mask" x="105.37" y="0" width="0.49" height="0.31" maskUnits="userSpaceOnUse"><g transform="translate(78.29 0.42)"><g id="mask-2"><polygon id="path-1" class="cls-1" points="27.57 -0.11 27.07 -0.11 27.07 -0.42 27.57 -0.42 27.57 -0.11"/></g></g></mask><mask id="mask-2-2" x="3.74" y="0.58" width="124.26" height="4.73" maskUnits="userSpaceOnUse"><g transform="translate(78.29 0.42)"><g id="mask-4"><polygon id="path-3" class="cls-1" points="49.7 4.89 -74.55 4.89 -74.55 0.16 49.7 0.16 49.7 4.89"/></g></g></mask><mask id="mask-3" x="56.56" y="0" width="0.49" height="0.31" maskUnits="userSpaceOnUse"><g transform="translate(78.29 0.42)"><g id="mask-6"><polygon id="path-5" class="cls-1" points="-21.24 -0.11 -21.73 -0.11 -21.73 -0.42 -21.24 -0.42 -21.24 -0.11"/></g></g></mask></defs><title>menu-bg</title><g id="Page-1"><g id="HOME"><g id="Group-6"><g id="Group-374"><path id="Fill-1" class="cls-2" d="M17.76,1.44c.12,0,.16-.13.17-.19H16.55c.05.13.44.3.18.38.12.14.48,0,.53-.16l-.1.2c.32-.26.54.25.33.4h0l.88-1c-.33-.06-.25.34-.64.35" transform="translate(78.29 0.42)"/><path id="Fill-3" class="cls-2" d="M46.85,2.12A.64.64,0,0,0,47,2c-.19,0-.21,0-.19.08" transform="translate(78.29 0.42)"/><path id="Fill-5" class="cls-2" d="M19.17,1.16,19.46,1a1,1,0,0,0-.29.16" transform="translate(78.29 0.42)"/><path id="Fill-7" class="cls-2" d="M16.49,3.09s0,0,0,0L16.62,3h0l-.13,0" transform="translate(78.29 0.42)"/><path id="Fill-9" class="cls-2" d="M12.87,5.08l.78-.25c-.1.12.28.08.11.22.06,0,.34-.07.26-.13h-.15c.41-.35.16-.49.84-.76a.65.65,0,0,0-.83.15l-.21,0-.65.5Z" transform="translate(78.29 0.42)"/><path id="Fill-11" class="cls-2" d="M38.67,3.12l0-.07s-.17.06,0,.07" transform="translate(78.29 0.42)"/><path id="Fill-13" class="cls-2" d="M19.42,1l-.21.12.11,0a.28.28,0,0,1,.1-.14" transform="translate(78.29 0.42)"/><path id="Fill-15" class="cls-2" d="M17.72,2l-.25.11c.26,0,.56-.07.93-.14Z" transform="translate(78.29 0.42)"/><path id="Fill-17" class="cls-2" d="M19.51,2c.3-.13.18-.32.64-.33-.18.12-.22.39.21.42A25.48,25.48,0,0,0,23.18.82C23.21,1,24,1,24.4,1a1.11,1.11,0,0,1-.74.29l.75,0,.1-.39c1.08,0-.26.31.23.38.3,0,.4-.18.59-.22-.85.12.12-.49-.75-.41.13-.26.63-.29.92-.22.33.26-.29.19-.37.44.35,0,.29-.09.43-.23.55.06,1.13-.31,1.45,0,.39-.06.37-.18.59-.31,0-.25-.49-.17-.68-.32a.07.07,0,0,1,0,.07L26.61.09c.32.1-.05.27-.22.29s-.38,0-.34,0l.19-.06c-.25-.09-.54.2-.8,0,0-.06.09-.09.1-.13a3.73,3.73,0,0,1-1,.31l.24-.27c-.34.3-1.11.21-1.65.05.06,0,.17.08.1.13-.31.07-.55-.12-.4-.26-.31.23-1.18-.19-1.59.1L19.32,1.63a.9.9,0,0,1,.23-.08c.17.24.27.21,0,.44" transform="translate(78.29 0.42)"/><path id="Fill-19" class="cls-2" d="M22.12,1.09l-.08,0,.08,0" transform="translate(78.29 0.42)"/><path id="Fill-21" class="cls-2" d="M23.87,1.09h0s0,0,0,0" transform="translate(78.29 0.42)"/><path id="Fill-23" class="cls-2" d="M19.4,2l-.18.1.14,0c.05,0,.07,0,0-.06" transform="translate(78.29 0.42)"/><path id="Fill-25" class="cls-2" d="M19.32,2.12l0-.06-.08,0s0,.06,0,.08" transform="translate(78.29 0.42)"/><path id="Fill-27" class="cls-2" d="M29.39,2.1l.11,0a.19.19,0,0,0-.11,0" transform="translate(78.29 0.42)"/><path id="Fill-29" class="cls-2" d="M22.15,1.56c.11.14-.36.48.26.31-.05,0,0,0-.07.07.4.2.56-.14.9-.14s-.34.22-.14.28c.42-.13,1.34.17,1.31-.36a.39.39,0,0,1,.45.18c.49-.57,1.83.24,1.82-.49a1.89,1.89,0,0,0-.73.17v-.5c-.39,0-.05.38-.6.39l.16,0a5.35,5.35,0,0,1-1.57.1c.06-.15-.28-.18-.23-.42a1.11,1.11,0,0,0-.8.35c-.2-.08-.51.14-.76,0" transform="translate(78.29 0.42)"/><path id="Fill-31" class="cls-2" d="M19.28,2.08h0" transform="translate(78.29 0.42)"/><path id="Fill-33" class="cls-2" d="M-22.08,3.09l-.09,0,.09,0" transform="translate(78.29 0.42)"/><path id="Fill-35" class="cls-2" d="M3.75,3.08h0" transform="translate(78.29 0.42)"/><path id="Fill-37" class="cls-2" d="M.1,4.05l-.25.06A.61.61,0,0,0,.1,4.05" transform="translate(78.29 0.42)"/><path id="Fill-39" class="cls-2" d="M-8.24,3.11l-.14-.06s.06.05.14.06" transform="translate(78.29 0.42)"/><path id="Fill-41" class="cls-2" d="M0,4.08H0l0,0Z" transform="translate(78.29 0.42)"/><path id="Fill-43" class="cls-2" d="M5.45,4.09l.11,0-.11,0" transform="translate(78.29 0.42)"/><path id="Fill-45" class="cls-2" d="M11.83,4.1l.24,0a.89.89,0,0,0-.24,0" transform="translate(78.29 0.42)"/><path id="Fill-47" class="cls-2" d="M6.41,3.1l0,0s0,0,0,0" transform="translate(78.29 0.42)"/><path id="Fill-49" class="cls-2" d="M-9.27,1.06a.1.1,0,0,0,.08,0s0,0-.08,0" transform="translate(78.29 0.42)"/><path id="Fill-51" class="cls-2" d="M-24.86,2.08h0l0,0Z" transform="translate(78.29 0.42)"/><path id="Fill-53" class="cls-2" d="M11,1.11l.08-.06c-.06,0-.08.05-.08.06" transform="translate(78.29 0.42)"/><path id="Fill-55" class="cls-2" d="M8.25,4.07v0s0,0,0,0" transform="translate(78.29 0.42)"/><path id="Fill-57" class="cls-2" d="M.86,1.05l.07.06s0,0-.07-.06" transform="translate(78.29 0.42)"/><path id="Fill-59" class="cls-2" d="M9.14,1.11l.09-.06-.09.06" transform="translate(78.29 0.42)"/><path id="Fill-61" class="cls-2" d="M-2.85,2.1l.13,0a.2.2,0,0,0-.13,0" transform="translate(78.29 0.42)"/><path id="Fill-63" class="cls-2" d="M-5.48,2.07l-.13,0,.13,0" transform="translate(78.29 0.42)"/><path id="Fill-65" class="cls-2" d="M16.55,2.09l.82,0h.1c0-.06-.93-.16-.92,0" transform="translate(78.29 0.42)"/><path id="Fill-67" class="cls-2" d="M.9,3.08h0" transform="translate(78.29 0.42)"/><path id="Fill-69" class="cls-2" d="M-.07,3.47l.19-.09a.91.91,0,0,0-.62.16s0,0-.07-.09c-.31,0-.47.22-.31.34l.1-.06.22.16c.08-.31.71-.13,1.05-.27-.24.14-.44.42-.75.23l0,.16C-.49,4-.7,3.88-.85,4l.31,0v.08c.22,0,.5-.14.7,0A1.13,1.13,0,0,1,1,3.8v0c.32-.29.89.18,1.14,0,.14-.29-.53-.12-.69-.24.2-.12.42,0,.25-.13.46-.14.28.25.66.05L2.1,3.49c.18-.14.47-.05.64-.19,0-.2-.29,0-.62-.06l.14-.16-.66.17c-.19.25,0,.25-.43.43A.7.7,0,0,1,.9,3.26a1.45,1.45,0,0,1-1,.21" transform="translate(78.29 0.42)"/><polygon id="Fill-71" class="cls-2" points="53.28 1.55 53.57 1.47 53.54 1.45 53.25 1.53 53.28 1.55"/><path id="Fill-73" class="cls-2" d="M42.34,4c-.8,0-1.53,0-2.76.1Z" transform="translate(78.29 0.42)"/><path id="Fill-75" class="cls-2" d="M-10.15,3.1l-.28-.2c-.63.09-.91.27-1.56.32.85.2,1.12-.33,1.84-.12" transform="translate(78.29 0.42)"/><path id="Fill-77" class="cls-2" d="M-10.17,3.9c-.66,0-.3.18-.9.16l.29.2c-.16-.19.76-.22.61-.36" transform="translate(78.29 0.42)"/><polygon id="Fill-79" class="cls-2" points="64.55 1.45 64.4 1.49 64.37 1.55 64.55 1.45"/><polygon id="Fill-81" class="cls-2" points="63.84 1.46 63.54 1.54 64.46 1.5 63.84 1.46"/><path id="Fill-83" class="cls-2" d="M-11,2l-.24.06c.05,0,.38.07.24-.06" transform="translate(78.29 0.42)"/><polygon id="Fill-85" class="cls-2" points="71.96 4.45 71.66 4.53 71.69 4.55 71.99 4.47 71.96 4.45"/><path id="Fill-87" class="cls-2" d="M-8.26,1c-.26,0-.21.08-.17.14,0-.1.49,0,.17-.14" transform="translate(78.29 0.42)"/><path id="Fill-89" class="cls-2" d="M1.39,4c-.34,0-.29.16-.49.2.38,0,.46,0,.92,0-.36,0-.45-.08-.43-.19" transform="translate(78.29 0.42)"/><path id="Fill-91" class="cls-2" d="M.06,4.08h0" transform="translate(78.29 0.42)"/><polygon id="Fill-93" class="cls-2" points="72.78 1.44 72.61 1.59 72.88 1.41 72.78 1.44"/><path id="Fill-95" class="cls-2" d="M2.6,4.05c0,.11.35,0,.27,0a.77.77,0,0,1-.27,0" transform="translate(78.29 0.42)"/><path id="Fill-97" class="cls-2" d="M.9,2.07A5.81,5.81,0,0,0,0,2c.34,0,.62.23.92,0" transform="translate(78.29 0.42)"/><path id="Fill-99" class="cls-2" d="M2.88,4.16c-.08,0-.2-.08-.15-.18-.12.06-.28.26.15.18" transform="translate(78.29 0.42)"/><polygon id="Fill-101" class="cls-2" points="79.31 2.46 79.02 2.54 79.37 2.5 79.31 2.46"/><path id="Fill-103" class="cls-2" d="M0,2c1.3.29-.1-.41.86-.36C.34,1.55.06,1.2.12,1.08c-.59.28.93.69-.08.93" transform="translate(78.29 0.42)"/><path id="Fill-105" class="cls-2" d="M.82,1.07l.16,0-.16,0" transform="translate(78.29 0.42)"/><path id="Fill-107" class="cls-2" d="M5.45,2.1l.11,0-.11,0" transform="translate(78.29 0.42)"/><path id="Fill-109" class="cls-2" d="M1.82,1.26c.27-.14,1-.13.92-.34a.86.86,0,0,0-.6.1l.09,0Z" transform="translate(78.29 0.42)"/><path id="Fill-111" class="cls-2" d="M8.35,4l-.22.08.27,0c-.08,0,.06-.18-.05-.1" transform="translate(78.29 0.42)"/><path id="Fill-113" class="cls-2" d="M4.58,2.05a5.55,5.55,0,0,0-.92,0c.13,0,1,.07.92,0" transform="translate(78.29 0.42)"/><polygon id="Fill-115" class="cls-2" points="87.68 4.5 87.64 4.48 87.29 4.52 87.68 4.5"/><polygon id="Fill-117" class="cls-2" points="90.07 4.52 90.13 4.56 90.42 4.48 90.36 4.44 90.07 4.52"/><path id="Fill-119" class="cls-2" d="M9.19,1.17c-.23-.16-.25,0-.77,0L9,1c-.46,0-.82.16-.7.2Z" transform="translate(78.29 0.42)"/><path id="Fill-121" class="cls-2" d="M28.51,4.48a.8.8,0,0,1,.53,0c.05-.1-.15-.19-.12-.31-.58-.13-.67.36-1.23.29,0-.13.19-.23-.18-.22l.1,0c-.59.13-.46-.28-.83.06V4.09a3.94,3.94,0,0,1-1.09.16l0,0c-.82.21-.46,0-1.39.13l.43-.2c-.32-.09-.39.13-.62.11,0,0,0-.12.09-.17l-1,.29c-.26.13.06.13.1.2s-.59,0-.61-.06.33-.09.16-.16l-.38.28c-.51-.17.39-.37.64-.46-.52,0-.68.14-1.23.14a.82.82,0,0,1,.35.16c0,.19-.5.11-.87.12.24.09.1.16-.07.24a.09.09,0,0,0-.06,0l-.06,0h0s0,0,0,.08c.31-.06.55.11.75.11-.2-.32.68-.07.93-.17l.29,0h.11s0,.07-.18.14c.14-.06.6,0,.56-.15h1.05l.09,0s0,0,0,0l4.58,0c-.23,0-.42-.1-.66-.14.35-.21-.38,0-.28-.23" transform="translate(78.29 0.42)"/><path id="Fill-123" class="cls-2" d="M22,4.08h.22a.77.77,0,0,0-.22,0" transform="translate(78.29 0.42)"/><path id="Fill-125" class="cls-2" d="M30.54,4.08h0" transform="translate(78.29 0.42)"/><path id="Fill-127" class="cls-2" d="M20.46,4c.24.09-.18.13-.22.19h.85c0-.07.08-.14.07-.2Z" transform="translate(78.29 0.42)"/><path id="Fill-129" class="cls-2" d="M20.72,4.14A1.8,1.8,0,0,1,21.16,4h-.92c0,.05.11.09.48.12" transform="translate(78.29 0.42)"/><polygon id="Fill-131" class="cls-2" points="99.62 1.47 99.29 1.53 99.42 1.52 99.62 1.47"/><path id="Fill-133" class="cls-2" d="M23.92,2.1a2.18,2.18,0,0,0-.92,0c.57,0,.32,0,.92,0" transform="translate(78.29 0.42)"/><polygon id="Fill-135" class="cls-2" points="101.13 1.54 101.46 1.48 101.43 1.46 101.13 1.54"/><path id="Fill-137" class="cls-2" d="M33.05,4.09h.16a.39.39,0,0,0-.16,0" transform="translate(78.29 0.42)"/><path id="Fill-139" class="cls-2" d="M34.9,3.25c-.47,0-1.15-.19-1.26.12a.12.12,0,0,0-.07-.15l-.28.33.27.1a1.32,1.32,0,0,1-1.39.05c.53-.11.27-.5,1-.29,0-.1-.16-.27,0-.33a10.53,10.53,0,0,0-2.53.27c.7.33-.47.27-.24.68l.38-.13,0,.11.46,0c-.09-.19-.16-.2-.14-.4.62.08.19.24.65.49l.7,0-.06.06A.12.12,0,0,0,32.47,4l2.35-.12c.43-.16-.23-.36.08-.65" transform="translate(78.29 0.42)"/><path id="Fill-141" class="cls-2" d="M40.49,4.09s0,0,0,0Z" transform="translate(78.29 0.42)"/><path id="Fill-143" class="cls-2" d="M40,4.08,40.13,4l-.55.22.85,0L40.5,4a.83.83,0,0,1-.5.06" transform="translate(78.29 0.42)"/><path id="Fill-145" class="cls-2" d="M39.58,4c0-.13-.7-.05-.86,0l-.07.37c.61-.07.58-.26.25-.34.56-.09.29.2.68,0" transform="translate(78.29 0.42)"/><polygon id="Fill-147" class="cls-2" points="114.21 4.55 114.32 4.47 114.06 4.45 114.21 4.55"/><path id="Fill-149" class="cls-2" d="M35.76,4.14l.26,0A.3.3,0,0,0,35.94,4Z" transform="translate(78.29 0.42)"/><path id="Fill-151" class="cls-2" d="M37,4.1l-.38,0,.38,0" transform="translate(78.29 0.42)"/><path id="Fill-153" class="cls-2" d="M35.75,4.08l.29,0-.3,0Z" transform="translate(78.29 0.42)"/><path id="Fill-155" class="cls-2" d="M36.81,4.19,36.67,4l-.78,0c.09.13.18.27.92.23" transform="translate(78.29 0.42)"/><polygon id="Fill-157" class="cls-2" points="103 1.55 103.3 1.47 103.27 1.45 102.97 1.53 103 1.55"/><path id="Fill-159" class="cls-2" d="M26.77,1a.43.43,0,0,0-.18.08L26.77,1" transform="translate(78.29 0.42)"/><path id="Fill-161" class="cls-2" d="M28.18.73c-.32.11-.36.23-.58.35C28,1,28.8,1.19,29.29,1c.27-.22.11-.51.11-.82,0-.08-.74-.11-.77.1.33.13-.45.17.16.23.05.13-.24.29-.52.23,0-.12.28-.08.1-.2-.19.14-.26.05-.19.23" transform="translate(78.29 0.42)"/><g id="Group-165"><g class="cls-3"><path id="Fill-163" class="cls-2" d="M27.56-.41a1.19,1.19,0,0,0-.49,0c.05.16.29,0,.49,0" transform="translate(78.29 0.42)"/></g></g><path id="Fill-166" class="cls-2" d="M30.74,2.17c.06,0,.66-.1.53-.17l-.9,0a.59.59,0,0,1,.37.12" transform="translate(78.29 0.42)"/><path id="Fill-168" class="cls-2" d="M30.27,2.09l.19,0a.8.8,0,0,0-.19,0" transform="translate(78.29 0.42)"/><path id="Fill-170" class="cls-2" d="M31.3,2.09s0,0,0,0,0,0,0,0" transform="translate(78.29 0.42)"/><path id="Fill-172" class="cls-2" d="M37.59,4.06c0,.09.19,0,.29,0a.92.92,0,0,0-.29,0" transform="translate(78.29 0.42)"/><path id="Fill-174" class="cls-2" d="M46.11,4.11a.26.26,0,0,0-.18-.06Z" transform="translate(78.29 0.42)"/><path id="Fill-176" class="cls-2" d="M48.54,2.06l0,0L48.78,2a2.85,2.85,0,0,0-.92.1c.13-.07.53,0,.68-.07" transform="translate(78.29 0.42)"/><path id="Fill-178" class="cls-2" d="M-78.29,2.86l.94,0,0,.12a1.17,1.17,0,0,1,.78,0c0,.05,0,.15-.18.16,1.14,0,.31-.62,1.26-.74a.44.44,0,0,1-.24,0c-.23,0-.43-.15-.34-.23-.48.22-.49,0-.55.4-.3.21-.63-.08-.28-.26l-.88.26.53.07c-.15.35-.84-.11-1,.31" transform="translate(78.29 0.42)"/><path id="Fill-180" class="cls-2" d="M-76.22,2.56a.73.73,0,0,1,.33,0l-.56.34c.18.27.73.11,1,.22-.28-.24.22-.12-.32-.32l.29-.25.48.06c0-.08.36-.16.12-.23a.66.66,0,0,1-.21,0c0-.19.64-.1.5-.29-.39,0-.44,0-.68.16a2.24,2.24,0,0,1-.77-.13c-.1,0-.12.15-.25.17h.09Z" transform="translate(78.29 0.42)"/><path id="Fill-182" class="cls-2" d="M-31,1.44c.12,0,.16-.13.18-.19h-1.38c0,.13.44.3.17.38.12.14.48,0,.53-.16l-.09.2c.31-.26.53.25.32.4h0l.88-1c-.32-.06-.25.34-.64.35" transform="translate(78.29 0.42)"/><path id="Fill-184" class="cls-2" d="M-1.95,2.12A.58.58,0,0,0-1.77,2c-.18,0-.21,0-.18.08" transform="translate(78.29 0.42)"/><path id="Fill-186" class="cls-2" d="M-30.55,1.16l.28-.16a.94.94,0,0,0-.28.16" transform="translate(78.29 0.42)"/><path id="Fill-188" class="cls-2" d="M-32.32,3.09a0,0,0,0,0,0,0l.13-.08h0l-.13,0" transform="translate(78.29 0.42)"/><path id="Fill-190" class="cls-2" d="M-36.86,5.08l.79-.25c-.11.12.27.08.11.22.05,0,.33-.07.26-.13h-.16c.41-.35.16-.49.85-.76a.66.66,0,0,0-.84.15l-.21,0-.65.5Z" transform="translate(78.29 0.42)"/><path id="Fill-192" class="cls-2" d="M-30.3,1l-.22.12.11,0A.32.32,0,0,1-30.3,1" transform="translate(78.29 0.42)"/><path id="Fill-194" class="cls-2" d="M-31.08,2l-.25.11c.26,0,.56-.07.92-.14Z" transform="translate(78.29 0.42)"/><path id="Fill-196" class="cls-2" d="M-29.3,2c.3-.13.19-.32.64-.33-.18.12-.22.39.21.42A23.92,23.92,0,0,0-25.63.82c0,.19.83.14,1.22.18a1.09,1.09,0,0,1-.73.29l.75,0,.09-.39c1.08,0-.26.31.23.38.3,0,.41-.18.59-.22-.85.12.12-.49-.74-.41.12-.26.62-.29.91-.22.33.26-.29.19-.36.44.34,0,.28-.09.43-.23.54.06,1.12-.31,1.44,0,.4-.06.37-.18.6-.31,0-.25-.49-.17-.69-.32,0,0,0,.05,0,.07L-22.2.09c.32.1,0,.27-.22.29s-.37,0-.34,0l.19-.06c-.24-.09-.54.2-.79,0,0-.06.08-.09.1-.13a3.69,3.69,0,0,1-1,.31L-24,.23a2,2,0,0,1-1.65.05c.06,0,.16.08.1.13-.32.07-.55-.12-.41-.26-.31.23-1.17-.19-1.59.1l-1.93,1.38a.9.9,0,0,1,.23-.08c.18.24.27.21,0,.44" transform="translate(78.29 0.42)"/><path id="Fill-198" class="cls-2" d="M-26.68,1.09a.17.17,0,0,0-.09,0l.09,0" transform="translate(78.29 0.42)"/><path id="Fill-200" class="cls-2" d="M-25.85,1.09h0v0" transform="translate(78.29 0.42)"/><path id="Fill-202" class="cls-2" d="M-30.32,2l-.19.1.14,0c.05,0,.07,0,.05-.06" transform="translate(78.29 0.42)"/><path id="Fill-204" class="cls-2" d="M-30.41,2.12l0-.06-.08,0s0,.06,0,.08" transform="translate(78.29 0.42)"/><path id="Fill-206" class="cls-2" d="M-20.33,2.1l.1,0c-.06,0-.09,0-.1,0" transform="translate(78.29 0.42)"/><path id="Fill-208" class="cls-2" d="M-26.66,1.56c.11.14-.36.48.26.31-.05,0,0,0-.07.07.4.2.56-.14.9-.14s-.33.22-.14.28c.43-.13,1.34.17,1.32-.36a.38.38,0,0,1,.44.18c.35-.4,1.1-.13,1.52-.17l0,0,.05,0c.18,0,.29-.11.29-.32a1.94,1.94,0,0,0-.74.17v-.5c-.39,0,0,.38-.6.39l.16,0a5.28,5.28,0,0,1-1.56.1c.05-.15-.29-.18-.23-.42a1.15,1.15,0,0,0-.81.35c-.2-.08-.5.14-.76,0" transform="translate(78.29 0.42)"/><path id="Fill-210" class="cls-2" d="M-29.53,2.08h0" transform="translate(78.29 0.42)"/><path id="Fill-212" class="cls-2" d="M-70.88,3.09l-.09,0,.09,0" transform="translate(78.29 0.42)"/><path id="Fill-214" class="cls-2" d="M-45.06,3.08h0" transform="translate(78.29 0.42)"/><path id="Fill-216" class="cls-2" d="M-48.7,4.05l-.25.06a.66.66,0,0,0,.25-.06" transform="translate(78.29 0.42)"/><path id="Fill-218" class="cls-2" d="M-70,3.09h0l0,0Z" transform="translate(78.29 0.42)"/><path id="Fill-220" class="cls-2" d="M-57,3.11l-.13-.06s0,.05.13.06" transform="translate(78.29 0.42)"/><path id="Fill-222" class="cls-2" d="M-48.8,4.08h0l0,0Z" transform="translate(78.29 0.42)"/><path id="Fill-224" class="cls-2" d="M-43.36,4.09l.11,0-.11,0" transform="translate(78.29 0.42)"/><path id="Fill-226" class="cls-2" d="M-37.89,4.1l.23,0a.8.8,0,0,0-.23,0" transform="translate(78.29 0.42)"/><path id="Fill-228" class="cls-2" d="M-42.4,3.1l0,0s0,0,0,0" transform="translate(78.29 0.42)"/><path id="Fill-230" class="cls-2" d="M-72.78,2.1h0v0Z" transform="translate(78.29 0.42)"/><path id="Fill-232" class="cls-2" d="M-73.59,3.07l-.2,0,.2,0" transform="translate(78.29 0.42)"/><path id="Fill-234" class="cls-2" d="M-59.77,3.14c-.06,0-.21-.09-.14-.13-.12.05-.11.19.14.13" transform="translate(78.29 0.42)"/><path id="Fill-236" class="cls-2" d="M-71.79,1l-.13.09c.09,0,.16-.08.13-.09" transform="translate(78.29 0.42)"/><path id="Fill-238" class="cls-2" d="M-59,1.06a.08.08,0,0,0,.07,0s0,0-.07,0" transform="translate(78.29 0.42)"/><path id="Fill-240" class="cls-2" d="M-73.84,3.35c0,.23-.48.11-.68.17.15,0-.07.14,0,.23a.82.82,0,0,1,.38-.08c.08.1-.17.17-.36.14.23.12-.3.18,0,.27a3.52,3.52,0,0,0,1.73-.5,3.27,3.27,0,0,1-1.2,0l.14-.2c.38.18.61,0,1,.07l-.84-.11c-.39-.17-.13-.2.18-.24-.08,0-.15,0-.17,0s-.92.23-.17.27" transform="translate(78.29 0.42)"/><path id="Fill-242" class="cls-2" d="M-73.67,2.08h0l0,0Z" transform="translate(78.29 0.42)"/><path id="Fill-244" class="cls-2" d="M-37.81,1.11l.07-.06c-.06,0-.08.05-.07.06" transform="translate(78.29 0.42)"/><path id="Fill-246" class="cls-2" d="M-40.56,4.07l0,0s0,0,0,0" transform="translate(78.29 0.42)"/><path id="Fill-248" class="cls-2" d="M-47.94,1.05a.23.23,0,0,0,.07.06s0,0-.07-.06" transform="translate(78.29 0.42)"/><path id="Fill-250" class="cls-2" d="M-59.06,4.09h.2a.46.46,0,0,0-.2,0" transform="translate(78.29 0.42)"/><path id="Fill-252" class="cls-2" d="M-39.66,1.11a.28.28,0,0,1,.08-.06s-.07,0-.08.06" transform="translate(78.29 0.42)"/><path id="Fill-254" class="cls-2" d="M-50.7,2.09h0Z" transform="translate(78.29 0.42)"/><path id="Fill-256" class="cls-2" d="M-52.24,1.21a.46.46,0,0,0,.08-.13c-.42.16-1.18,0-1.27.4.14,0,.87.23.75.47.29-.1.71.19.87.12-.48-.23,0-.35.27-.49.29.12-.06.33.2.41l.67,0-.59-.06.18-.4-.06,0c-1,.19-.08-.58-1.1-.32" transform="translate(78.29 0.42)"/><path id="Fill-258" class="cls-2" d="M-51.65,2.1l.12,0a.15.15,0,0,0-.12,0" transform="translate(78.29 0.42)"/><path id="Fill-260" class="cls-2" d="M-54.28,2.07l-.14,0,.14,0" transform="translate(78.29 0.42)"/><path id="Fill-262" class="cls-2" d="M-32.25,2.09l.81,0h.11c0-.06-.94-.16-.92,0" transform="translate(78.29 0.42)"/><path id="Fill-264" class="cls-2" d="M-63.65,2.09a.75.75,0,0,0,.15,0l0,0s-.13,0-.18,0" transform="translate(78.29 0.42)"/><path id="Fill-266" class="cls-2" d="M-52.44,2.05a.35.35,0,0,0-.14.06.31.31,0,0,0,.14-.06" transform="translate(78.29 0.42)"/><path id="Fill-268" class="cls-2" d="M-63.56,2.16c-.11,0-.28-.1-.3-.15a4.41,4.41,0,0,0-.62.09,3.85,3.85,0,0,1,.92.06" transform="translate(78.29 0.42)"/><path id="Fill-270" class="cls-2" d="M-47.91,3.08h0" transform="translate(78.29 0.42)"/><g id="Group-274"><g class="cls-4"><path id="Fill-272" class="cls-2" d="M-64.62,2.12l.71-.34c-.36,0-.41.27-.84.21,0-.2,0-.3.46-.44.41,0,0,.12.18.2.31-.24.4.2.72-.07.39,0,.27.12.4.2-.39,0,.18.2-.31.24.4.12.29-.21.63-.13l.05.21a3.32,3.32,0,0,0,1.38,0c-.35-.13.2-.13.14-.25-.06.18-.54,0-.53,0a4.83,4.83,0,0,1,1.12,0L-61,1.81c.19-.11.85-.3.87-.33.2.09.51.06.62.17l-.38.15-.14-.13-.22.17a2.51,2.51,0,0,1,.89.31A8,8,0,0,0-62,2.6a.11.11,0,0,1,.07,0c-.55,0-.6,0-1,0l.14-.09c-.08-.12-.44,0-.8,0a.5.5,0,0,1-.48.05l.06-.09c-.06-.09-.42-.09-.82-.09l.16-.1a.92.92,0,0,1,.37-.14.61.61,0,0,1-.31,0Zm5.68.38c.3-.06.36-.16.22-.23.1,0,.26-.06.36-.1s.62,0,.66.11c-.34,0-.31,0-.16.12.34-.14,1,0,.93-.28.47,0,.14,0,.48.12,0,.07-.07.13-.19.18l1.37-.09c.06-.18-.88-.16-.41-.38.11-.06.1-.33.56-.25,0,0,0,0-.08.05.22,0,.25,0,.48.06.07.18-.28.13-.43.25A1.23,1.23,0,0,1-54.68,2l0,.06.49,0c.2-.13-.38,0-.4-.12l.31-.1a3.31,3.31,0,0,1,1.65.16c.42.09.23-.11.34-.22s.48,0,.73,0c0-.13.29-.12.3-.29l.4,0c.23-.25-.49,0-.59-.15s.3-.07.16-.2c-.31,0-.34.13-.49.17s-.27,0-.26-.12c.49.09.27-.18.67-.14v.05c0-.17.59-.07.81-.15.44.19-.36.25-.34.3l.54-.05c-.24.11,0,.22-.32.32.33-.05.37.1.68,0-.35.25.45.19.49.34a1.85,1.85,0,0,1-1-.21,1.38,1.38,0,0,1-.61-.05l-.25.23c.29,0,.68-.09.57.1l.4-.1a2,2,0,0,1-.76.42c.77.24,1.36-.27,2-.05l-.1,0c1.24-.06,1.54.25,1.8.59l-.53.07,0-.15c-.86-.06-1.47.33-2.36.25.12-.14.46-.06.41-.13-.53,0-.46.36-1,.16.75-.05-.47-.07.21-.21a11.84,11.84,0,0,1-2.57,0c.16.09-.25.14-.27.17s-.11-.11,0-.11c-.32-.09-.37-.21-.32-.34h.66c-.22-.05-.33-.15-.5-.17h0a.74.74,0,0,0-.28,0c-.11,0-.09.08-.09.15l-.8.37,0,0-.7,0,.08-.07-.41.13c0-.17-.13-.08-.1-.19-.26-.29-.92.12-1.48,0l.09-.07a4.3,4.3,0,0,1-1.54,0Zm13.51-.73c.23-.11.74,0,.65.11,0-.25.76-.13,1-.26.69,0,.45.32,1.06.23l-.22-.14a5.21,5.21,0,0,1,1.37,0c.07.17-.27,0-.41.05l.28.17c-.13,0-.38.15-.37,0,0,.08-.21.21.17.14l-.29.13.07,0-.26,0c-.11-.06-.3,0-.47-.18,0,0,.17-.07.27-.09a1.12,1.12,0,0,0-.63,0c.4,0,.19.12.27.26-.24.06-.65,0-.8.06-.34-.06-.62-.22-.39-.34-.22.06-.45,0-.68.15.43-.17,0,.34.56.13.16.23-.47.14-.75,0,.14,0,0-.12.06-.18-.43.08-.23.25.08.3l-.5.13h0l-.51.05c-.06-.18-.07-.3.07-.25L-46,2.2l.41,0c-.17-.15-.46,0-.67,0s.55-.13.81-.36Zm4.2.29s0,.07,0,.09l-.36,0c.06-.08,0-.16.32-.12Zm1.31,0a4.55,4.55,0,0,1,1,0l-.12,0c-1.75,0-1,.29,0,.68l-1.8-.11.08.09c-.2,0-.35.09-.46,0a9.58,9.58,0,0,1,1.26-.69Zm1.49,0c0-.19.5-.2.64-.37s.67-.06.54.08c-.38-.07-.35.38-.7.12-.06.12,0,.17.17.2a.15.15,0,0,0-.08.08l-.39,0c-.12,0-.21,0-.18-.09Zm2.87.1a.2.2,0,0,1,.15.15h-.23ZM-33.8.44l-.29,0a.46.46,0,0,1,.29,0Zm-1.06,1.92a.78.78,0,0,1,.21,0l-.25,0Zm11.63-.6a.25.25,0,0,0,.05.08l-.43,0-.05-.11c.1,0,.31,0,.43,0Zm1.78-.07c-.41.13.53.11.2.25-.14.08-.36-.05-.29,0s.32,0,.43.13c.05-.09.59-.14.27-.25.18.06.56-.09.8,0-.07-.17.44-.11.53-.19a.66.66,0,0,1,.26.08l-.77.21h0c-.11,0-.32,0-.26,0V2l-.21,0s0,0,0-.06l-.36.11c-.7.25-.82-.11-1.2-.25a4.75,4.75,0,0,0,.57-.06Zm6.36-.14c.41,0,0,.12.19.2.3-.24.39.2.72-.07.39,0,.27.12.39.2-.16,0-.16,0-.13.08-.23,0-.44,0-.46-.14-.22,0-.54.06-.57.17.12-.06.41,0,.37.1h-.14l0,0a.79.79,0,0,0-.22,0l-.28.05a.59.59,0,0,1-.17,0l.7-.34c-.35,0-.41.27-.84.21,0-.2,0-.3.46-.44Zm3.78.37-.53-.11c.19-.11.85-.3.87-.33.21.09.52.06.62.17l-.38.15-.14-.13-.22.17.4.1c-.34,0-.78.07-1.22.1,0,0,0,0,0-.06s0,0,0,.06l-.28,0c-.11,0-.21-.07-.21-.11a4.83,4.83,0,0,1,1.12,0Zm4.83,0c.12-.06.1-.33.57-.25,0,0,0,0-.08.05.21,0,.24,0,.47.06.08.18-.28.13-.43.25A1.28,1.28,0,0,1-5.47,2l0,.06L-5,2c.2-.13-.37,0-.4-.12l.31-.1a4,4,0,0,1,1.55.11,13.57,13.57,0,0,1-2.89.18C-6.52,2-6.26,2-6.37,2L-6.61,2A.24.24,0,0,1-6.48,2Zm4.09-.26c0-.13.29-.12.3-.29l.4,0c.23-.25-.48,0-.59-.15s.3-.07.16-.2c-.31,0-.33.13-.48.17s-.28,0-.27-.12c.5.09.27-.18.67-.14l0,.05c0-.17.59-.07.8-.15.44.19-.36.25-.34.3l.54-.05c-.24.11,0,.22-.32.32.33-.05.37.1.69,0-.14.1-.1.15,0,.18l-.31,0a.63.63,0,0,1-.2-.09,1.33,1.33,0,0,1-.6-.05l-.26.23c.29,0,.69-.09.58.1l.39-.1a2.68,2.68,0,0,1-.42.29l-.14,0c.13-.05,0-.09,0-.13a4.32,4.32,0,0,0-.73.18.66.66,0,0,0-.33,0h-.05l.06,0h-.09c0-.09.21-.25.58-.24a7,7,0,0,0-.8,0,.17.17,0,0,1,0-.13c.25-.14.49,0,.73,0Zm2.06.12a1.77,1.77,0,0,1-.75-.1,2.2,2.2,0,0,0,.45,0c.14,0,.28.06.3.12Zm2.06,1-.53.07,0-.15C.3,2.63-.31,3-1.2,2.94c.12-.14.46-.06.42-.13-.54,0-.47.36-1,.16.48,0,.15-.05,0-.1A5.1,5.1,0,0,0,0,2.55c-.23,0-.26.14-.56.08,0-.08.16-.07.23-.11s-.31.1-.63,0l.53-.18-.3-.15.23-.07a1.07,1.07,0,0,1,.5,0l-.1,0c1.25-.06,1.54.25,1.81.59Zm-4.79,0h0a4.31,4.31,0,0,1,.74,0,0,0,0,0,1,0,0c-.25,0-.5,0-.73,0Zm-1.42,0,.24,0,.06,0a1.44,1.44,0,0,0-.22.07c-.1,0-.11-.05-.08-.08ZM-17.32,4.33c.59-.06.29-.29,1.11-.16,0-.06-.17-.15,0-.19a1.43,1.43,0,0,0,.41.11l-.26.15.3.06a2.62,2.62,0,0,1-1.54,0ZM-17,3.9a1.25,1.25,0,0,1,.8.08c-.29,0-.57,0-.85,0,0,0,0-.09.05-.1Zm-.91-.47s0-.08-.2-.08a1.33,1.33,0,0,1,.3-.07l.13,0a.57.57,0,0,1-.23.12Zm-3-.09a.37.37,0,0,1,.15,0Zm-.62.32a1.52,1.52,0,0,0-.2-.06c.19-.1.51-.07.39-.23l.06,0h0c.47.15-.17.18-.22.26Zm-4.33-.18c.09,0,0,.08,0,.13a1,1,0,0,0-.32-.06c0-.08.37-.2.74-.1l-.05,0a2,2,0,0,0-.36,0Zm3-1.54-.16,0a.45.45,0,0,0,.17-.08l.42-.05c-.15.14-.62.2-.73.33a.5.5,0,0,1-.36-.19c.2,0,.5,0,.66,0Zm-.24-.07,0,0-.09,0Zm-3.57,1.72h.18s0,0,0,0l-.16-.06ZM3.77,1.77c.23-.11.74,0,.66.11,0-.25.75-.13,1-.26.68,0,.45.32,1,.23l-.21-.14a5.14,5.14,0,0,1,1.36,0c.07.17-.27,0-.41.05l.28.17c-.13,0-.38.15-.37,0,0,.08-.21.21.17.14l-.28.13s0,0,.06,0l-.26,0c-.1-.06-.3,0-.46-.18S6.56,2,6.66,2A1.12,1.12,0,0,0,6,2c.4,0,.19.12.28.26-.25.06-.66,0-.8.06-.35-.06-.63-.22-.4-.34-.22.06-.45,0-.68.15.43-.17,0,.34.56.13.16.23-.46.14-.75,0,.15,0,0-.12.06-.18-.43.08-.23.25.08.3l-.5.13h.05l-.5.05c-.07-.18-.08-.3.06-.25L3.22,2.2l.41,0c-.17-.15-.45,0-.67,0s.55-.13.81-.36ZM8,2.06s0,.07,0,.09l-.36,0c0-.08,0-.16.31-.12Zm1.31,0a4.55,4.55,0,0,1,1,0l-.12,0c-1.75,0-1,.29,0,.68L8.4,2.71l.08.09c-.19,0-.35.09-.45,0a8.71,8.71,0,0,1,1.25-.69Zm1.49,0c0-.19.5-.2.64-.37s.67-.06.55.08c-.39-.07-.35.38-.71.12-.06.12,0,.17.18.2,0,0-.08,0-.08.08l-.4,0c-.11,0-.21,0-.18-.09Zm2.87.1a.2.2,0,0,1,.15.15h-.23ZM15.41.44l-.3,0a.5.5,0,0,1,.3,0ZM14.34,2.36a.73.73,0,0,1,.21,0l-.25,0ZM-7.61,4.12h0ZM-9.8,4h0Zm-.59,0a.53.53,0,0,1,0,.12A.27.27,0,0,0-10.56,4a.34.34,0,0,1,.17,0ZM-73.28,1.6c-.33.06.23.19-.11.28s-.9-.13-1.16.09A4.28,4.28,0,0,0-73.3,2h-.3l.67-.28c0,.11.59-.06.58.1-.23,0-.44,0-.62,0a3.78,3.78,0,0,0,.86.06l-.31-.06c.55-.14,1.24-.09,1.77-.19-.41.13.53.11.2.25-.14.08-.36-.05-.3,0s.33,0,.43.13c.06-.09.6-.14.28-.25.18.06.56-.09.8,0-.08-.17.44-.11.53-.19a.66.66,0,0,1,.26.08l-.77.21h0c-.11,0-.32,0-.26,0V2c-.56.16-1.12.32-1.41.39l.14-.08c-.42.21-.85,0-1.28.15,0,0,.07,0,0,0-.53,0-.74.26-1.17.13l0-.1s-.29.09-.24.2a2.81,2.81,0,0,1,.75-.05,1.62,1.62,0,0,1-.63.16l0,.16c-.27.18-.55-.08-.82.09l.32.12h-.06a.58.58,0,0,0,.31-.08.78.78,0,0,1,.79.24c.23,0-.08.21,0,.31.36,0,.34-.22.7-.25.09,0,.06,0,0,.07l.24-.08c0,.05.63.09.26.2h-.23c.5.11,1.37.25,1.34.43.28,0,.2-.05.64,0,.2-.13,0-.27.46-.36l-.38-.06-.22.07h.39c-.25.06-.21.13-.28.26a2.77,2.77,0,0,1-1.07-.28c.19-.1.51-.07.39-.23.3.14.33-.14.68,0l-.07.05c.29-.13.33,0,.56-.09,0,0,0,.05,0,.07.5-.07-.16-.09.35-.25.45,0,.15.26.27.34-.76.22,0,.27-.8.44,0,.22.32.25.76.22-.28-.09.18-.31-.2-.46.66-.11.61-.53,1.34-.33l0,0,.31-.16.41.09c-.26.22-.57.11-.78.25.51.22.68-.23,1.27-.21.48.26-.6.15-.59.36.11,0,.43.06.39.12-.54-.08-.33.14-.94,0,.3-.08,0-.07,0-.17a2.73,2.73,0,0,1-1.06.08c-.09.15.35.13.6.2.49-.18,1,.13,1.36-.07.52,0,0,.16.07.18.47.07.2-.13.35-.17.71-.12.79.18,1.29.2A6.25,6.25,0,0,1-62.8,4c-.09.07,0,.13,0,.2.43-.29.27-.17.81-.36l-.45-.1c.36,0,.65-.24,1-.08-.44-.27.58-.2.84-.29.37.1.74-.1.94.06l0,0,.54,0-.07.26c.37.1.82-.1.69-.17.39.06.16.09.22.21-.22.08-.69.31-.82.1,0,0,.11,0,.13,0-1-.12-.33.32-.83.38.26,0,.46.15.74.08a6,6,0,0,0,.92-.2A1.18,1.18,0,0,1-59,4c.24,0,.28-.13.49,0l-.07,0,.27-.09c0,.15.73.06.32.24.36,0,.13-.14.46-.19l-.65-.06V3.75c.23-.11.29,0,.55,0l0-.19.46.16c0-.12.3-.07.4-.1s.09.36.52.2l0,0a1.63,1.63,0,0,1,.75,0s-.12,0-.16.07c.49.09,1.29-.19,1.52.08,0,.15-.25.06-.26.23-.77-.22-.54.26-1.44.14,0-.37-.76.21-.93-.15.35,0,.82-.18.76-.22a5.56,5.56,0,0,1-1,0c.2.12.14.33,0,.45a14.85,14.85,0,0,1,2.23.18l-.08-.22c.64-.16-.08.21.42.22l.22-.16,0,0,.36-.2c-.26,0-.14.17-.42.07s0-.16.08-.29c.17.07.8,0,.41.17l.68-.22c0,.08-.15.12-.22.16l.49,0,0,0a6.87,6.87,0,0,0,1.25-.26c-.67-.16.33-.19.27-.31.24,0,.31.41-.2.57-.14-.13-.49,0-.75,0a2,2,0,0,0,.7,0c-.18.1.35.13.34.21s-.14.25-.48.17c-.5,0,0-.2-.2-.16-.13-.21-.7,0-1,0,0,0,.06,0,.11,0-.26,0-.81,0-.85.16l.65-.11c.15,0-.2.13,0,.21a1.46,1.46,0,0,1,.52,0l0,.07a4.31,4.31,0,0,0,1.48,0,4.64,4.64,0,0,1,.54-.86,19.08,19.08,0,0,1,2.12.07.34.34,0,0,1,0-.2c.21.09.59,0,.58.18.22-.16.84-.29.73-.45H-47a2.61,2.61,0,0,0,1.37.36c.14,0,.16-.11.13-.26a1.74,1.74,0,0,0,.43.09.65.65,0,0,1-.39.18l1.11,0-.08.08.43-.11c-.24,0-.62,0-.53-.17.49-.12.78.06,1.2-.16,0,.3.14.35,0,.52l0,0a1.61,1.61,0,0,1-.76.38c.92.1.69,0,1.49.06.07.17-.74.19-.55.3l-.76-.08c.13,0,.14,0,.21-.08-.53.12-.72,0-1.11.16-.25-.08.39-.13.12-.16a1,1,0,0,0,.56-.36c-.59-.06-.34.22-.84.29l-.38-.15c-.23,0,.07.1.08.15-.27,0-.38-.07-.59-.07.06,0,.2.08.17.14-.35-.13-.7,0-1-.28.18.11-.22.29-.37.33l.67.24c.85-.08,1.38,0,2.3-.08l-.06.09c1.45.3,1.2-.45,2.44-.46,0,.23.57,0,.52.19-.37,0-.3.08-.19.19a1.07,1.07,0,0,1,.77-.17c-.15.12.22.22-.19.27a1.61,1.61,0,0,0,1.16-.18c.93-.2.28.25,1.2.14l-.14.08.57,0-.19-.11.68-.14c.41-.13-.17-.15-.12-.25l-.13.17c-.28,0-.66.11-.72,0,.45,0,.34-.16.52-.23l-.43.07-.14-.13a2,2,0,0,0-1,.12c.17.06.28-.13.44,0-.21.21-.73.23-1.24.3,0,0-.18-.06-.11-.11h.15c0-.1.25-.16-.23-.22.17-.15.53-.4.51-.45a2.71,2.71,0,0,1,.9,0l0,0c.24,0,.75-.14.79,0,.15,0,.56-.09.14-.17l.69-.09c-.11.27.54.33-.15.55L-37,4l0,0a.12.12,0,0,0,0,0c-.08,0-.13,0-.15,0-.24.19.12.24.49.26l.09-.15a1.89,1.89,0,0,0,1,.15l1-.57.3,0c.13.09.57,0,.4.2.05.07-.1.11-.3.08,0,0,0,0,0-.05s-.08.21.16.31c-.24,0-.27,0-.44,0l.24,0c-.36,0-.91.25-.9.38.11-.19.34,0,.53,0-.15,0-.46.14-.22.17.09-.08.74-.19.28-.26A1.59,1.59,0,0,1-34,4.47c-.27.09-.09.16-.17.28a.45.45,0,0,0,.27-.3c.67.15.94.49,1.69.36.1,0-.45.06-.38-.07.55-.21.72.23,1.19.14l-.13-.21a6.81,6.81,0,0,1,.69-.09c0,.07.55.22.17.28.83.13.73-.45,1.67-.38a5,5,0,0,0-.83,0c.37-.12.06-.09.1-.24.22.14.93,0,.44.19a3.08,3.08,0,0,0,1-.06l-.25-.07a1.74,1.74,0,0,0,1-.28c-.52,0-.51.29-1.17.26s.17-.15-.3-.36l-.52.16.24,0c-.07.21-.79,0-.73.23-.52-.19-.67-.07-1.25-.26-.13.09.08.09.24.11-.29,0-.31.24-.69.09-.19,0-.06.17.28.17-.29,0-.57,0-.89,0l.33.17h-.34l.29.09a3.7,3.7,0,0,1-1.74-.22c.56-.17,1.5-.1,1.82-.37-.12-.08-.45.19-.61,0l-.17.15c-.2.05-.66.11-.7,0a3.08,3.08,0,0,0,1-.37s0,0,.13-.06h0a3.6,3.6,0,0,0,.58,0c.19,0,.06.12,0,.16.65.19,1.11-.3,1.8-.18,0,.14.54.17.37.24a1.85,1.85,0,0,0,.89-.22c.06.12.62,0,.42.16l.37-.2a1.67,1.67,0,0,0,.41,0c.2.24.78.1,1,.2-.21-.15,0-.14-.08-.19a1.52,1.52,0,0,0,.6,0,0,0,0,0,0,0,0,1.35,1.35,0,0,1,.34-.07l0,0c0,.08-.19.13-.37.1.24.1-.3.16,0,.24a4.6,4.6,0,0,0,1.61-.37l.77-.26c0,.07-.16.18-.14.26.36,0,.34-.22.7-.25.1,0,.06,0,0,.07l.24-.08c0,.05.63.09.27.2h-.24c.51.11,1.37.25,1.35.43.27,0,.19-.05.63,0,.2-.13,0-.27.46-.36l-.37-.06-.23.07h.39c-.25.06-.2.13-.28.26a1.61,1.61,0,0,1-.78-.17c.15-.2.53-.18.93-.17h0l0,0a1.94,1.94,0,0,0,.78-.07.32.32,0,0,1,.16,0c-.62.19.06.25-.73.41a.16.16,0,0,0,.09.15,1,1,0,0,1-.7.18c0-.12.21-.22-.18-.2l.1,0c-.62.13-.49-.25-.88.06V3.91A3.94,3.94,0,0,1-23,4.06l0,0a6.12,6.12,0,0,1-1.47.12L-24,4c-.33-.08-.41.13-.65.11,0,0,0-.12.1-.16l-1.1.27c-.29.12.06.12.1.19-.11.1-.62,0-.65-.06s.35-.09.18-.15l-.41.26c-.54-.16.41-.34.68-.44-.55,0-.72.14-1.3.14a.92.92,0,0,1,.37.15c0,.18-.53.1-.92.12.25.08.11.14-.08.22l-.06,0-.07,0h.05a.12.12,0,0,0,0,.08,3.24,3.24,0,0,1,.79.1c-.21-.3.72-.07,1-.16l.3,0h.12s0,.07-.19.13c.15-.06.64,0,.59-.13H-24l.1,0s0,0,0-.05h4.84c-.24,0-.45-.1-.69-.13.37-.2-.41,0-.3-.22a.94.94,0,0,1,.55,0c.06-.09-.15-.18-.12-.29h0c0-.1.11-.21-.11-.3a1.52,1.52,0,0,0,.32-.1c.07,0,.1.06.1.11a3.54,3.54,0,0,0,1.54-.16h-.13a1.57,1.57,0,0,1,.6-.18c.08.06.18.13-.26.09.08.15.25,0,.47,0,0,.12-.71.08-.71.25.12,0,.43.06.4.12-.55-.08-.34.14-.95,0,.3-.08,0-.07,0-.17a2.68,2.68,0,0,1-1.06.08c-.09.15.35.13.61.2.48-.18,1,.13,1.35-.07.34,0,.26.06.16.11A9.48,9.48,0,0,0-19,4.13c.78.19-.52.16-.27.39l.43-.08,0,.07.52,0c-.11-.11-.19-.12-.16-.23.69,0,.22.13.73.28l.77,0-.06,0a.22.22,0,0,0,.12,0l2.62-.08c.47-.09-.27-.2.09-.37-.53,0-1.29-.11-1.41.07,0,0,0,0,0-.06A7,7,0,0,1-13.6,4c-.08.07,0,.13,0,.2h-.1l.15.1.11-.08h-.15c.42-.29.27-.17.8-.36l-.45-.1c.36,0,.65-.24,1-.08-.28-.17,0-.21.36-.23l0,.06.37,0c0,.05.07.08.21.05l-.09-.05.74,0s-.06,0-.13-.06a.41.41,0,0,1,.29.06l-.05,0,.53,0-.06.26c.36.1.81-.1.69-.17.38.06.16.09.21.21-.22.08-.68.31-.82.1,0,0,.12,0,.13,0-.47,0-.57,0-.59.11l-.29,0,0,.23h0v.12a.54.54,0,0,0,.26-.1,1.19,1.19,0,0,0,.57,0A5.78,5.78,0,0,0-9,4.1a.79.79,0,0,1-.45,0l0-.09-.15.06L-9.73,4l0,0c.17,0,.22-.12.4,0l-.06,0,.26-.09c0,.15.73.06.33.24.36,0,.12-.14.45-.19L-9,3.91V3.75c.24-.11.29,0,.56,0l0-.19.47.16c-.06-.12.29-.07.39-.1.26.07.09.36.53.2l0,0a1.63,1.63,0,0,1,.75,0s-.11,0-.16.07c.5.09,1.29-.19,1.52.08,0,.15-.25.06-.26.23-.76-.22-.54.26-1.44.14,0-.37-.73.19-.92-.14l.64,0-.5,0c.32,0,.67-.18.61-.22a5.57,5.57,0,0,1-1,0,.21.21,0,0,1,.12.24l-.4,0-.17-.08-.06,0,.17,0-1,0,1.05,0,.1,0,0,0h.38a.35.35,0,0,1-.13.2,14.75,14.75,0,0,1,2.23.18l-.08-.22c.64-.16-.08.21.42.22l.23-.16,0,0,.37-.2c-.26,0-.14.17-.43.07s0-.16.08-.29c.18.07.8,0,.41.17l.69-.22c0,.08-.16.12-.23.16l.33,0,.07,0,0,0,.13,0v0a7.24,7.24,0,0,0,1.25-.26c-.68-.16.32-.19.26-.31.24,0,.32.41-.2.57-.14-.13-.49,0-.75,0a1.94,1.94,0,0,0,.7,0c-.18.1.35.13.35.21a.4.4,0,0,1-.49.17c-.5,0-.05-.2-.2-.16-.13-.21-.7,0-1,0,0,0,.07,0,.11,0-.26,0-.81,0-.85.16l.66-.11c.14,0-.21.13,0,.21a1.48,1.48,0,0,1,.52,0l0,.07a4.31,4.31,0,0,0,1.48,0,4.64,4.64,0,0,1,.54-.86A19.26,19.26,0,0,1,.8,3.75a.28.28,0,0,1,0-.2c.2.09.58,0,.57.18.22-.16.85-.29.73-.45h.08a2.61,2.61,0,0,0,1.37.36c.14,0,.16-.11.13-.26a1.72,1.72,0,0,0,.44.09.65.65,0,0,1-.39.18l1.1,0-.08.08.44-.11c-.25,0-.63,0-.54-.17.5-.12.78.06,1.2-.16,0,.3.14.35,0,.52l0,0a1.56,1.56,0,0,1-.76.38c.93.1.69,0,1.5.06.07.17-.75.19-.56.3l-.76-.08a.38.38,0,0,0,.21-.08c-.52.12-.71,0-1.11.16-.25-.08.39-.13.12-.16A1,1,0,0,0,5,4.05c-.6-.06-.34.22-.85.29l-.38-.15c-.23,0,.07.1.09.15-.28,0-.39-.07-.6-.07.06,0,.21.08.17.14-.35-.13-.7,0-1-.28.19.11-.22.29-.36.33l.66.24c.85-.08,1.38,0,2.3-.08L5,4.71c1.45.3,1.2-.45,2.44-.46,0,.23.57,0,.52.19-.37,0-.29.08-.19.19a1.08,1.08,0,0,1,.78-.17c-.16.12.21.22-.2.27a1.63,1.63,0,0,0,1.17-.18c.92-.2.27.25,1.19.14l-.14.08.57,0L11,4.63l.67-.14c.42-.13-.17-.15-.11-.25l-.14.17c-.28,0-.66.11-.72,0,.45,0,.34-.16.52-.23l-.43.07-.13-.13a2,2,0,0,0-1,.12c.17.06.28-.13.44,0-.21.21-.73.23-1.24.3,0,0-.17-.06-.11-.11h.15c0-.1.25-.16-.23-.22.17-.15.53-.4.52-.45a2.65,2.65,0,0,1,.89,0l0,0c.24,0,.76-.14.8,0,.15,0,.55-.09.14-.17l.69-.09c-.12.27.53.33-.15.55L12.16,4l0,0a.12.12,0,0,0-.05,0C12,4,12,4.05,12,4c-.24.19.11.24.48.26l.09-.15a1.91,1.91,0,0,0,1,.15l1-.57.29,0c.13.09.58,0,.4.2.05.07-.1.11-.3.08,0,0,0,0,0-.05s-.08.21.16.31c-.24,0-.27,0-.44,0l.24,0c-.36,0-.91.25-.9.38.11-.19.34,0,.54,0-.15,0-.47.14-.23.17.09-.08.75-.19.28-.26a1.59,1.59,0,0,1,.69-.09c-.27.09-.09.16-.17.28a.45.45,0,0,0,.27-.3c.67.15.94.49,1.7.36.1,0-.46.06-.39-.07.55-.21.72.23,1.2.14l-.14-.21a6.81,6.81,0,0,1,.69-.09c.05.07.56.22.18.28.82.13.72-.45,1.66-.38a4.91,4.91,0,0,0-.82,0c.36-.12.05-.09.09-.24.22.14.93,0,.45.19a3.12,3.12,0,0,0,1-.06l-.26-.07a1.74,1.74,0,0,0,1-.28c-.52,0-.5.29-1.17.26s.17-.15-.3-.36L19.69,4l.25,0c-.08.21-.8,0-.73.23C18.69,4.1,18.53,4.22,18,4c-.14.09.07.09.23.11-.29,0-.3.24-.68.09-.2,0-.06.17.28.17-.29,0-.57,0-.9,0l.33.17h-.34l.29.09a3.7,3.7,0,0,1-1.74-.22c.56-.17,1.5-.1,1.83-.37-.13-.08-.46.19-.62,0l-.17.15c-.2.05-.66.11-.7,0a3,3,0,0,0,1-.37s.05,0,.13-.06h0a3.56,3.56,0,0,0,.57,0c.19,0,.06.12,0,.16.66.19,1.11-.3,1.8-.18,0,.14.54.17.38.24a1.91,1.91,0,0,0,.89-.22c.05.12.61,0,.41.16l.37-.2c.25.08.78,0,.87.11.28,0,.08-.2.46-.14,0,0,0,0-.06,0a1.31,1.31,0,0,0,.78,0A2.78,2.78,0,0,0,23,3.55c0-.08.37-.2.74-.1-.5.2.39.2.16.31a5.52,5.52,0,0,0,1.91-.44,11.85,11.85,0,0,0,2.37-.13h-.08l.36-.12c.21,0,0,.21.33.16-.11.19-.57,0-.9.17.57.18-.54.18-.15.33.21-.37,1.22,0,1.72-.26.48,0-.22.16,0,.19l.15-.12c.19,0,.26.07.25.15a3.54,3.54,0,0,0,1.54-.16c-.56.08.19-.18-.36-.18a3.07,3.07,0,0,1,.87-.11c-.33.06.43.27-.29.21.1.19.36,0,.68,0a2.89,2.89,0,0,0-.5.21c.49-.26,1.57.15,1.76,0,.35-.17.89-.3,1.33-.46a7.73,7.73,0,0,0,1.39.09l-.09.07c.27,0,.7,0,1.11,0l.09.14a10.31,10.31,0,0,1,1.22-.06c0-.08-.39-.07-.2-.16-.21,0-.39,0-.32.1-.21,0-.22-.14-.39-.2l.82-.09q.09,0,.09,0l.06-.15c.21,0,.27,0,.24.1.46-.06.62-.26,1.1-.22a1,1,0,0,1-.68.22h.55c-.25.15-1.21.11-1,.34a12.67,12.67,0,0,0,2-.42c.28.18.7,0,1.17,0,.06,0,.21.09.12.16H42a7.1,7.1,0,0,0,1.87-.22l.28.17c.94.07-.18-.28.78-.33.23.19,1.18.09,1.22.24.18,0,.26,0,.28-.12-.16,0-.52,0-.31-.11a4.26,4.26,0,0,1,.74,0s-.2.13-.1.11a8.74,8.74,0,0,0,2.43-.38c-.23,0-.26.14-.56.08,0-.08.17-.07.23-.11s-.31.1-.63,0l.53-.18-.3-.15,1.22-.4c-1-.11-1.46.47-2.28.26.13-.05,0-.09,0-.13a4.32,4.32,0,0,0-.73.18h-.41c0-.09.16-.29.58-.28-1.47,0-2.61.4-4.09.25C42.69,2,43,2,42.83,2a3.27,3.27,0,0,0-.5.14A.19.19,0,0,1,42.51,2c-.77.08-1.18-.17-1.67-.05,0-.1.37-.07.31-.1-.76-.09-1.15.22-1.92.22.26-.14-.16-.14-.37-.23-.63.13-2,.16-2.91.26.25-.36-1.05,0-1.13-.32-.21,0-.54.06-.57.17.12-.06.41,0,.37.1-.31,0-.78,0-.82.17l-.38-.15a.34.34,0,0,1-.36.25c-.47-.29,0,.21-.62.05a2,2,0,0,0,.35-.3c-.33,0-.28,0-.51.07s.22-.25.47-.31l-.42-.08a3.74,3.74,0,0,1-1.74.37c.1-.1.31-.1.14-.25a2.34,2.34,0,0,1-1,.14c.05,0,0,0,.07,0-.65.16-.49,0-1.07-.06a.14.14,0,0,1,0-.06L28.39,2c-.75.27-.84-.17-1.29-.28l.1,0c-.28-.17-1.18,0-1.44-.08.32.11.11.11.34.3.28,0,.2-.27.66-.19-.06.17-.65.24-.77.38a.52.52,0,0,1-.46-.38c-.65,0-1-.07-1.82,0-.29.13-.5.51-1.17.26l0-.06c0,.12-.33,0-.46.06.23.19-.29.12,0,.3a.43.43,0,0,1-.49-.39c-.28.25-.77-.14-1.37,0,.11-.11.76-.13.49-.26l-.77.3h.34c-.58.19-.74,0-1.08-.11-.06-.08.16-.11.32-.11a2.57,2.57,0,0,0-.69.09,9.8,9.8,0,0,0-1,.32l-.1,0s0,0,0,0l-.13,0-.3,0,.06,0-.12,0L17,2l-.16.06h.08c0,.2-.41.35-.87.32l.61.07-.11.06-1.43-.11a1.5,1.5,0,0,1,.53,0c-.48-.21-1.21.11-1.44-.16A7.09,7.09,0,0,1,16,2c.39.2-.49.12-.52.24l.44.05c-.06-.12.84-.07.62-.34-1-.09-1.91-.13-2.73-.13L14.62.47s0,0,.06-.09l-.06.09c0,.06.17,0,.36,0,0,.06-.08.14.14.13.45.1.69-.17,1-.15l-.1,0A1.7,1.7,0,0,0,17,.38c.24.24-.88.06-.41.26a4.54,4.54,0,0,0-1.08.11c.44.05.81.29.69.42.94-.15,0-.51.82-.6l.56.05.2-.27c.34,0-.21.22.31.2.14-.13.48,0,.58-.1,0,.06,0,.13.25.14,0,0,0-.14.2-.14.15.27-.54.06-.29.29.6,0,.38-.22.47-.32s-.05,0-.11,0,.26,0,.23-.11a.7.7,0,0,0-.29,0c.18-.08-.29-.17-.48-.18a11.37,11.37,0,0,1-1.84.11s.15,0,.09-.08c-.82,0-1.15-.07-2.08,0l-.11.19c-.82,0-.39.53-.59.58s-.34.13-.49,0l.08-.08c-.5.07-.15.2-.61.18s.32,0,.09.14c-.48,0-.3.37-1.05.21,0-.07-.09-.23.36-.25L12,1.06A3.45,3.45,0,0,1,12.75,1c.24-.19.19-.32.41-.48-.2.05-.16.2-.45.19s0-.09.09-.15c-.47.22-.53-.2-.94,0,.08.22,0,.22.3.36-.3.07-.68-.08-.65-.27l-.06.17c-.07,0-.31,0-.32-.09L11,.82A.9.9,0,0,0,11.8,1c-.16.12.21.3-.28.34-.22,0,0-.1,0-.15-1.1.14-1.11-.29-2-.19.21-.08.74,0,1.16-.1-.25-.15-.54.06-.79,0,.22-.09.26-.15,0-.22l-.1.11c-.16,0-.43,0-.45,0s.06.06.2.1A4.19,4.19,0,0,1,7.75,1c0-.23,1-.13.47-.31-.27,0-.5.29-1,.16C7.44.7,7,.7,7,.62L6.36.89a3,3,0,0,0-1,0,1.22,1.22,0,0,1,.4,0c-.46.28-.84-.09-1.42,0l.27-.1A2.89,2.89,0,0,0,3.48,1V.79c-.05.22-.8.27-1,.34,1.07-.15.92.18,1.95,0-.38.23-.66.27-1.08.48-.16,0-.23-.05-.24-.1s-.18.23-.43.29l-.07-.09C1.94,1.63,2,2.1,1.33,2c-.13-.21.58-.28,1-.41-.32-.19.68-.1.3-.37l-.2.13c-.21,0-.19-.11-.06-.12-.28,0-.21,0-.31.11C1,1.38,2.17,1.08,1.12,1c.12-.05.41-.05.35-.17L2,.87V.71a2,2,0,0,0-1.46.47c.64-.16.07.17.4.25a.28.28,0,0,1-.31,0c-.05.05-.37.08-.33.17C.2,1.19-1.2,1.18-.88.78a17.75,17.75,0,0,0-2.5.13L-3.14.8c-.91-.35-.8.28-1.33.38C-4,1-4.88,1-5.07.89a3.37,3.37,0,0,1-1.33.33c-.12-.16-.14-.42-.51-.44l-.25.14a4.6,4.6,0,0,1-1.11,0l0,0c-.42-.08-.43.16-.11.19l-.4.1V1.15a9.39,9.39,0,0,1-1.84.4c.22-.16-.63-.3.12-.35-.22.08.12.16.16.23a1.69,1.69,0,0,0,.64-.16c-.09-.09,0-.31.13-.44-.54.27-2.05,0-2.17.46-.67,0-1.54.08-2.3,0,0,0,.1.06.08.09l-.65-.19.15,0L-14.86,1c0-.07.13-.14.31-.16s.19,0,.09.06c.46-.14-.39-.07-.08-.22a1.84,1.84,0,0,0,.34,0C-14.73.57-15,.85-15.3.6a1.81,1.81,0,0,1-1.25.18c.19-.1-.52,0-.28-.18-.18.1-.61,0-.69.09a.77.77,0,0,1,.43,0c-.2.05-.23.17-.47.15a0,0,0,0,1,0,0c-.32.1-.11.4-.66.4-1.45.09.2-.43,0-.51a1.61,1.61,0,0,1-1,.08l.07-.05c-.15,0-.37.12-.53,0a2.54,2.54,0,0,1-.36.42l-.65,0,.13-.08a2,2,0,0,1-.41,0c-.05-.12.14-.08.34-.13-.11-.11-.24-.11-.39,0h.08c-.17.07-.78.25-.3.29-.36.12-.48-.13-.73-.07,0-.1.21-.13.08-.2a1.5,1.5,0,0,0-.6,0c.19,0-.05.09.25.15-.12.06-.43.08-.41.13a.43.43,0,0,1,.34,0,2.65,2.65,0,0,1-1,0s0-.05.09-.07c-.44.17-1.1.13-1.39.33l.13,0a.55.55,0,0,1,.4,0c-.17,0-.1.08,0,.13-.3,0-.58,0-.94,0a0,0,0,0,0,0,0l0,0-.4,0-.16.1c-.08-.3.48-.09.61-.38-.53,0-.7.25-1.14.28a1.51,1.51,0,0,0,.5.12.91.91,0,0,1-1,.14l0-.06c0,.12-.32,0-.46.06.24.19-.28.12,0,.3a.43.43,0,0,1-.49-.39c-.28.25-.78-.14-1.37,0,.11-.11.76-.13.49-.26l-.77.3h.34c-.58.19-.74,0-1.08-.11-.06-.08.16-.11.32-.11a2.69,2.69,0,0,0-.7.09c-.17.08-.78.18-1,.32l-.1,0a.09.09,0,0,1,.05,0l-.13,0-.31,0,.07,0-.12,0-.32,0-.17.06h.09c0,.2-.42.35-.87.32l.61.07-.12.06-1.43-.11a1.58,1.58,0,0,1,.54,0c-.48-.21-1.21.11-1.44-.16A7.09,7.09,0,0,1-33.18,2c.39.2-.5.12-.52.24l.43.05c0-.12.85-.07.63-.34-1-.09-1.91-.13-2.73-.13l.79-1.37s0,0,0-.09l0,.09c0,.06.17,0,.36,0,0,.06-.08.14.14.13.45.1.69-.17,1-.15l-.1,0a1.7,1.7,0,0,0,.93-.07c.24.24-.89.06-.41.26a4.49,4.49,0,0,0-1.08.11c.44.05.81.29.69.42.93-.15,0-.51.82-.6l.56.05.2-.27c.34,0-.21.22.31.2.14-.13.48,0,.58-.1,0,.06,0,.13.25.14,0,0,0-.14.2-.14.15.27-.54.06-.29.29.6,0,.38-.22.47-.32s-.05,0-.11,0,.26,0,.23-.11a.7.7,0,0,0-.29,0c.18-.08-.3-.17-.48-.18a11.37,11.37,0,0,1-1.84.11c.05,0,.15,0,.08-.08-.81,0-1.15-.07-2.08,0l-.1.19c-.82,0-.4.53-.59.58s-.34.13-.49,0l.08-.08c-.51.07-.16.2-.61.18s.32,0,.09.14c-.49,0-.3.37-1.05.21,0-.07-.09-.23.35-.25l-.43-.14A3.45,3.45,0,0,1-36.45,1c.24-.19.18-.32.41-.48-.2.05-.16.2-.46.19s.06-.09.1-.15c-.47.22-.53-.2-1,0,.09.22,0,.22.31.36-.3.07-.68-.08-.65-.27l-.06.17c-.07,0-.31,0-.33-.09l-.1.09a.91.91,0,0,0,.77.13c-.15.12.21.3-.28.34-.21,0,0-.1,0-.15-1.09.14-1.1-.29-2-.19.21-.08.74,0,1.15-.1-.25-.15-.54.06-.78,0,.22-.09.25-.15,0-.22l-.11.11c-.15,0-.42,0-.44,0s.06.06.2.1A4.21,4.21,0,0,1-41.45,1c0-.23,1-.13.47-.31-.28,0-.5.29-1,.16.2-.13-.22-.13-.22-.21l-.67.27a3,3,0,0,0-1,0,1.18,1.18,0,0,1,.39,0c-.45.28-.83-.09-1.41,0l.26-.1A2.86,2.86,0,0,0-45.72,1V.79c0,.22-.8.27-1,.34,1.07-.15.92.18,2,0-.39.23-.67.27-1.09.48-.16,0-.22-.05-.23-.1s-.18.23-.43.29l-.07-.09c-.71-.09-.64.38-1.32.3-.14-.21.58-.28,1-.41-.32-.19.67-.1.3-.37l-.2.13c-.22,0-.19-.11-.06-.12-.28,0-.21,0-.32.11-1.07,0,.12-.28-.93-.37.11-.05.41-.05.35-.17l.56.05V.71a2,2,0,0,0-1.46.47c.65-.16.07.17.41.25a.28.28,0,0,1-.31,0c0,.05-.38.08-.33.17-.16-.4-1.55-.41-1.24-.81a17.63,17.63,0,0,0-2.49.13l.23-.11c-.9-.35-.79.28-1.32.38.46-.14-.41-.17-.6-.29a3.37,3.37,0,0,1-1.33.33c-.13-.16-.14-.42-.51-.44l-.26.14a4.52,4.52,0,0,1-1.1,0l0,0c-.42-.08-.44.16-.11.19l-.4.1V1.15a9.51,9.51,0,0,1-1.85.4c.23-.16-.63-.3.12-.35-.21.08.12.16.17.23a1.63,1.63,0,0,0,.63-.16c-.09-.09,0-.31.14-.44-.54.27-2.05,0-2.18.46-.66,0-1.53.08-2.29,0,0,0,.09.06.08.09l-.66-.19.15,0L-64.06,1c0-.07.12-.14.3-.16s.2,0,.1.06c.46-.14-.39-.07-.09-.22a1.92,1.92,0,0,0,.35,0c-.53-.11-.78.17-1.1-.08a1.82,1.82,0,0,1-1.25.18c.19-.1-.52,0-.28-.18-.19.1-.62,0-.69.09a.74.74,0,0,1,.42,0c-.2.05-.22.17-.46.15a0,0,0,0,1,0,0c-.32.1-.11.4-.66.4-1.46.09.2-.43,0-.51a1.63,1.63,0,0,1-1,.08l.06-.05a.67.67,0,0,1-.52,0,2.54,2.54,0,0,1-.36.42l-.66,0,.14-.08a2,2,0,0,1-.41,0c-.06-.12.13-.08.33-.13-.1-.11-.23-.11-.39,0h.08c-.16.07-.78.25-.29.29-.37.12-.48-.13-.73-.07,0-.1.2-.13.08-.2a1.5,1.5,0,0,0-.6,0c.19,0-.06.09.25.15-.12.06-.43.08-.42.13a.44.44,0,0,1,.34,0,2.6,2.6,0,0,1-1,0s.05-.05.08-.07c-.43.17-1.09.13-1.38.33l.13,0a.55.55,0,0,1,.4,0Z" transform="translate(78.29 0.42)"/></g></g><path id="Fill-275" class="cls-2" d="M-48.87,3.47l.18-.09a.91.91,0,0,0-.62.16s0,0-.06-.09c-.31,0-.48.22-.32.34l.11-.06.21.16c.08-.31.71-.13,1.06-.27-.24.14-.45.42-.75.23L-49,4c-.26,0-.48-.13-.63,0l.31,0v.08c.22,0,.5-.14.7,0a1.09,1.09,0,0,1,.82-.23l0,0c.32-.29.9.18,1.14,0,.14-.29-.52-.12-.68-.24.2-.12.41,0,.24-.13.47-.14.28.25.67.05l-.22-.07c.17-.14.46-.05.63-.19s-.29,0-.62-.06l.15-.16-.67.17c-.19.25,0,.25-.42.43a.66.66,0,0,1-.27-.42,1.45,1.45,0,0,1-1,.21" transform="translate(78.29 0.42)"/><path id="Fill-277" class="cls-2" d="M-73.88,2.17c0-.14.52,0,.35-.17-.12,0-.41,0-.35.17" transform="translate(78.29 0.42)"/><path id="Fill-279" class="cls-2" d="M-73.87,2.12l.36,0-.22,0s0,.08-.14.08" transform="translate(78.29 0.42)"/><path id="Fill-281" class="cls-2" d="M-74.62,2.13a.67.67,0,0,1-.48.14c-.09-.32.38-.09.49-.39-.43,0-.57.25-.92.28.17.14.89.22.91,0" transform="translate(78.29 0.42)"/><polygon id="Fill-283" class="cls-2" points="4.77 1.47 4.74 1.45 4.44 1.53 4.47 1.55 4.77 1.47"/><path id="Fill-285" class="cls-2" d="M-67.4,4.08c0,.1.21,0,.31,0a.58.58,0,0,0-.31,0" transform="translate(78.29 0.42)"/><path id="Fill-287" class="cls-2" d="M-59,3.1l-.27-.2c-.64.09-.92.27-1.57.32.85.2,1.13-.33,1.84-.12" transform="translate(78.29 0.42)"/><path id="Fill-289" class="cls-2" d="M-59,3.9c-.66,0-.31.18-.91.16l.3.2c-.17-.19.75-.22.61-.36" transform="translate(78.29 0.42)"/><polygon id="Fill-291" class="cls-2" points="15.75 1.45 15.6 1.49 15.56 1.55 15.75 1.45"/><polygon id="Fill-293" class="cls-2" points="21.03 4.49 21.33 4.55 21.09 4.45 21.03 4.49"/><polygon id="Fill-295" class="cls-2" points="15.04 1.46 14.73 1.54 15.65 1.5 15.04 1.46"/><path id="Fill-297" class="cls-2" d="M-59.77,2-60,2.1c.05,0,.39.07.25-.06" transform="translate(78.29 0.42)"/><polygon id="Fill-299" class="cls-2" points="23.16 4.45 22.86 4.53 22.89 4.55 23.18 4.47 23.16 4.45"/><path id="Fill-301" class="cls-2" d="M-58,1c-.26,0-.21.08-.16.14,0-.1.48,0,.16-.14" transform="translate(78.29 0.42)"/><path id="Fill-303" class="cls-2" d="M-54.18,2.08c-.13,0-.26-.06-.35,0a.47.47,0,0,0,.35,0" transform="translate(78.29 0.42)"/><path id="Fill-305" class="cls-2" d="M-53.25,2.05h-.12c.12-.08.07-.07,0,0s-.12.06-.13.09l-.08.06.1-.06c.19,0,.31,0,.27-.07" transform="translate(78.29 0.42)"/><path id="Fill-307" class="cls-2" d="M-47.42,4c-.33,0-.28.16-.49.2.39,0,.47,0,.92,0-.35,0-.44-.08-.43-.19" transform="translate(78.29 0.42)"/><path id="Fill-309" class="cls-2" d="M-48.75,4.08h0" transform="translate(78.29 0.42)"/><polygon id="Fill-311" class="cls-2" points="23.98 1.44 23.81 1.59 24.08 1.41 23.98 1.44"/><path id="Fill-313" class="cls-2" d="M-47.13,4.05c0,.11.36,0,.28,0a.86.86,0,0,1-.28,0" transform="translate(78.29 0.42)"/><path id="Fill-315" class="cls-2" d="M-47.91,2.07a5.81,5.81,0,0,0-.92,0c.35,0,.63.23.92,0" transform="translate(78.29 0.42)"/><path id="Fill-317" class="cls-2" d="M-45.93,4.16c-.08,0-.2-.08-.15-.18-.11.06-.27.26.15.18" transform="translate(78.29 0.42)"/><polygon id="Fill-319" class="cls-2" points="30.51 2.46 30.21 2.54 30.57 2.5 30.51 2.46"/><path id="Fill-321" class="cls-2" d="M-48.77,2c1.31.29-.1-.41.86-.36-.56-.1-.83-.45-.78-.57-.58.28.93.69-.08.93" transform="translate(78.29 0.42)"/><path id="Fill-323" class="cls-2" d="M-48,1.07l.15,0-.15,0" transform="translate(78.29 0.42)"/><path id="Fill-325" class="cls-2" d="M-43.36,2.1l.11,0-.11,0" transform="translate(78.29 0.42)"/><path id="Fill-327" class="cls-2" d="M-47,1.26c.28-.14,1-.13.92-.34a.86.86,0,0,0-.6.1l.09,0Z" transform="translate(78.29 0.42)"/><path id="Fill-329" class="cls-2" d="M-41.38,4l-.22.08.27,0c-.07,0,.07-.18-.05-.1" transform="translate(78.29 0.42)"/><path id="Fill-331" class="cls-2" d="M-44.23,2.05a5.43,5.43,0,0,0-.91,0c.12,0,1,.07.91,0" transform="translate(78.29 0.42)"/><polygon id="Fill-333" class="cls-2" points="38.87 4.5 38.84 4.48 38.48 4.52 38.87 4.5"/><polygon id="Fill-335" class="cls-2" points="41.26 4.52 41.32 4.56 41.62 4.48 41.55 4.44 41.26 4.52"/><path id="Fill-337" class="cls-2" d="M-39.62,1.17c-.23-.16-.25,0-.77,0l.58-.16c-.47,0-.83.16-.71.2Z" transform="translate(78.29 0.42)"/><path id="Fill-339" class="cls-2" d="M-26.84,4.08h.22a.75.75,0,0,0-.22,0" transform="translate(78.29 0.42)"/><path id="Fill-341" class="cls-2" d="M-19.19,4.08h0" transform="translate(78.29 0.42)"/><path id="Fill-343" class="cls-2" d="M-28.35,4c.24.09-.18.13-.22.19h.86c0-.07.08-.14.06-.2Z" transform="translate(78.29 0.42)"/><path id="Fill-345" class="cls-2" d="M-28.08,4.14A1.68,1.68,0,0,1-27.65,4h-.92c0,.05.11.09.49.12" transform="translate(78.29 0.42)"/><polygon id="Fill-347" class="cls-2" points="50.81 1.47 50.48 1.53 50.61 1.52 50.81 1.47"/><path id="Fill-349" class="cls-2" d="M-24.88,2.1a2.23,2.23,0,0,0-.93,0c.57,0,.33,0,.93,0" transform="translate(78.29 0.42)"/><polygon id="Fill-351" class="cls-2" points="52.33 1.54 52.65 1.48 52.62 1.46 52.33 1.54"/><path id="Fill-353" class="cls-2" d="M-9.23,4.07v0s0,0,0,0" transform="translate(78.29 0.42)"/><path id="Fill-355" class="cls-2" d="M-12.86,4l-.18.14.26,0A.4.4,0,0,0-12.86,4" transform="translate(78.29 0.42)"/><path id="Fill-357" class="cls-2" d="M-12.18,4.07l.38,0Z" transform="translate(78.29 0.42)"/><path id="Fill-359" class="cls-2" d="M-13.06,4.06v0l.28,0-.29,0" transform="translate(78.29 0.42)"/><path id="Fill-361" class="cls-2" d="M-12,4.19l-.15-.2-.77,0c.08.13.18.27.92.23" transform="translate(78.29 0.42)"/><polygon id="Fill-363" class="cls-2" points="54.2 1.55 54.49 1.47 54.46 1.45 54.17 1.53 54.2 1.55"/><path id="Fill-365" class="cls-2" d="M-22,1a.38.38,0,0,0-.18.08L-22,1" transform="translate(78.29 0.42)"/><path id="Fill-367" class="cls-2" d="M-20.63.73c-.32.11-.35.23-.57.35C-20.82,1-20,1.19-19.52,1c.27-.22.11-.51.11-.82,0-.08-.74-.11-.76.1.32.13-.46.17.15.23.05.13-.23.29-.52.23,0-.12.28-.08.11-.2-.19.14-.27.05-.2.23" transform="translate(78.29 0.42)"/><g id="Group-371"><g class="cls-5"><path id="Fill-369" class="cls-2" d="M-21.24-.41a1.16,1.16,0,0,0-.49,0c0,.16.28,0,.49,0" transform="translate(78.29 0.42)"/></g></g><path id="Fill-372" class="cls-2" d="M-11.22,4.06c0,.09.19,0,.29,0a.92.92,0,0,0-.29,0" transform="translate(78.29 0.42)"/></g></g></g></g></svg>