<?xml version="1.0" encoding="UTF-8"?>
<svg width="397px" height="27px" viewBox="0 0 397 27" version="1.1" xmlns="http://www.w3.org/2000/svg" xmlns:xlink="http://www.w3.org/1999/xlink">
    <title>41740180-6020-40CC-94DE-772F06144A2F</title>
    <g id="Page-1" stroke="none" stroke-width="1" fill="none" fill-rule="evenodd">
        <g id="CAREERS" transform="translate(-145.000000, -1371.000000)" fill="#FFB900">
            <path d="M458.544657,1395.53845 C458.445657,1395.54545 458.361657,1395.55345 458.268657,1395.56045 C458.706657,1395.42845 458.904657,1395.38145 458.544657,1395.53845 L458.544657,1395.53845 Z M454.9315,1395.519 C454.9555,1395.506 454.9615,1395.496 454.9915,1395.481 L456.0685,1395.507 C455.6635,1395.508 455.2825,1395.512 454.9315,1395.519 L454.9315,1395.519 Z M425.134,1395.47807 C425.395,1395.48807 425.632,1395.50507 425.866,1395.52107 C425.404,1395.52607 425.197,1395.50907 425.134,1395.47807 L425.134,1395.47807 Z M385,1396.5795 C386.019946,1396.5265 387.034451,1396.4735 388,1396.4205 C387.102448,1396.4845 386.13146,1396.5425 385,1396.5795 L385,1396.5795 Z M374.002027,1396.68605 C370.737861,1396.23367 374.782159,1396.2221 372.636797,1395.5826 L370.312215,1396.05619 L371.408616,1396.12178 C371.054131,1396.76515 367.811049,1396.05812 368.103599,1396.84328 C365.742119,1396.23946 365.041054,1396.60792 362.44369,1396.04269 C361.828282,1396.3118 362.782362,1396.31952 363.515053,1396.36293 C362.198581,1396.33399 362.126102,1397.09696 360.402433,1396.6359 C359.52742,1396.53269 360.130968,1397.18184 361.676736,1397.17316 C360.35631,1397.14422 359.092549,1397.27251 357.63112,1397.18473 L359.124176,1397.68534 L357.582362,1397.69498 L358.880385,1397.97664 C355.932489,1398.0567 352.553675,1397.95445 351,1397.29855 C353.547288,1396.78637 357.794526,1396.99085 359.269133,1396.15844 C358.703801,1395.91923 357.229194,1396.75261 356.48596,1396.04269 L355.709782,1396.50761 C354.811049,1396.65808 352.736847,1396.84135 352.55631,1396.37064 C354.47633,1396.10442 355.289407,1395.7948 356.148606,1395.48035 L356.185504,1395.87486 C356.721845,1394.76947 359.066194,1396.19895 359.054334,1395.00579 C359.125494,1395.00386 359.194019,1395.00193 359.263862,1395 C359.613077,1395.14758 360.086163,1395.16205 360.57111,1395.14372 C360.538165,1395.245 360.34445,1395.34821 360.294374,1395.40126 C361.143031,1395.57006 361.915256,1395.55752 362.661125,1395.47456 C362.684845,1395.59321 362.666396,1395.74464 362.589965,1395.94141 C365.045008,1396.02436 366.758135,1395.37425 368.948302,1395.15722 C369.621693,1395.34242 370.669336,1395.43502 370.135631,1395.58549 C371.222808,1395.64915 372.016118,1395.49675 372.735631,1395.30384 C373.586923,1396.02919 375.224937,1396.2385 377,1396.30216 C376.318702,1396.51822 375.589965,1396.72753 374.002027,1396.68605 L374.002027,1396.68605 Z M308.047213,1396.99245 L304.050854,1396.79079 C304.729192,1396.76133 304.8136,1396.66767 305.137422,1396.60045 C302.382636,1396.9003 301.382011,1396.52115 299.311701,1397 C297.997998,1396.80665 301.352852,1396.68127 299.916373,1396.61178 C300.705209,1396.56118 301.464885,1396.34517 302.075696,1396.11329 C302.018912,1396.19411 301.963663,1396.26888 301.911483,1396.32855 L302.183125,1396.07326 C302.470114,1395.95997 302.729478,1395.84517 302.915177,1395.7432 C302.695714,1395.73112 302.502342,1395.72508 302.324317,1395.7213 C302.480856,1395.45921 302.643535,1395.17221 302.810817,1394.90483 L303.857482,1394.7855 C303.552077,1394.80967 303.205235,1394.821 302.862997,1394.821 C302.999585,1394.6065 303.139243,1394.41314 303.2789,1394.27039 C304.684686,1394.26737 305.854127,1394.34592 307.353529,1394 C307.339716,1394.71979 308.096323,1394.83006 307.353529,1395.24169 C307.204663,1395.23414 307.134067,1395.2213 307.09263,1395.20468 C306.262357,1395.59441 304.489779,1396.01737 303.114688,1396.11178 C307.968943,1396.34819 306.718163,1396.09668 310.976955,1396.26888 C311.349887,1396.68505 307.058866,1396.71299 308.047213,1396.99245 L308.047213,1396.99245 Z M299,1396.75672 C300.783193,1396.20568 299.994366,1396.39447 303.688519,1396 C304.349578,1396.3914 303.891281,1396.47429 302.944134,1396.82579 C303.105232,1396.84574 303.208002,1396.85035 303.349657,1396.86493 C302.863584,1396.92172 302.246966,1396.9693 301.394256,1397 L299,1396.75672 Z M297.308,1396.5345 C297.374,1396.5095 297.434,1396.4875 297.497,1396.4655 C297.602,1396.4865 297.674,1396.5085 297.692,1396.5295 C297.545,1396.5365 297.446,1396.5295 297.308,1396.5345 L297.308,1396.5345 Z M288.769157,1394.75325 C287.638554,1395.48237 288.691084,1395.48701 286.295422,1396 C285.446747,1395.68646 284.85253,1395.22635 284.725301,1394.78664 C283.867952,1395.23377 281.596627,1395.40909 279.099759,1395.37662 L280.171084,1395.13544 C279.72,1395.11132 279.339759,1395.1141 279,1395.12987 C279.02747,1395.07607 279.05494,1395.01763 279.078072,1394.94898 L280.565783,1394.63265 C281.813494,1394.66327 283.06988,1394.70594 284.337831,1394.76902 C284.343614,1394.86642 284.33494,1394.94434 284.463614,1394.7885 C284.447711,1394.782 284.436145,1394.77737 284.423133,1394.7718 C284.524337,1394.77737 284.624096,1394.78015 284.725301,1394.78571 C284.718072,1394.7616 284.709398,1394.73748 284.70506,1394.71429 C285.96,1394.84972 285.516145,1394.48423 285.773494,1394.32653 C286.724819,1394.39889 287.758554,1394.38312 287.718072,1394.74768 C288.33253,1394.47681 289.574458,1394.23933 290.447711,1394 L291,1394.47124 L288.769157,1394.75325 Z M277,1395.6365 L277.643836,1395.0775 C278.342466,1395.1005 279.19726,1395.3835 280,1395.5865 C279.106849,1395.6915 278.408219,1395.8225 277.69589,1395.9225 C277.871233,1395.8205 277.580822,1395.7585 277,1395.6365 L277,1395.6365 Z M239,1392.7695 L239.007281,1392.7625 C239.151074,1392.7285 239.273025,1392.6835 239.380415,1392.6305 C240.672734,1392.4625 241.102293,1392.2445 240.787404,1392.0455 L241.444485,1392.0375 L244,1392.9625 L241.926829,1392.9495 C240.883873,1392.8785 239.87004,1392.8075 239,1392.7695 L239,1392.7695 Z M227.330691,1392.841 C227.330691,1392.841 227.453555,1392.738 227.794402,1392.699 C224.663364,1392.702 223.886549,1392.73 222,1392.789 C222.05945,1392.575 222.188259,1392.379 222.441912,1392.205 L223.866733,1392.19 L224.261085,1392.338 L224.926926,1392.178 L226.635125,1392.159 C226.926431,1392.365 226.623235,1392.53 226.623235,1392.617 C227.631905,1392.458 228.785237,1392.425 230,1392.45 C229.132029,1392.569 228.242259,1392.698 227.330691,1392.841 L227.330691,1392.841 Z M179.251181,1389.72836 C179.24406,1389.71136 179.24406,1389.69836 179.234565,1389.68236 L179.11825,1389.74336 C179.094513,1389.74536 179.066027,1389.74836 179.044664,1389.75136 C178.952087,1389.64036 179.011431,1389.55736 179.149109,1389.49036 C179.115876,1389.33636 179.246434,1389.21436 180.015533,1389.25736 L179.865986,1389.33336 C180.141343,1389.30836 180.468922,1389.29836 180.810744,1389.29436 C180.976908,1389.34636 181.29974,1389.40036 182,1389.45436 C181.363831,1389.57436 180.041645,1389.64636 179.251181,1389.72836 L179.251181,1389.72836 Z M177.491968,1384.7845 C176.948968,1384.5505 175.889968,1384.2365 176.837968,1384.2155 L178.541968,1384.4825 C178.259968,1384.6045 177.926968,1384.7105 177.491968,1384.7845 L177.491968,1384.7845 Z M277,1372.33476 C274.10448,1372.50676 274.861822,1373.04276 272.310241,1372.97276 C272.167922,1372.45276 270.241529,1372.94876 268.652297,1372.98176 L269.773908,1372.61976 L268,1372.42876 C269.870482,1371.83076 275.907191,1371.96376 277,1372.33476 L277,1372.33476 Z M274,1373.8555 C272.412178,1373.5385 269.381733,1373.8555 269,1373.1855 C270.484778,1373.1605 271.95082,1373.1485 273.40281,1373.1445 C273.316159,1373.1545 273.224824,1373.1655 273.163934,1373.1705 C273.442623,1373.2085 273.866511,1373.3565 274,1373.8555 L274,1373.8555 Z M294,1373.12785 C293.92201,1373.32785 293.57539,1373.51185 293.642981,1373.63185 C292.057192,1373.78985 290.481802,1373.92985 289,1373.88785 C290.545927,1373.59185 291.590988,1372.97785 294,1373.12785 L294,1373.12785 Z M298.875776,1373.429 C297.511387,1373.51 296.10559,1373.59 294.583851,1373.666 C294.395445,1373.597 294.194617,1373.547 294,1373.489 C295.766046,1373.397 297.68323,1373.377 299,1373.334 L298.875776,1373.429 Z M304,1373.34853 C302.397826,1373.45353 300.734783,1373.55453 299,1373.65353 C302.093478,1373.36953 303.006522,1373.33653 304,1373.34853 L304,1373.34853 Z M326.717385,1373.17885 C327.476792,1373.28385 327.84345,1373.36485 328,1373.43585 C326.527877,1373.71585 324.999451,1373.95185 323,1373.75285 C323.947542,1373.48685 324.612194,1373.12385 326.717385,1373.17885 L326.717385,1373.17885 Z M331.643031,1373 C333.559958,1373.37331 334.649635,1373.37718 336,1373.45745 C335.810567,1373.54739 335.709767,1373.7089 335.758429,1374 C334.522767,1373.30851 331.173792,1374.27176 331,1373.37621 C331.467501,1373.32979 331.754258,1373.22921 331.643031,1373 L331.643031,1373 Z M345.829633,1372.59658 L344.215481,1372.22982 L345.883771,1372.22346 L344.48047,1372.01712 C347.667458,1371.95846 351.320313,1372.03337 353,1372.5139 C350.246112,1372.88913 345.654399,1372.73932 344.060192,1373.34846 C344.671376,1373.52371 346.265582,1372.91387 347.067672,1373.43397 L347.906803,1373.09336 C348.878428,1372.98241 351.122284,1372.84885 351.317464,1373.1937 C350.653568,1373.25589 350.112193,1373.32161 349.653449,1373.38945 L349.724682,1373.24034 L349.41268,1373.42902 C348.278642,1373.60992 347.638965,1373.80567 346.785587,1374 C346.691559,1373.97315 346.641695,1373.9152 346.665915,1373.79436 L347.120385,1373.64172 L341.065535,1373.4587 L341,1372.97817 C341.427401,1372.88489 341.910364,1372.83189 342.833551,1372.99937 C343.779532,1373.07428 343.128458,1372.5987 341.457319,1372.60576 C342.884839,1372.62626 344.251098,1372.53298 345.829633,1372.59658 L345.829633,1372.59658 Z M353.210048,1373.33148 C353.264048,1373.46248 353.051048,1373.58148 352.271048,1373.66248 C352.064048,1373.67448 351.911048,1373.66748 351.782048,1373.65148 C351.830048,1373.63348 351.830048,1373.62148 351.890048,1373.60248 C351.578048,1373.45048 352.181048,1373.34948 353.210048,1373.33148 L353.210048,1373.33148 Z M365.26,1373.527 C365.485,1373.492 365.653,1373.445 365.764,1373.387 L365.932,1373.58 C365.647,1373.591 365.371,1373.601 365.068,1373.613 C365.134,1373.585 365.182,1373.556 365.26,1373.527 L365.26,1373.527 Z M394,1372.1795 C393.852658,1372.3745 393.700486,1372.5955 393.545898,1372.8205 C392.86233,1372.8075 392.05799,1372.7865 391.036261,1372.7515 C390.722254,1372.4575 392.509676,1372.3105 394,1372.1795 L394,1372.1795 Z M393.1705,1372.44797 C392.8495,1372.50997 392.4385,1372.55397 391.8295,1372.55197 C392.3245,1372.51697 392.7895,1372.48297 393.1705,1372.44797 L393.1705,1372.44797 Z M398,1372.183 C397.953496,1372.201 397.897691,1372.22 397.854288,1372.236 C397.094724,1372.291 396.852903,1372.382 396.332059,1372.452 C396.716492,1372.425 397.04822,1372.411 397.40165,1372.391 C396.682389,1372.618 396.319658,1372.592 393.38061,1372.956 L393.331006,1372.956 C392.704753,1372.521 393.027181,1372.368 393.796045,1372.044 L398,1372.183 Z M417.976027,1373.2185 C418.339041,1373.2805 418.681507,1373.3465 419,1373.4165 L415.369863,1373.7685 C414.883562,1373.7555 414.434932,1373.7655 414,1373.7815 C414.434932,1373.6225 415.267123,1373.4835 417.976027,1373.2185 L417.976027,1373.2185 Z M425.7745,1373.3935 C425.6215,1373.4725 425.7895,1373.5285 426.1675,1373.6065 C425.7175,1373.5815 425.2765,1373.5525 424.8325,1373.5245 C425.1505,1373.4785 425.4625,1373.4325 425.7745,1373.3935 L425.7745,1373.3935 Z M459.933536,1373.05899 C459.294536,1373.48127 459.207536,1373.5618 458.781536,1373.66386 C458.331536,1373.64232 457.824536,1373.62734 457.197536,1373.63483 L457.338536,1373.97846 C457.302536,1373.98689 457.281536,1373.99064 457.242536,1374 C456.870536,1373.52622 457.125536,1373.42228 457.656536,1373 L459.933536,1373.05899 Z M463,1373.19999 L462.893014,1373.72699 C461.606297,1373.92299 460.851615,1373.89399 460.010189,1373.83499 C459.975491,1373.60199 460.027538,1373.35999 460.195245,1373.12099 L463,1373.19999 Z M471.8405,1373.404 L471.7115,1373.596 C471.5405,1373.587 471.3545,1373.53 471.1595,1373.453 C471.3905,1373.437 471.6185,1373.42 471.8405,1373.404 L471.8405,1373.404 Z M524.718,1379.43547 C524.217,1379.63247 523.341,1379.59647 522.282,1379.43047 C523.155,1379.44947 523.938,1379.45047 524.718,1379.43547 L524.718,1379.43547 Z M257.801605,1393.8835 L257.944271,1393.7845 L253,1393.8945 L254.034329,1393.1055 L258,1393.7045 L258,1393.8465 C257.930896,1393.8595 257.870709,1393.8705 257.801605,1393.8835 L257.801605,1393.8835 Z M186.1045,1389.5445 C185.6695,1389.5255 185.2705,1389.4945 184.8955,1389.4555 C185.2795,1389.4785 185.6875,1389.5105 186.1045,1389.5445 L186.1045,1389.5445 Z M514.545,1379.5415 L514.269,1379.4585 C514.428,1379.4615 514.584,1379.4625 514.731,1379.4635 C514.725,1379.5045 514.68,1379.5355 514.545,1379.5415 L514.545,1379.5415 Z M520.75,1379.391 C521.359,1379.422 521.857,1379.445 522.25,1379.46 C522.082,1379.515 521.869,1379.563 521.68,1379.609 C521.374,1379.54 521.062,1379.467 520.75,1379.391 L520.75,1379.391 Z M252.9235,1393.542 L251.0695,1393.722 C251.1475,1393.319 250.3495,1393.386 250.0765,1393.278 C250.9495,1393.331 251.9095,1393.424 252.9235,1393.542 L252.9235,1393.542 Z M525.533699,1384.195 C525.794699,1384.432 526.445699,1384.782 525.914699,1384.805 L524.882699,1384.496 C525.050699,1384.368 525.257699,1384.262 525.533699,1384.195 L525.533699,1384.195 Z M337.6885,1373.6 C338.3245,1373.558 338.8255,1373.479 339.3115,1373.4 C338.8855,1373.546 338.3185,1373.597 337.6885,1373.6 L337.6885,1373.6 Z M541.33612,1389.35791 C541.33612,1389.35791 539.450702,1388.91083 537.33691,1388.35559 C537.251933,1388.2943 537.174923,1388.23589 537.109863,1388.18037 C538.497371,1388.40463 537.476324,1388.07941 537.202806,1387.80179 L537.109863,1388.0073 C536.280013,1387.80612 536.280013,1387.28477 535.864425,1387.14055 C535.864425,1387.18238 535.876375,1387.23285 535.888324,1387.28477 L535.941435,1387.21482 C535.981268,1387.30712 535.957368,1387.37058 535.913552,1387.42322 C535.924174,1387.53427 535.884341,1387.62152 535.658622,1387.59051 L535.702438,1387.53643 C535.354565,1387.61215 534.755746,1387.52994 534.495505,1387.49317 L534.490194,1387.05835 C534.184809,1387.46865 533.166418,1387.16146 532.116161,1386.74467 C534.621642,1386.95379 532.724274,1386.63363 532.210431,1386.35961 L532.035167,1386.56512 C531.768288,1386.53123 531.559829,1386.4858 531.371288,1386.43677 C531.051298,1386.3012 530.747241,1386.17141 530.472395,1386.06036 C530.22012,1385.90604 530.022284,1385.76327 529.665117,1385.69837 C529.665117,1385.72577 529.682378,1385.75966 529.695656,1385.79211 C529.630595,1385.77841 529.572174,1385.76832 529.524375,1385.76687 C528.808712,1385.29312 527.943013,1385.73515 527.053415,1385.68972 L527.052087,1385.61617 C527.017565,1385.64068 526.961799,1385.65438 526.916656,1385.67385 C526.821057,1385.66376 526.72413,1385.65294 526.628532,1385.6277 C525.061776,1385.49502 525.704411,1385.04506 525.073726,1384.67875 C525.247662,1384.70326 525.452137,1384.75662 525.708395,1384.85902 C525.084348,1384.03409 526.530278,1384.36435 526.325803,1383.94395 C526.409452,1384.04635 526.599321,1384.1985 526.752013,1384.33983 C527.735883,1384.24393 529.590763,1384.01318 530.050167,1383.58918 C530.050167,1383.58918 528.960077,1383.09739 527.78501,1382.50538 C528.502,1382.40515 529.096836,1382.28761 529.386288,1382.14699 C529.386288,1382.14699 527.50087,1381.69992 525.387077,1381.14468 C525.3021,1381.08338 525.22509,1381.02498 525.16003,1380.96945 C526.547538,1381.19371 525.526492,1380.8685 525.252973,1380.59088 L525.16003,1380.79639 C524.330181,1380.59521 524.330181,1380.07386 523.914592,1379.92964 C523.914592,1379.97146 523.926542,1380.02194 523.938492,1380.07386 L523.991602,1380.00391 C524.031435,1380.09621 524.007535,1380.15967 523.963719,1380.21231 C523.974341,1380.32335 523.934508,1380.41061 523.708789,1380.3796 L523.752605,1380.32552 C523.404732,1380.40123 522.805913,1380.31903 522.545672,1380.28225 L522.541689,1379.93685 C522.797946,1379.92603 523.055532,1379.90801 523.327722,1379.87411 C522.448746,1379.79552 523.578669,1379.6549 522.188505,1379.51717 C522.722264,1379.38738 524.133672,1379.3369 524.077906,1379.22008 C523.62514,1379.27489 523.313117,1379.37584 522.521773,1379.22657 C524.016829,1379.10183 525.574291,1379.09389 527.106525,1379.27777 C527.050759,1379.33257 526.899395,1379.38594 526.72413,1379.43641 C528.715769,1379.029 531.705883,1379.135 533.040281,1378.66196 L532.450756,1378.5675 C531.970107,1378.69801 530.994204,1378.71244 530.606498,1378.59129 C532.101555,1378.46727 529.545619,1378.16152 531.125652,1377.96466 C533.301849,1377.75555 535.233739,1378.26248 536.420756,1377.74185 C534.353435,1377.68921 531.562485,1377.41015 530.723341,1377.64089 L532.057739,1377.66181 L529.010532,1378.29132 C528.893689,1378.05696 526.323147,1378.43914 526.373602,1378.05913 C527.422532,1377.99134 528.379846,1377.99567 529.200401,1377.95673 C529.005221,1377.79377 526.393518,1377.86876 525.290151,1377.81973 L526.680314,1377.95745 C524.197405,1378.26752 521.026716,1378.16441 518.619488,1378.40092 C520.512873,1378.10239 516.213589,1378.14061 517.731217,1377.82621 C518.348625,1377.62503 519.3471,1377.93582 519.060304,1377.84857 C519.250174,1377.5111 517.589147,1377.78079 517.10186,1377.53057 C516.84693,1377.74978 514.38792,1377.86876 515.837833,1378.12403 C515.350545,1378.03173 514.508746,1378.12403 513.680224,1378.15575 C513.499649,1378.01226 513.494338,1377.83703 513.361562,1377.66181 C515.894926,1377.30054 518.421652,1376.92918 519.718873,1376.76765 L519.092171,1376.96884 C521.01211,1376.47994 522.947983,1376.98759 524.922361,1376.61767 C524.84004,1376.6905 524.615649,1376.71862 524.983438,1376.73376 C527.422532,1376.80515 528.391796,1376.12155 530.350241,1376.43884 L530.105933,1376.65588 C530.271903,1376.62992 531.429709,1376.45109 531.200007,1376.20881 C529.557569,1376.28885 529.246873,1376.38908 527.778371,1376.32346 C528.379846,1376.12588 529.689017,1375.96075 530.651642,1375.95931 L530.757863,1375.57713 C531.995334,1375.17332 533.25405,1375.76534 534.486211,1375.36225 L533.040281,1375.10554 C533.081441,1375.08895 533.195629,1375.07958 533.287244,1375.0666 C532.632659,1375.10554 532.068361,1375.15601 531.914341,1375.24687 C529.736816,1375.45455 528.618843,1374.90796 528.268314,1374.70173 C527.248595,1374.57842 528.634776,1374.22004 528.511294,1373.98496 C526.874167,1374.065 526.968438,1374.48972 525.327328,1374.56905 C524.895806,1374.51857 525.045843,1374.44141 525.239696,1374.39959 L524.142967,1374.59356 C524.08189,1374.4753 521.273679,1374.38877 522.936033,1374.11836 C523.184324,1374.1299 523.643729,1374.11836 523.999569,1374.13495 C521.709184,1373.85949 517.749806,1373.55663 517.874615,1373.1283 C516.625194,1373.03312 516.973067,1373.24152 514.984084,1373.11388 C514.061291,1373.41674 515.05711,1373.72897 512.884896,1373.93737 L514.597706,1374.0888 C514.95089,1374.03039 515.244324,1373.9554 515.629375,1373.90708 L513.844866,1373.94314 C514.972134,1373.8018 514.771642,1373.63956 515.103582,1373.34824 C517.84806,1373.31867 518.602227,1373.84795 519.993719,1373.98785 C519.141298,1374.21787 517.671468,1374.15153 518.219833,1374.52001 C516.84693,1374.19191 516.698221,1374.83585 515.103582,1374.53371 L515.410294,1374.4342 C514.117057,1374.71975 513.939137,1374.36786 512.870291,1374.62601 C512.951284,1374.55318 512.807886,1374.50847 512.671127,1374.46377 C510.347548,1374.62817 513.374839,1374.6873 511.044622,1375.0428 C508.977301,1374.98728 510.372776,1374.43781 509.803167,1374.2597 C513.272602,1373.76431 509.732796,1373.64388 513.486371,1373.23863 C513.471766,1372.74108 511.999281,1372.67474 509.993037,1372.73819 C511.30088,1372.94947 509.160532,1373.4665 510.898569,1373.8119 C507.899161,1374.06068 508.150107,1375.02766 504.797515,1374.57265 L504.879836,1374.4991 L503.501622,1374.85892 L501.602926,1374.65846 C502.779321,1374.13639 504.227906,1374.3931 505.153355,1374.09024 C502.843054,1373.56673 502.051709,1374.60366 499.386896,1374.56039 C497.169538,1373.96405 502.099508,1374.22076 502.087559,1373.72393 C501.552472,1373.85444 500.098575,1373.59773 500.271184,1373.45207 C502.764716,1373.63956 501.788813,1373.1384 504.56914,1373.41386 C503.213498,1373.58331 504.776271,1373.5761 504.522669,1373.79604 C504.919669,1373.62081 507.522077,1373.5451 509.362351,1373.62874 C509.781923,1373.26387 507.767712,1373.32733 506.605923,1373.16147 C504.405826,1373.56024 502.126064,1372.84564 500.434498,1373.30569 C498.060465,1373.35328 500.256579,1372.95452 500.113181,1372.90981 C497.980799,1372.73819 499.187732,1373.21267 498.509247,1373.29704 C495.289431,1373.57322 494.929609,1372.86871 492.633913,1372.84347 C490.724595,1373.33309 486.074783,1373.16364 482.819117,1373.13263 C483.212134,1372.95957 482.780612,1372.82545 482.584104,1372.66248 C480.645575,1373.34319 481.342649,1373.06629 478.919488,1373.49462 L480.969548,1373.73835 C479.325783,1373.81839 478.003334,1374.29503 476.495,1373.92078 C477.902425,1374.36065 476.02099,1374.40752 474.357308,1374.47098 C473.879314,1374.36209 473.434515,1374.22653 473.024237,1374.07005 C474.298886,1373.88978 475.439431,1373.71023 477.193401,1373.64677 C475.099525,1373.38069 473.806288,1373.64605 472.518361,1373.84435 C472.396207,1373.78522 472.251482,1373.73907 472.13995,1373.67417 L472.043023,1373.91357 C471.790749,1373.94674 471.534492,1373.97414 471.270268,1373.99217 C471.052515,1373.83497 470.849368,1373.74412 470.719247,1374.00371 C470.24391,1374.00948 469.742017,1373.99001 469.161786,1373.90059 L470.30897,1374.35488 L469.765916,1374.54092 C469.574719,1374.5229 469.410077,1374.55679 469.249418,1374.59284 C468.905528,1374.58202 468.600144,1374.54164 468.353181,1374.43781 L468.581555,1374.40968 L468.102234,1374.39598 C468.098251,1374.31234 468.106217,1374.2359 468.041157,1374.3657 C468.058418,1374.37796 468.073023,1374.38589 468.087629,1374.39598 L466.142462,1374.33974 L466.438552,1373.74123 C464.76292,1373.51265 462.702237,1373.95612 463.279813,1374.13495 C461.520532,1373.98063 462.557512,1373.91141 462.302582,1373.63235 C463.294418,1373.44631 465.429455,1372.93073 466.040224,1373.41674 C465.896826,1373.37203 465.526381,1373.35545 465.441405,1373.42828 C470.020846,1373.70085 466.935134,1372.70214 469.220207,1372.54927 C468.029207,1372.50672 467.140936,1372.21757 465.867615,1372.37621 C465.27809,1372.38919 462.874846,1372.6257 461.662602,1372.83915 C463.327612,1372.56874 464.182689,1372.83626 465.489204,1373.04826 C464.381853,1372.99851 464.201278,1373.33454 463.25193,1373.13912 L463.561298,1373.03817 L462.351709,1373.25233 C462.246816,1373.04898 461.167348,1373.03096 460.616328,1372.97255 C460.630933,1372.95452 460.636244,1372.93505 460.652177,1372.91702 C460.632261,1372.93794 460.621639,1372.95092 460.604378,1372.97111 C460.208706,1372.92784 460.101157,1372.86366 460.871258,1372.68916 C459.409395,1372.75983 460.089207,1372.95668 459.211559,1373.08648 C458.498552,1372.84419 458.748171,1373.48308 458.081635,1373.46289 C458.045786,1373.58043 458.008609,1373.71167 457.972759,1373.84579 L457.178759,1373.71023 C457.439,1373.98929 455.821789,1373.87896 455.370351,1373.93521 C454.205906,1373.76863 454.960074,1373.11388 452.98304,1373.48452 L453.12511,1373.52923 C451.99386,1373.67057 451.323341,1373.75493 449.703475,1373.64388 C449.791107,1373.57178 450.237234,1373.51481 450.45897,1373.48741 C448.552308,1373.30497 445.69497,1373.72176 444.213191,1373.49173 C444.259662,1373.41097 444.347294,1373.33237 444.539819,1373.26099 L444.116264,1373.4802 C443.877268,1373.43693 443.670137,1373.37924 443.524084,1373.29127 C443.707314,1372.95668 444.651351,1373.15138 444.700478,1372.77064 C448.192485,1373.27036 447.147538,1372.15339 451.262264,1372.45048 C451.452134,1373.30209 454.731699,1371.95509 455.515077,1372.79444 C453.899194,1372.68411 451.756191,1373.19969 452.041659,1373.28983 C453.528749,1373.24224 455.612003,1373.22421 456.648983,1373.31218 C455.736813,1373.03384 456.02892,1372.56513 456.691472,1372.27381 C454.288227,1372.50961 449.9199,1371.93346 446.518181,1371.85774 L446.899247,1372.37044 C443.960916,1372.73819 447.256415,1371.89091 444.963375,1371.86351 L443.950294,1372.23992 L443.805569,1372.19521 L442.12197,1372.65527 C443.311642,1372.63219 442.764605,1372.26372 444.072448,1372.475 C445.235565,1372.64157 444.023321,1372.85501 443.690054,1373.14705 C442.896054,1372.99562 440.065271,1373.10018 441.812602,1372.75694 L438.709629,1373.2682 C438.730873,1373.07783 439.409358,1372.99274 439.724037,1372.89323 L437.484107,1372.98337 L437.5651,1372.91126 C435.991706,1373.10739 433.876585,1373.13479 432.445261,1373.37708 C432.110666,1373.34247 431.757482,1373.30497 431.380398,1373.26459 L431.914157,1373.55447 C431.140074,1373.66263 430.369973,1373.76719 429.821609,1373.71023 C429.857458,1373.42756 430.338107,1373.09658 431.562301,1372.91126 C432.192987,1373.20762 433.800903,1372.8204 434.986592,1372.79732 C433.457013,1372.61345 432.981676,1372.85934 431.785365,1372.88313 C432.631147,1372.65383 430.196037,1372.58316 430.221264,1372.39279 C430.380595,1372.24641 430.881161,1371.81015 432.417378,1371.99331 C434.710418,1372.01854 432.656375,1372.46202 433.333532,1372.37765 C433.941645,1372.86438 436.532104,1372.29184 437.922268,1372.43029 C438.068321,1372.475 437.6129,1372.53124 437.387181,1372.55936 C438.583492,1372.53557 441.099595,1372.53413 441.284154,1372.19738 L438.292712,1372.44687 C437.64211,1372.34159 439.216833,1372.14329 438.28209,1371.9486 C437.60095,1372.03225 436.785706,1372.07263 435.901418,1371.99619 L436.067388,1371.85053 C434.253669,1371.57796 431.418903,1371.68107 429.330338,1371.81736 C428.961221,1372.40649 428.201742,1372.81679 427.446247,1373.35545 C426.702702,1373.31939 425.964468,1373.27252 425.240839,1373.21267 C426.719963,1373.10451 427.464836,1372.71656 426.661542,1372.46202 L426.117161,1372.59181 L424.980599,1372.23415 C424.675214,1372.72377 422.906639,1372.67113 421.24694,1372.70647 C420.954833,1372.65311 420.678659,1372.59325 420.407796,1372.53268 C421.282789,1372.25867 422.17106,1372.01422 423.338161,1372.31563 L423.162896,1371.9623 C424.574304,1371.9111 425.717505,1372.26804 426.500883,1371.92048 L424.857117,1372.00052 L424.885,1371.81015 C423.720555,1371.83322 422.23612,1372.13176 421.161963,1371.92048 C420.677331,1372.0409 420.205977,1372.19665 419.524836,1372.30914 C419.430565,1372.28246 419.325672,1372.25939 419.235385,1372.23199 L419.133147,1372.36467 C418.643204,1372.42524 418.039074,1372.45913 417.283579,1372.45048 C417.126903,1372.40793 416.979522,1372.38702 416.846746,1372.40433 L416.886579,1372.37044 C415.173769,1373.02086 412.114612,1371.96807 410.820047,1372.25362 C410.072518,1372.90909 413.599047,1372.53052 414.454124,1372.79877 C413.387933,1373.05692 412.247388,1372.69998 413.162214,1373.08504 C412.754592,1373.13552 412.44788,1373.15282 412.198261,1373.15066 C412.06814,1373.1247 411.934037,1373.09081 411.790639,1373.04466 L411.790639,1373.04466 C411.787983,1373.04249 411.784,1373.04249 411.784,1373.04249 C411.709645,1373.01798 411.631308,1372.99274 411.555625,1372.96245 C411.555625,1372.98337 411.562264,1373.00139 411.567575,1373.0187 C411.450732,1373.00428 411.352478,1372.9949 411.25688,1372.98553 C410.926268,1372.85717 410.676649,1372.73747 409.62108,1372.96678 L410.364625,1373.07278 C410.332759,1373.12686 410.334087,1373.19032 410.290271,1373.24224 C410.057913,1373.27901 409.81095,1373.30353 409.553365,1373.31939 C409.362167,1373.30425 409.132465,1373.27973 408.832391,1373.23719 C408.402197,1373.00139 408.15789,1373.20041 407.865783,1373.44847 C407.698485,1373.47515 407.537826,1373.5076 407.395756,1373.55447 C407.370528,1373.63884 407.427622,1373.68427 407.520565,1373.71527 C407.273602,1373.8768 406.962906,1373.99722 406.508813,1373.9453 L405.158482,1372.97039 C402.722043,1372.41154 402.305127,1373.38862 398.775943,1373.39222 C397.987254,1373.22998 397.400385,1372.96173 397.098983,1372.6495 C397.292836,1372.6221 397.485361,1372.5983 397.667264,1372.5846 C397.429595,1372.57234 397.213171,1372.56153 397.008696,1372.55143 C396.885214,1372.3863 396.838742,1372.21036 396.893181,1372.0308 C398.574124,1371.92552 399.437167,1372.12527 400.958779,1371.73732 C402.094013,1371.9212 399.191532,1372.04162 400.435642,1372.10796 C399.381401,1372.18223 398.347077,1372.62859 397.841201,1372.93722 C400.564435,1373.09586 399.38804,1372.43245 401.706308,1372.26804 L403.437706,1372.61345 C404.485308,1372.54566 403.096472,1372.40577 403.034067,1372.2904 C404.308716,1372.19233 404.79202,1372.44471 405.755973,1372.44976 C405.473161,1372.35962 404.822559,1372.25362 404.984545,1372.10796 C406.583167,1372.40938 408.15789,1372.21324 409.640997,1372.77497 C408.784592,1372.50744 410.618227,1372.0921 411.299368,1372.00701 L408.250833,1371.45105 C404.377759,1371.62267 401.965221,1371.36235 397.784107,1371.6342 L398.03107,1371.41571 C391.445385,1370.73933 392.564686,1372.47211 386.931003,1372.4887 C386.776983,1371.94644 384.32594,1372.56369 384.538381,1372.03801 C386.239241,1372.07407 385.894023,1371.86928 385.409391,1371.61762 C384.422866,1371.80294 383.780231,1372.19521 381.876224,1371.99619 C382.578609,1371.72146 380.904304,1371.49287 382.769806,1371.38615 C380.191298,1371.27077 378.774579,1371.32125 377.457441,1371.79717 C373.248445,1372.26155 376.197398,1371.20732 372.016284,1371.47989 L372.629709,1371.27582 L370.027301,1371.35154 L370.883706,1371.6205 L367.804632,1371.94139 C365.912575,1372.2392 368.57606,1372.28174 368.330425,1372.50095 L368.967749,1372.10796 C370.21186,1372.2017 371.967157,1371.8599 372.227398,1372.13825 C370.194599,1372.19738 370.680559,1372.50672 369.873281,1372.6632 L371.810482,1372.50312 L372.441167,1372.79877 C374.36509,1372.80742 375.845542,1372.87376 376.992726,1372.54206 C376.197398,1372.39279 375.695505,1372.82905 374.985154,1372.60623 C375.930518,1372.11301 378.313846,1372.06686 380.629458,1371.90173 C380.690535,1372.01854 381.426114,1372.05244 381.11409,1372.15267 C381.066291,1372.19738 380.661324,1372.19305 380.435605,1372.17358 C380.61087,1372.39279 379.317632,1372.53413 381.496485,1372.66681 C380.824639,1372.96534 379.532729,1373.43188 379.21805,1373.63307 C376.887833,1373.08288 374.852378,1373.47587 372.461084,1373.75565 C371.965829,1373.76431 371.592729,1373.73114 371.523686,1373.59918 C370.914244,1373.67633 369.342177,1373.77152 370.44289,1373.93593 C370.202565,1373.94891 369.959585,1373.959 369.709967,1373.96405 L370.19991,1373.45929 C368.927916,1372.95813 369.850709,1374.23662 368.334408,1373.98568 L368.258726,1373.36554 C367.926786,1373.56817 367.653268,1373.65903 367.415599,1373.67705 C366.93495,1373.42828 366.418452,1373.25666 368.42204,1372.92496 C368.330425,1372.93649 367.456759,1372.99418 366.033401,1373.0836 C365.957719,1373.03889 365.879381,1372.99634 365.79706,1372.95885 C366.090495,1372.96678 366.277709,1372.95813 366.330819,1373.06269 C367.424893,1372.61345 365.814321,1372.50168 364.106823,1372.4649 L363.701856,1372.81968 C363.476137,1372.78867 363.266351,1372.7555 363.063204,1372.72161 C363.112331,1372.48725 363.299545,1372.25146 363.416388,1372.07335 L362.347542,1372.60047 C362.253271,1372.5846 362.156344,1372.56946 362.060746,1372.55504 L361.86291,1371.99619 C361.171147,1372.60479 360.981278,1372.2565 360.28686,1372.19521 L361.824405,1371.75174 L362.384719,1371.43158 L359.449043,1371.79717 C359.840732,1371.62411 358.425341,1371.67603 359.042749,1371.47412 C358.819686,1371.50152 357.770756,1371.57075 358.056224,1371.65944 L358.655043,1371.64862 C357.106876,1372.15267 358.044274,1372.34664 355.477716,1372.73098 C356.553201,1372.93289 357.219736,1372.8716 357.799967,1372.7418 L357.764117,1372.92351 L355.417967,1373.5999 C355.007689,1373.51697 354.609361,1373.43837 354.110124,1373.55735 L354.958562,1373.24584 C354.045064,1373.36122 353.531221,1373.32877 353.12891,1373.24152 C353.280274,1373.04682 353.215214,1372.82905 352.309682,1372.62859 C353.407739,1372.67618 353.551137,1372.72017 354.311943,1372.56369 L353.20592,1372.51393 C354.84703,1372.43461 357.356495,1371.93418 357.320645,1371.62699 C356.818753,1372.06397 355.767167,1371.6342 354.88288,1371.55633 C355.560037,1371.47124 356.999328,1371.23039 355.89596,1371.18064 C355.504271,1371.35514 352.506191,1371.6032 354.633261,1371.77409 C353.731712,1371.88803 352.520796,1372.10147 351.498421,1371.97888 C352.701371,1371.76544 351.910027,1371.61618 352.24595,1371.32413 C351.177104,1371.58156 351.211625,1371.88875 351.039017,1372.03513 C347.981187,1371.66882 346.74106,1370.88643 343.296853,1371.19217 C342.844087,1371.2477 345.385418,1371.05589 345.057462,1371.34649 C342.541358,1371.84693 341.783207,1370.81937 339.603027,1371.02849 L340.215124,1371.5145 C339.537967,1371.59815 337.891545,1371.67819 337.078957,1371.71929 C336.871826,1371.55633 334.544264,1371.22318 336.270351,1371.07103 C332.527398,1370.78836 332.95892,1372.10796 328.670258,1371.95509 C330.65393,1372.082 330.882304,1372.05388 332.442421,1372.04739 C331.384197,1372.21901 331.567428,1372.26083 331.794475,1372.35385 C331.353659,1372.369 330.928776,1372.3964 330.521154,1372.4375 C329.443013,1372.39928 328.524204,1372.43029 329.976773,1372.16637 C328.647686,1372.14546 325.985528,1372.10291 325.369448,1372.30482 L326.533893,1372.47211 C325.135763,1372.4649 323.760204,1372.62138 322.806873,1372.83987 C322.727207,1372.83121 322.660819,1372.83049 322.579826,1372.81968 C322.002251,1372.45264 321.056886,1372.26444 319.957502,1372.16276 C320.734241,1372.16348 321.6411,1372.18944 322.420495,1372.17502 C321.285261,1371.9897 321.942502,1371.83395 322.769696,1371.66593 C322.918405,1371.65295 323.017987,1371.62843 323.088358,1371.60031 C323.183957,1371.58012 323.274244,1371.56065 323.368515,1371.54046 L323.154746,1371.54118 C323.169351,1371.49287 323.12288,1371.4359 322.967532,1371.35658 C321.471147,1371.48061 320.327946,1371.12439 319.363993,1371.11934 C320.315997,1371.81231 316.0831,1371.27943 314.872184,1371.49287 L313.474054,1371.56065 L312.950916,1371.56209 C312.846023,1371.48566 312.994732,1371.3912 313.791388,1371.25347 C313.126181,1371.39047 310.906167,1371.34288 311.110642,1371.56498 L306.043913,1371.57507 C305.887237,1371.54695 305.729234,1371.51162 305.612391,1371.46186 C305.437127,1371.50513 305.406589,1371.54118 305.430488,1371.57579 L283.355164,1371.6205 C284.443926,1371.67531 285.386635,1371.83322 286.508592,1371.91038 C284.823666,1372.37044 288.350194,1371.99331 287.856268,1372.42812 C287.098117,1372.58604 285.989438,1372.53701 285.329542,1372.43101 C285.1171,1372.61994 285.783635,1372.79155 285.903134,1373.00283 L285.163572,1373.41097 C283.137411,1372.67618 280.238913,1373.27324 277.347054,1373.04249 C279.245749,1373.02086 281.169672,1372.96029 283.219732,1372.75838 C279.640094,1372.3315 285.565883,1372.40289 284.441271,1371.85702 L282.493448,1372.03801 L282.659418,1371.89091 L280.282729,1371.9385 C280.770017,1372.19016 281.136478,1372.20603 281.030258,1372.46923 C277.858241,1372.36683 280.030455,1372.15699 277.704221,1371.82457 L274.157776,1371.87216 L274.444572,1371.79284 C274.145826,1371.79933 274.014378,1371.83178 273.91214,1371.87505 L261.964963,1372.03874 C259.790094,1372.24857 263.166585,1372.51321 261.562652,1372.90044 C263.781338,1372.89972 266.945388,1373.11605 267.817726,1372.80958 L268.228003,1373.32877 L266.341258,1373.19825 L266.847134,1373.05115 C258.652204,1374.75797 254.949084,1372.31852 247.253391,1373.87752 C248.274438,1373.03817 245.73709,1374.31811 245.636181,1373.40088 C245.409134,1373.26603 245.18607,1373.16869 244.965662,1373.09802 C245.005495,1373.09297 245.05595,1373.08864 245.083833,1373.08504 L245.264408,1372.24929 C243.655164,1372.39279 243.640559,1372.77136 244.409331,1372.97904 C244.121207,1372.94515 243.838395,1372.95019 243.560893,1372.98913 C243.294013,1372.8853 243.332518,1372.73243 242.648722,1373.01437 C242.656689,1373.07566 242.752288,1373.11244 242.883736,1373.13984 C242.039281,1373.38646 241.237314,1373.80541 240.449953,1373.95756 C240.449953,1374.00227 240.430037,1374.05491 240.339749,1374.12629 L237.558094,1374.01597 C239.21912,1372.85645 235.554505,1374.9779 237.0801,1373.99145 C229.82788,1373.12398 220.363612,1374.00804 211.966863,1373.60783 L212.33598,1373.90564 C210.206254,1373.84867 207.558702,1374.21066 205.942819,1373.73474 C204.325609,1373.25882 202.408324,1374.49117 201.781622,1374.53876 C200.010391,1375.05218 198.399819,1374.03183 199.160625,1374.08447 C197.267241,1374.22653 195.486716,1375.28581 192.85908,1374.8308 C191.960187,1373.84795 185.690508,1375.79562 185.612171,1374.68803 L185.58296,1374.78105 C182.218418,1374.00155 179.043746,1375.32835 175.418963,1374.62241 C175.418963,1374.62241 175.488007,1374.54092 175.610161,1374.46593 L169.446702,1377.27458 C168.311468,1377.09647 167.026197,1376.86284 165.553712,1376.55205 L165.553712,1376.46552 C165.15804,1376.47994 165.160696,1376.65444 164.373334,1376.42225 L166.339746,1376.95658 C165.160696,1377.17579 164.131682,1377.59258 162.560943,1377.65171 C162.227676,1377.55508 162.113488,1377.37625 162.081622,1377.23636 L158.228465,1377.38274 L157.048087,1376.81885 C155.870365,1377.12459 156.408107,1378.31367 153.257334,1377.65099 C154.445679,1378.47664 151.694562,1378.14638 152.083595,1378.56605 C151.925592,1378.46438 151.563114,1378.31151 151.273662,1378.1709 C149.400194,1378.26608 145.872338,1378.49755 145,1378.92155 C145,1378.92155 152.329231,1380.65866 154.299625,1381.54128 C151.662696,1381.31702 153.605207,1381.64223 154.124361,1381.91985 L154.299625,1381.71434 C155.880987,1381.91552 155.880987,1382.43687 156.669676,1382.58109 C156.669676,1382.53927 156.645776,1382.48807 156.624532,1382.43687 L156.523622,1382.5061 C156.44794,1382.41452 156.493084,1382.35034 156.576732,1382.29842 C156.558144,1382.18738 156.631171,1382.0994 157.061365,1382.13041 L156.977716,1382.18521 C157.63894,1382.1095 158.778157,1382.19098 159.273411,1382.22776 L159.284033,1382.6633 C160.453789,1381.83476 167.15499,1383.92737 168.728385,1383.95477 C170.30709,1384.50352 172.266863,1383.81921 174.238585,1384.09394 C177.247288,1384.22806 175.943428,1384.68668 177.21011,1385.05516 C176.84896,1385.04001 176.401505,1384.98233 175.829241,1384.8619 C177.017585,1385.68755 174.266468,1385.35729 174.655502,1385.77697 C174.497498,1385.67529 174.13502,1385.52242 173.845569,1385.38181 C171.9721,1385.47699 168.444244,1385.70846 167.571906,1386.13247 C167.571906,1386.13247 174.901137,1387.86958 176.871532,1388.75219 C174.234602,1388.52793 176.177114,1388.85314 176.696268,1389.13076 L176.871532,1388.92525 C178.253729,1389.1012 178.427666,1389.5216 178.977358,1389.72062 C178.89902,1389.73864 178.844582,1389.75811 178.855204,1389.78047 C178.933542,1389.77109 179.006569,1389.75956 179.080923,1389.74874 C179.132706,1389.76388 179.181833,1389.78119 179.241582,1389.79201 C179.241582,1389.77398 179.229632,1389.7509 179.222993,1389.73071 C179.524395,1389.68961 179.844385,1389.66654 180.41001,1389.77326 C178.916281,1389.89873 177.358819,1389.90594 175.826585,1389.72278 C175.881023,1389.66798 176.033716,1389.61462 176.207652,1389.56342 C174.217341,1389.97084 171.2259,1389.86556 169.891502,1390.33859 L170.482355,1390.43306 C170.963003,1390.30182 171.938906,1390.2874 172.326612,1390.40854 C170.831555,1390.53329 173.387492,1390.83831 171.807458,1391.03589 C169.631261,1391.24428 167.698043,1390.73736 166.512355,1391.25798 C168.579676,1391.31135 171.369298,1391.59041 172.209769,1391.35966 L170.875371,1391.33803 L173.922579,1390.70851 C174.038094,1390.94359 176.609963,1390.56141 176.559508,1390.9407 C175.510579,1391.00849 174.551936,1391.00488 173.731381,1391.04382 C173.92789,1391.20679 176.538264,1391.13179 177.641632,1391.18083 L176.252796,1391.0431 C178.735706,1390.73303 181.906395,1390.83542 184.312294,1390.59891 C182.420237,1390.89744 186.719522,1390.85994 185.200565,1391.17362 C184.583157,1391.37552 183.58601,1391.06401 183.871478,1391.15198 C183.682936,1391.48873 185.343963,1391.21905 185.831251,1391.46999 C185.986599,1391.33586 186.967813,1391.23924 187.372779,1391.1253 L188.233167,1391.52984 C186.183107,1391.82404 184.281756,1392.0995 183.214237,1392.2329 L183.839612,1392.03099 C181.921,1392.51989 179.983799,1392.01225 178.010749,1392.38289 C178.091742,1392.31006 178.317462,1392.28193 177.948344,1392.26607 C175.510579,1392.1954 174.539987,1392.87828 172.581542,1392.56172 L172.825849,1392.34395 C172.65988,1392.36991 171.503401,1392.54946 171.733104,1392.79102 C173.375542,1392.7117 173.68491,1392.61147 175.153411,1392.67637 C174.551936,1392.87467 173.244094,1393.0398 172.28014,1393.04124 L172.175247,1393.42342 C170.937776,1393.82723 169.677732,1393.23522 168.445572,1393.63759 L169.891502,1393.89502 C169.851669,1393.9116 169.737482,1393.92097 169.645866,1393.93323 C170.299124,1393.89502 170.863421,1393.84382 171.017441,1393.75368 C173.194967,1393.54529 174.31294,1394.09259 174.664796,1394.29811 C175.683187,1394.42213 174.298334,1394.77979 174.420488,1395.01559 C176.058943,1394.93555 175.963344,1394.51083 177.604455,1394.43151 C178.035977,1394.48198 177.887268,1394.55914 177.693415,1394.60096 L178.790144,1394.40699 C178.851221,1394.52453 181.659431,1394.61106 179.995749,1394.88147 C179.747458,1394.87065 179.289381,1394.88147 178.933542,1394.86488 C181.223926,1395.14034 185.181977,1395.44392 185.057167,1395.87153 C186.307916,1395.96671 185.960043,1395.75904 187.947699,1395.88667 C188.871819,1395.58309 187.876,1395.27086 190.048214,1395.06246 L188.334077,1394.91175 C187.980893,1394.97016 187.688786,1395.04516 187.303736,1395.09275 L189.086916,1395.05741 C187.959649,1395.19875 188.161468,1395.36027 187.829528,1395.65232 C185.083722,1395.68188 184.330883,1395.1526 182.939391,1395.01271 C183.791813,1394.78268 185.261642,1394.84902 184.71195,1394.47982 C186.084853,1394.80864 186.23489,1394.1647 187.829528,1394.46684 L187.522816,1394.56635 C188.816054,1394.2808 188.993973,1394.63269 190.062819,1394.37382 C189.981826,1394.44665 190.123896,1394.49208 190.261983,1394.53607 C192.585562,1394.37166 189.558271,1394.31253 191.888488,1393.95775 C193.955809,1394.01255 192.560334,1394.56203 193.129943,1394.74086 C189.660508,1395.23625 193.200314,1395.35667 189.446739,1395.76192 C189.460017,1396.25947 190.933829,1396.32509 192.940074,1396.26236 C191.632231,1396.05036 193.772579,1395.53406 192.034542,1395.18865 C195.03395,1394.93988 194.781676,1393.97289 198.135595,1394.4279 L198.053274,1394.50073 L199.431488,1394.14163 L201.330184,1394.34137 C200.152462,1394.86344 198.705204,1394.60745 197.778428,1394.91031 C200.090057,1395.4331 200.881401,1394.3969 203.546214,1394.44016 C205.763572,1395.03578 200.833602,1394.77907 200.844224,1395.27591 C201.379311,1395.14611 202.833207,1395.40282 202.661926,1395.54848 C200.167067,1395.36027 201.14297,1395.86143 198.362642,1395.58597 C199.718284,1395.41724 198.155512,1395.42373 198.409114,1395.20452 C198.013441,1395.37902 195.409706,1395.45474 193.570759,1395.37181 C193.14986,1395.73596 195.165398,1395.67323 196.327187,1395.83908 C198.527284,1395.44031 200.807047,1396.15419 202.497284,1395.69414 C204.872645,1395.64727 202.676532,1396.04603 202.81993,1396.09074 C204.952311,1396.26236 203.74405,1395.78788 204.423863,1395.70279 C207.642351,1395.42733 208.003502,1396.13112 210.29787,1396.15708 C212.208515,1395.66746 216.858328,1395.83691 220.113993,1395.86792 C219.719649,1396.04026 220.151171,1396.17439 220.347679,1396.33807 C222.287535,1395.65736 221.589134,1395.93426 224.013622,1395.50593 L221.963562,1395.2622 C223.607328,1395.18144 224.929776,1394.7048 226.436783,1395.07905 C224.435849,1394.45386 229.08699,1394.62332 230.299234,1394.40987 C231.977522,1394.6363 233.662448,1394.17696 234.57993,1394.56203 L234.351555,1394.59015 L236.789321,1394.66081 L236.494559,1395.2586 C238.170191,1395.48791 240.229545,1395.04371 239.65197,1394.86488 C241.412579,1395.0192 240.374271,1395.08842 240.630528,1395.36821 C239.637365,1395.55353 237.502328,1396.06911 236.892886,1395.58381 C237.036284,1395.62852 237.406729,1395.6451 237.491706,1395.57227 C232.912264,1395.29898 235.996649,1396.29841 233.711575,1396.45128 C234.902575,1396.49383 235.792174,1396.78299 237.064167,1396.62363 C237.65502,1396.61137 240.058264,1396.37485 241.270508,1396.16141 C239.605498,1396.43109 238.749094,1396.16429 237.442579,1395.95229 C238.551258,1396.00204 238.731833,1395.66529 239.681181,1395.86071 L239.371813,1395.96238 L240.581401,1395.74822 C240.761977,1396.10083 243.898144,1395.89604 242.061853,1396.31139 C243.705619,1396.23207 242.626151,1395.99195 244.122535,1395.86792 L241.169599,1395.73596 L241.220054,1395.35667 C242.298194,1395.09852 242.557107,1395.3783 243.746779,1395.35378 L243.64587,1394.92906 L245.753023,1395.29033 C245.492783,1395.01127 247.111321,1395.12087 247.562759,1395.06463 C248.725876,1395.23192 247.973037,1395.88667 249.95007,1395.51531 L249.806672,1395.4706 C250.939251,1395.32927 251.608441,1395.2449 253.228308,1395.35667 C253.142003,1395.42878 252.695876,1395.48502 252.472813,1395.51314 C254.739298,1395.73019 258.374702,1395.08842 259.409027,1395.70856 C259.225796,1396.04387 258.280431,1395.84917 258.232632,1396.22919 C254.739298,1395.73019 255.784244,1396.84644 251.670846,1396.54935 C251.480977,1395.69847 248.200084,1397.04474 247.418033,1396.20539 C249.032589,1396.31644 251.17692,1395.80014 250.890124,1395.71 C249.404361,1395.75832 247.321107,1395.77634 246.284127,1395.68837 C247.196298,1395.96599 246.902863,1396.43542 246.240311,1396.72674 C248.643555,1396.49022 253.013211,1397.0671 256.41493,1397.14281 L256.032535,1396.63012 C258.970866,1396.26236 255.676696,1397.10964 257.969736,1397.13632 L258.982816,1396.75991 L259.127542,1396.80534 L260.809813,1396.34528 C259.621468,1396.36764 260.168505,1396.73684 258.860662,1396.52556 C257.697545,1396.35898 258.909789,1396.14482 259.241729,1395.8535 C260.037057,1396.00493 262.866512,1395.89965 261.119181,1396.24289 L264.223482,1395.73236 C264.20091,1395.922 263.523753,1396.00709 263.207746,1396.10732 L265.449003,1396.01719 L265.366682,1396.0893 C267.171107,1395.86432 269.692522,1395.86143 271.070736,1395.50089 C269.105652,1395.26725 270.255492,1395.1562 271.2699,1395.0329 C271.892619,1395.07977 272.506043,1395.13385 273.099552,1395.19875 C273.171251,1395.498 272.730435,1395.88234 271.370809,1396.0893 C270.740124,1395.79293 269.132207,1396.18015 267.946518,1396.20251 C269.474769,1396.38639 269.951435,1396.14122 271.146418,1396.1167 C270.301963,1396.34673 272.737074,1396.41667 272.711846,1396.60776 C272.551187,1396.75414 272.050622,1397.1904 270.515732,1397.00725 C268.222692,1396.98129 270.275408,1396.53782 269.598251,1396.6229 C268.990137,1396.13617 266.401007,1396.70871 265.010843,1396.57026 C264.864789,1396.52556 265.318883,1396.46931 265.544602,1396.44119 C264.349619,1396.46499 261.832187,1396.46643 261.648957,1396.80246 L264.63907,1396.55368 C265.291,1396.65896 263.716278,1396.85726 264.65102,1397.05195 C265.330833,1396.96759 266.146077,1396.9272 267.031692,1397.00364 L266.865722,1397.15002 C268.678114,1397.42187 271.51288,1397.31948 273.601445,1397.18247 C273.991806,1396.56305 274.809706,1396.13761 275.605033,1395.55353 C276.112237,1395.64583 276.582264,1395.74966 277.025736,1395.86143 C276.013983,1396.02007 275.60105,1396.32581 276.270241,1396.53782 L276.814622,1396.40874 L277.951184,1396.7664 C278.382706,1396.07487 281.732642,1396.46787 283.570261,1396.16141 C282.307562,1396.46643 281.221455,1397.10459 279.59495,1396.6842 L279.770214,1397.03825 C278.358806,1397.08873 277.215605,1396.73251 276.432227,1397.08008 L278.075993,1397.00004 L278.046783,1397.1904 C279.212555,1397.16661 280.695662,1396.86808 281.771147,1397.08008 C282.716512,1396.845 283.603455,1396.47075 286.130181,1396.55584 L286.046532,1396.63012 C287.758013,1395.97897 290.818498,1397.03248 292.113064,1396.74621 C292.860592,1396.09146 289.334064,1396.47003 288.478987,1396.20179 C289.545177,1395.94292 290.684395,1396.30058 289.769569,1395.91551 C292.259117,1395.60472 291.256659,1396.47941 293.31203,1396.03377 L292.147585,1395.86792 C293.070378,1395.56506 294.606595,1395.74822 295.537355,1395.44608 C295.590465,1395.25932 295.324913,1395.23048 294.881441,1395.24706 C295.328896,1395.1526 295.845395,1395.05669 296.481391,1394.98531 C297.078883,1395.02713 297.730813,1395.05958 298.466391,1395.07905 C298.601823,1395.08049 298.700077,1395.06463 298.787709,1395.04444 C298.832853,1395.05814 298.867375,1395.07544 298.908535,1395.09059 L298.466391,1395.07905 C298.637672,1395.09059 298.787709,1395.09635 298.929779,1395.09852 C299.880455,1395.43599 300.330565,1395.95517 299.934893,1396.47436 L299.494077,1396.38639 C298.628378,1396.44335 299.42105,1396.54791 299.758301,1396.64814 C299.733074,1396.6705 299.709174,1396.69285 299.679963,1396.71448 C298.583234,1396.76496 298.077358,1396.55584 297.177137,1396.5508 C297.45995,1396.64093 298.110552,1396.74621 297.947237,1396.89259 C296.349943,1396.59118 294.775221,1396.78731 293.292114,1396.22558 C294.147191,1396.49311 292.314883,1396.90846 291.632415,1396.99355 L294.68095,1397.54951 C298.554023,1397.37717 300.966562,1397.6382 305.149003,1397.36635 L304.900712,1397.58412 C311.486398,1398.26122 310.368425,1396.52844 316.000779,1396.51186 C316.156127,1397.05412 318.605843,1396.43686 318.393401,1396.96254 C316.692542,1396.92576 317.037759,1397.13127 317.522391,1397.38293 C318.510244,1397.19689 319.15288,1396.80534 321.055559,1397.00364 C320.354502,1397.2791 322.028806,1397.50768 320.161977,1397.61368 C322.741813,1397.72978 324.157204,1397.67858 325.475669,1397.20338 C329.684666,1396.739 326.735712,1397.79251 330.916826,1397.52066 L330.302074,1397.72401 L332.904482,1397.6483 L332.049405,1397.38005 L335.127151,1397.05916 C337.019207,1396.76063 334.35705,1396.71809 334.601358,1396.4996 L333.965361,1396.89259 C332.721251,1396.79885 330.964625,1397.14065 330.705712,1396.86231 C332.737184,1396.80246 332.251224,1396.49383 333.059829,1396.33735 L331.122629,1396.49743 L330.491943,1396.20179 C328.56802,1396.19241 327.087569,1396.12679 325.939057,1396.4585 C326.735712,1396.60776 327.236278,1396.1715 327.947957,1396.39432 C327.002592,1396.88754 324.620592,1396.93369 322.302324,1397.09882 C322.242575,1396.98129 321.506997,1396.94812 321.81902,1396.84788 C321.865492,1396.80246 322.271786,1396.80678 322.496177,1396.82697 C322.322241,1396.60776 323.615478,1396.46643 321.436625,1396.33375 C322.218676,1395.98618 323.847836,1395.40859 323.790742,1395.29033 C325.06008,1395.19442 326.844589,1395.15981 327.86298,1395.2824 L327.781987,1395.35523 C328.670258,1395.39489 330.344562,1395.17639 331.065535,1395.27374 C331.153167,1395.31917 331.24611,1395.36172 331.345692,1395.39489 L331.319137,1395.34585 C331.351003,1395.36388 331.396147,1395.37686 331.409425,1395.40138 C332.083926,1395.31629 333.949428,1395.20812 332.049405,1395.0091 L333.362559,1394.92329 C334.309251,1395.26365 333.774164,1395.84917 333.540478,1396.20611 L334.840355,1395.56578 L334.990391,1395.98979 C334.848321,1396.01719 334.691645,1396.04531 334.51107,1396.0756 C334.548247,1396.07055 334.722184,1396.05829 335.007652,1396.03882 L335.093957,1396.28255 C335.250632,1396.14482 335.380753,1396.06045 335.496268,1396.00637 C335.668876,1395.99483 335.865385,1395.98185 336.079154,1395.96887 C336.177408,1395.99123 336.279645,1396.02007 336.399144,1396.04531 C335.925134,1396.33447 336.789505,1396.45489 337.972538,1396.50681 C337.979177,1396.50825 337.983161,1396.51041 337.989799,1396.51186 L337.999094,1396.50825 C338.265973,1396.51979 338.542147,1396.52916 338.826288,1396.53493 L339.229926,1396.18088 C340.705067,1396.38062 341.586699,1396.6979 343.549127,1396.54358 L348.143174,1395.21966 C348.586645,1395.19154 349.039411,1395.16342 349.492177,1395.13673 C349.546615,1395.15548 349.622298,1395.16774 349.696652,1395.18144 L349.559893,1395.49079 L349.970171,1395.21966 C350.769482,1395.30186 351.960482,1395.26653 351.317846,1395.59968 C351.522321,1395.76336 350.845164,1395.84701 349.960876,1395.76913 C349.825445,1395.72515 350.044525,1395.69774 349.90511,1395.65232 C349.654164,1395.87153 349.547943,1396.134 350.623428,1396.37196 C349.524043,1396.32365 349.381973,1396.27966 348.619839,1396.43686 L349.725863,1396.4859 C348.084753,1396.56522 345.576615,1397.06638 345.611137,1397.37356 C346.114358,1396.93658 347.165943,1397.36635 348.050231,1397.44423 C347.371746,1397.5286 345.933783,1397.77016 347.035823,1397.81992 C347.428839,1397.64469 350.428247,1397.39736 348.299849,1397.22646 C349.201398,1397.11253 350.412314,1396.89836 351.434689,1397.02167 C350.231739,1397.23511 351.023084,1397.38438 350.687161,1397.67642 C351.756007,1397.41899 351.720157,1397.1118 351.894094,1396.96542 C354.951923,1397.33102 356.19205,1398.1134 359.636258,1397.80838 C360.087696,1397.75213 357.547692,1397.94466 357.874321,1397.65407 C360.391753,1397.15291 361.148575,1398.18118 363.330084,1397.97135 L362.716659,1397.48605 C363.393816,1397.40168 365.041565,1397.32236 365.852826,1397.28126 C366.059957,1397.44423 368.387518,1397.77737 366.662759,1397.92952 C370.405712,1398.21219 369.972863,1396.89259 374.262853,1397.04474 C372.277853,1396.91855 372.049478,1396.94667 370.490689,1396.95316 C372.154371,1396.68348 370.745619,1396.73612 370.928849,1396.39937 C371.927324,1396.7116 375.151124,1396.43542 372.95501,1396.83418 C374.284097,1396.8551 376.947582,1396.89692 377.563662,1396.69573 L376.399217,1396.52844 C377.648639,1396.53421 378.878144,1396.41018 379.807575,1396.22775 C381.023803,1396.23568 382.244013,1396.21909 383.273027,1396.25803 C383.291615,1396.25659 383.306221,1396.25515 383.323482,1396.25371 C383.920973,1396.32221 384.344528,1396.44407 384.69904,1396.5544 C384.789328,1396.98057 382.294468,1396.79164 380.511288,1396.82553 C381.646522,1397.01013 380.990609,1397.16661 380.163415,1397.3339 C380.014706,1397.34688 379.915124,1397.3714 379.844753,1397.39952 C379.749154,1397.41971 379.657538,1397.43918 379.564595,1397.46009 L379.778365,1397.45937 C379.762431,1397.50696 379.810231,1397.56465 379.964251,1397.64397 C381.460635,1397.51994 382.605164,1397.87616 383.569117,1397.88121 C382.617114,1397.18824 386.848682,1397.72113 388.060926,1397.50768 L389.459057,1397.43918 L389.982194,1397.43774 C390.087087,1397.51417 389.938378,1397.60936 389.140395,1397.74636 C389.805602,1397.61008 392.026943,1397.65767 391.82114,1397.43557 L396.88787,1397.42548 C397.045873,1397.4536 397.203876,1397.48894 397.320719,1397.53869 C397.495983,1397.4947 397.525194,1397.45937 397.502622,1397.42404 L419.577946,1397.37933 C418.487856,1397.32453 417.546475,1397.16661 416.423191,1397.09017 C418.109445,1396.63012 414.581589,1397.00725 415.076843,1396.57243 C415.833666,1396.41379 416.942344,1396.46354 417.603569,1396.56954 C417.849204,1396.34961 416.907823,1396.15492 417.016699,1395.89244 C414.232388,1395.61626 413.806177,1396.66761 411.085599,1396.50753 C411.193147,1396.24433 412.033619,1396.0143 410.253094,1396.04964 L410.70586,1395.99339 C407.852505,1396.2876 408.481863,1395.39777 406.686732,1396.11958 L406.733204,1395.73957 C405.439967,1396.02584 402.922535,1396.028 401.503161,1396.08064 L401.588137,1396.00709 C397.607515,1396.44191 399.353518,1396.09939 394.882953,1396.28183 L396.94098,1395.83836 C395.399452,1395.6552 395.051579,1396.13689 393.944227,1396.08785 C394.010615,1396.02656 393.85394,1395.82394 394.402304,1395.71793 L389.388686,1396.34312 C388.095448,1396.63012 389.65291,1396.6229 389.853401,1396.78443 C389.37408,1397.03104 387.026602,1396.88827 386.90312,1396.65391 C387.219127,1396.55224 388.492448,1396.45489 387.691809,1396.30562 L385.835602,1396.91134 C383.364642,1396.53421 387.713054,1396.11526 388.933264,1395.90181 C388.457926,1395.88667 388.058271,1395.89244 387.685171,1395.90614 C391.161244,1395.61842 394.219074,1395.3545 398.360355,1395.11943 C401.107488,1396.24577 404.927452,1395.28816 408.256144,1395.2348 C408.310582,1395.2622 408.399542,1395.29105 408.566839,1395.32422 C408.605344,1395.28961 408.659783,1395.2622 408.70891,1395.23264 C409.428555,1395.24057 410.121645,1395.29465 410.769592,1395.43382 L411.790639,1394.86993 L411.798605,1394.86993 C413.528676,1395.4944 415.892087,1395.1526 418.344458,1395.18216 C418.347114,1395.19731 418.361719,1395.20884 418.360391,1395.22543 C418.884856,1395.25788 419.429237,1395.27014 419.976274,1395.27374 C420.508706,1395.32999 421.039809,1395.41363 421.564274,1395.54559 C422.418023,1395.29754 422.866806,1395.21966 423.06597,1395.19947 C423.023482,1395.19154 422.974355,1395.17712 422.925227,1395.15548 C423.632923,1395.09635 424.303441,1395.01775 424.924833,1394.91608 C425.279344,1394.9817 425.509047,1395.10356 425.457264,1395.35955 L425.20499,1395.4331 C425.058936,1396.15131 428.22697,1395.0978 429.338304,1395.71938 L428.728863,1394.95069 L430.615609,1395.08049 L430.11106,1395.22831 C430.53196,1395.14034 430.934271,1395.07039 431.333926,1395.00333 C433.094535,1395.11582 434.735645,1395.28456 435.199033,1395.05958 C435.852291,1394.90166 436.65293,1394.75744 437.501368,1394.61683 C441.426224,1394.75167 444.733672,1395.40859 449.703475,1394.40194 C448.683756,1395.24057 451.221104,1393.96136 451.320686,1394.87786 C452.910013,1395.82249 454.306816,1395.05453 455.634575,1394.57573 C456.153729,1394.56563 456.683505,1394.55986 457.205314,1394.55698 C457.302241,1394.57356 457.392528,1394.59159 457.466883,1394.61394 C457.448294,1394.59375 457.454933,1394.57428 457.484144,1394.55554 C457.743057,1394.55481 457.997987,1394.55554 458.24495,1394.55626 C458.248933,1394.51299 458.153334,1394.48198 458.021886,1394.45602 L457.99002,1394.43007 C457.99002,1394.43007 457.956826,1394.43511 457.928943,1394.43944 C457.910355,1394.43656 457.890438,1394.43367 457.870522,1394.43079 C457.619575,1394.33055 457.369957,1394.28368 457.11901,1394.27503 C457.120338,1394.24907 457.166809,1394.21951 457.302241,1394.18057 L459.325746,1394.25989 C459.231475,1394.30099 459.185003,1394.34786 459.206247,1394.40194 C458.794642,1394.70264 458.968579,1394.64279 459.288569,1394.48847 C459.73204,1394.45314 460.215344,1394.4142 460.713254,1394.37382 C467.848632,1395.08554 476.910589,1394.28657 484.990003,1394.67163 L484.622214,1394.3731 C486.750612,1394.43007 489.399492,1394.06808 491.015375,1394.54472 C492.632585,1395.01992 494.548542,1393.78757 495.176572,1393.73998 C496.946475,1393.22656 498.558375,1394.24763 497.797569,1394.19499 C498.918197,1394.11062 500.001649,1393.71042 501.241776,1393.4876 C501.51795,1393.52293 501.792796,1393.55827 502.06897,1393.60514 C502.728866,1394.05077 507.510127,1394.00967 511.270341,1393.83516 L511.235819,1393.94477 C511.263702,1393.90295 511.272997,1393.86978 511.290258,1393.83444 C511.939532,1393.80344 512.547645,1393.76882 513.109288,1393.73205 C515.852438,1393.87627 518.542478,1393.07297 521.539231,1393.65706 C521.539231,1393.65706 521.46886,1393.73854 521.346706,1393.81281 L524.569177,1392.34467 C524.570505,1392.34467 524.571833,1392.34467 524.571833,1392.34395 L524.367358,1392.53287 C524.907756,1392.73478 525.21314,1390.77557 531.194696,1393.16888 L531.194696,1393.25613 C531.401826,1393.24099 531.400498,1393.0672 531.814759,1393.29867 L530.780435,1392.76434 C531.400498,1392.54585 531.942224,1392.12834 532.766763,1392.06921 C532.943355,1392.16656 533.001776,1392.34539 533.020365,1392.48528 L535.045197,1392.3389 L535.665261,1392.90279 C536.283997,1392.59705 536.002512,1391.40725 537.658227,1392.06993 C537.034181,1391.245 538.48011,1391.57526 538.275635,1391.15487 C538.359284,1391.25726 538.549154,1391.40941 538.701846,1391.55075 C539.685716,1391.45484 541.540595,1391.22409 542,1390.80009 C542,1390.80009 540.90991,1390.30831 539.734843,1389.71629 C540.451833,1389.61606 541.046669,1389.49852 541.33612,1389.35791 L541.33612,1389.35791 Z" id="Fill-29-Copy-4" transform="translate(343.500000, 1384.500000) rotate(-180.000000) translate(-343.500000, -1384.500000) "></path>
        </g>
    </g>
</svg>